<svg  xmlns="http://www.w3.org/2000/svg">
        <symbol id="img-delete-photo">
            <path xmlns="http://www.w3.org/2000/svg" d="M176.415,880.5c0,11.046,8.954,20,20,20h507.67c11.046,0,20-8.954,20-20V232.487h-547.67V880.5L176.415,880.5z M562.75,342.766h75v436.029h-75V342.766z M412.75,342.766h75v436.029h-75V342.766z M262.75,342.766h75v436.029h-75V342.766z"/><path xmlns="http://www.w3.org/2000/svg" d="M618.825,91.911V20c0-11.046-8.954-20-20-20h-297.15c-11.046,0-20,8.954-20,20v71.911v12.5v12.5H141.874 c-11.046,0-20,8.954-20,20v50.576c0,11.045,8.954,20,20,20h34.541h547.67h34.541c11.046,0,20-8.955,20-20v-50.576 c0-11.046-8.954-20-20-20H618.825v-12.5V91.911z M543.825,112.799h-187.15v-8.389v-12.5V75h187.15v16.911v12.5V112.799z"/>
        </symbol>
        <symbol id="img-disco-ball">
            <path xmlns="http://www.w3.org/2000/svg" d="M441.616,278.102c0-95.11-73.015-173.588-166.094-182.097V16.781C275.522,7.513,268.008,0,258.741,0 c-9.268,0-16.781,7.513-16.781,16.781v79.224c-93.091,8.51-166.093,87.003-166.093,182.097c0,0.057,0.002,0.114,0.002,0.172 c0,0.015-0.002,0.028-0.002,0.044c0,0.025,0.003,0.048,0.003,0.072c0.157,100.876,82.328,182.588,182.871,182.588 c100.377,0,182.715-81.554,182.872-182.588c0-0.025,0.003-0.048,0.003-0.072c0-0.015-0.002-0.029-0.002-0.044 C441.614,278.216,441.616,278.159,441.616,278.102z M122.606,216.786h38.143c-2.8,14.328-4.618,29.339-5.377,44.749h-45.02 C112.103,245.755,116.313,230.704,122.606,216.786z M122.805,339.847c-6.344-13.911-10.606-28.961-12.403-44.749h44.989 c0.778,15.415,2.626,30.424,5.447,44.749H122.805z M143.893,373.408h25.812c4.084,12.072,8.969,23.493,15.061,34.356 C169.164,398.828,155.321,387.156,143.893,373.408z M169.561,183.224H143.53c11.498-13.936,25.471-25.755,41.237-34.786 C178.607,159.42,173.675,170.994,169.561,183.224z M241.961,422.554c-16.989-9.772-29.094-31.02-36.483-49.146h36.483V422.554z M241.961,339.847H195.1c-3.165-14.105-5.229-29.148-6.096-44.749h52.957V339.847z M241.961,261.536h-52.985 c0.845-15.595,2.885-30.639,6.024-44.749h46.961V261.536z M241.961,183.224h-36.659c7.377-18.23,19.542-39.729,36.659-49.575 V183.224z M373.953,183.224h-26.032c-4.109-12.219-9.047-23.805-15.206-34.786C348.483,157.469,362.456,169.288,373.953,183.224z M275.523,133.649c17.114,9.844,29.281,31.341,36.659,49.575h-36.659V133.649z M275.523,422.554v-49.146h36.483 C304.628,391.51,292.523,412.777,275.523,422.554z M322.383,339.847h-46.86v-44.749h52.957 C327.613,310.697,325.549,325.742,322.383,339.847z M275.523,261.536v-44.749h46.961c3.139,14.112,5.18,29.155,6.024,44.749 H275.523z M332.716,407.766c6.113-10.9,10.992-22.329,15.063-34.356h25.812C362.163,387.156,348.32,398.828,332.716,407.766z M394.679,339.847h-38.032c2.821-14.325,4.67-29.334,5.447-44.749h44.989C405.284,310.885,401.023,325.935,394.679,339.847z M362.11,261.536c-0.757-15.409-2.576-30.421-5.377-44.749h38.144c6.293,13.918,10.503,28.968,12.253,44.749H362.11z"/><path xmlns="http://www.w3.org/2000/svg" d="M464.896 445.313L451.5 420.819 438.105 445.313 413.611 458.708 438.105 472.104 451.5 496.597 464.896 472.104 489.389 458.708z"/><path xmlns="http://www.w3.org/2000/svg" d="M95.289 85.216L68.498 93.064 41.706 85.216 49.553 112.008 41.706 138.8 68.498 130.953 95.289 138.8 87.442 112.008z"/><path xmlns="http://www.w3.org/2000/svg" d="M58.353 402.742L47.517 382.93 36.682 402.742 16.869 413.578 36.682 424.412 47.517 444.225 58.353 424.412 78.165 413.578z"/><path xmlns="http://www.w3.org/2000/svg" d="M475.319 101.172L464.483 81.361 453.648 101.172 433.835 112.008 453.648 122.843 464.483 142.656 475.319 122.843 495.131 112.008z"/><path xmlns="http://www.w3.org/2000/svg" d="M138.951 458.354L112.128 466.209 85.304 458.354 93.161 485.177 85.304 512 112.128 504.144 138.951 512 131.095 485.177z"/>
        </symbol>
        <symbol id="img-edit-table">
            <path xmlns="http://www.w3.org/2000/svg" d="m205.332031 395.113281c-1.40625 1.386719-2.386719 3.160157-2.835937 5.101563l-23.253906 98.6875c-.851563 3.582031.234374 7.378906 2.835937 9.984375 2.027344 2.003906 4.757813 3.113281 7.554687 3.113281.808594 0 1.640626-.085938 2.453126-.296875l98.667968-23.253906c1.917969-.449219 3.6875-1.429688 5.097656-2.839844l139.539063-139.539063-90.515625-90.519531zm0 0"/><path xmlns="http://www.w3.org/2000/svg" d="m499.5 221.632812-30.167969-30.167968c-16.125-16.125-44.222656-16.125-60.351562 0l-41.472657 41.472656 90.519532 90.519531 41.472656-41.472656c8.0625-8.0625 12.5-18.773437 12.5-30.164063 0-11.414062-4.4375-22.125-12.5-30.1875zm0 0"/><path xmlns="http://www.w3.org/2000/svg" d="m145.921875 405.332031h-92.589844c-5.886719 0-10.664062-4.777343-10.664062-10.664062v-53.335938h160c11.773437 0 21.332031-9.554687 21.332031-21.332031v-85.332031h86.828125c11.773437 0 21.332031-9.558594 21.332031-21.335938 0-11.773437-9.558594-21.332031-21.332031-21.332031h-86.828125v-64h138.667969v21.332031c0 11.777344 9.554687 21.335938 21.332031 21.335938s21.332031-9.558594 21.332031-21.335938v-101.332031c0-26.476562-21.523437-48-48-48h-309.332031c-26.476562 0-48 21.523438-48 48v346.667969c0 29.394531 23.9375 53.332031 53.332031 53.332031h92.589844c11.773437 0 21.332031-9.558594 21.332031-21.332031 0-11.777344-9.558594-21.335938-21.332031-21.335938zm35.410156-106.664062h-138.664062v-64h138.664062zm0-106.667969h-138.664062v-64h138.664062zm0 0"/>
        </symbol>
        <symbol id="img-elevator-doors">
            <path xmlns="http://www.w3.org/2000/svg" d="M60.343 0L60.343 471.418 94.343 471.418 94.343 34 423.777 34 423.777 471.418 457.777 471.418 457.777 0z"/><path xmlns="http://www.w3.org/2000/svg" d="M104.194 43.906H253.449V444.51H104.194z"/><path xmlns="http://www.w3.org/2000/svg" d="M264.672 43.906H413.92600000000004V444.51H264.672z"/><path xmlns="http://www.w3.org/2000/svg" d="M13.641,281.419h36.811v-91.362H13.641V281.419z M32.044,201.635l11.34,19.123h-22.68L32.044,201.635z M43.384,250.718 l-11.34,19.123l-11.34-19.123H43.384z"/>
        </symbol>
        <symbol id="img-escalator">
            <path xmlns="http://www.w3.org/2000/svg" d="m147.47 460.84h364.477v-311.756h-52.721z"/><path xmlns="http://www.w3.org/2000/svg" d="m435.186 66.958-336.081 336.081h-99.105v57.801h105.044l341.756-341.756h65.147v-52.126z"/><path xmlns="http://www.w3.org/2000/svg" d="m158.432 232.062v69.224l69.223-69.224z"/><path xmlns="http://www.w3.org/2000/svg" d="m370.839 88.879h-69.327v69.327z"/><path xmlns="http://www.w3.org/2000/svg" d="m299.299 160.419h-69.326v69.326z"/><path xmlns="http://www.w3.org/2000/svg" d="m86.892 303.706v69.119l-.214.214 69.333-69.333z"/><path xmlns="http://www.w3.org/2000/svg" d="m107.705 153.081 50.761-50.761v28.159h30v-79.372h-78.046v30h26.833l-50.761 50.761z"/>
        </symbol>
        <symbol id="img-food">
            <path xmlns="http://www.w3.org/2000/svg" d="M251.39,157.505c-1.362-1.559-2.517-3.26-3.469-5.056c-0.468,48.27-39.875,87.398-88.254,87.398 c-48.669,0-88.265-39.596-88.265-88.265s39.596-88.265,88.265-88.265c41.868,0,77.02,29.304,86.027,68.477l7.993-59.42l0.18-1.336 c-22.76-26.581-56.544-43.457-94.2-43.457c-29.378,0-56.398,10.276-77.667,27.414v1.283v1.136v25.168v0.999 c0,16.811-8.713,32.159-22.5,40.929v98.378v1.695c22.574,30.89,59.063,50.998,100.167,50.998c43.192,0,81.291-22.203,103.5-55.79 v-1.817V165.28C258.661,163.814,254.578,161.151,251.39,157.505z"/><path xmlns="http://www.w3.org/2000/svg" d="M159.667,78.318c-40.398,0-73.265,32.866-73.265,73.265s32.866,73.265,73.265,73.265s73.265-32.866,73.265-73.265 S200.065,78.318,159.667,78.318z"/><path xmlns="http://www.w3.org/2000/svg" d="M299.833,14.476c0-6.384-5.175-11.559-11.559-11.559c-5.788,0-10.684,4.281-11.455,10.018l-16.89,125.549 c-0.445,3.305,0.56,6.64,2.754,9.15c2.195,2.51,5.366,3.949,8.701,3.949h6.782V286.25c0,6.075,4.925,11,11,11s11-4.925,11-11 L299.833,14.476z"/><path xmlns="http://www.w3.org/2000/svg" d="M67,16.917c0-4.143-3.357-7.5-7.5-7.5s-7.5,3.357-7.5,7.5v41.499H41V16.917c0-4.143-3.357-7.5-7.5-7.5s-7.5,3.357-7.5,7.5 v41.499H15V16.917c0-4.143-3.357-7.5-7.5-7.5S0,12.774,0,16.917v67.666c0,14.619,9.417,27.073,22.5,31.636V286.25 c0,6.075,4.925,11,11,11s11-4.925,11-11V116.219C57.583,111.656,67,99.202,67,84.583V16.917z"/>
        </symbol>
        <symbol id="img-hanger">
            <path xmlns="http://www.w3.org/2000/svg" d="m14.8862 9.35834-5.5625-3.6734c.99054-.490418 1.67627-1.50677 1.67627-2.68494 0-1.6543-1.3457-3-3-3s-3 1.3457-3 3h2c0-.55127.44873-1 1-1s1 .44873 1 1-.44873 1-1 1c-.552246 0-1 .447754-1 1v.471741l-5.88867 3.89844v.0005493c-.695801.460693-1.11133 1.25488-1.11133 2.12408 0 .669617.246094 1.29889.693848 1.77197.446777.473145 1.04053.733215 1.67188.733215h.0019531l11.2681-.0093384c1.30371-.0010376 2.36426-1.12561 2.36426-2.50671 0-.870239-.416504-1.66443-1.11377-2.12561zm-1.25195 2.64166h-11.2671c-.0512695 0-.129395-.0117188-.219238-.106445-.122559-.129395-.147949-.288086-.147949-.398926 0-.196289.0805664-.367188.21582-.456543l5.78467-3.83008 5.78369 3.81934c.134766.0893555.21582.260254.21582.456543 0 .290039-.192871.516113-.365723.516113z" transform="translate(0 1)"/>
        </symbol>
        <symbol id="img-help">
            <path xmlns="http://www.w3.org/2000/svg" d="m0 325h512v187h-512zm0 0"/><path xmlns="http://www.w3.org/2000/svg" d="m0 250h512v45h-512zm0 0"/><path xmlns="http://www.w3.org/2000/svg" d="m316 160h-120c-33.136719 0-60 26.863281-60 60h240c0-33.136719-26.863281-60-60-60zm0 0"/><path xmlns="http://www.w3.org/2000/svg" d="m321 65c0 35.898438-29.101562 65-65 65s-65-29.101562-65-65 29.101562-65 65-65 65 29.101562 65 65zm0 0"/>
        </symbol>
        <symbol id="img-icon-(1)">
            <circle xmlns="http://www.w3.org/2000/svg" cx="10.432" cy="15.771" r="2.426" /><path xmlns="http://www.w3.org/2000/svg"  d="M16.23,9.926c-0.036-0.037-0.074-0.07-0.111-0.104L16.01,9.719 c-0.018-0.019-0.038-0.033-0.061-0.051c-3.137-2.85-7.938-2.737-10.932,0.257l-0.351,0.352L4.18,10.763 c-0.592,0.592-0.589,1.557,0.004,2.15c0.594,0.595,1.559,0.596,2.15,0.004l0.838-0.838c1.904-1.903,5.001-1.903,6.904-0.001 l0.605,0.586c0.586,0.586,1.542,0.585,2.131-0.005c0.285-0.284,0.442-0.663,0.443-1.066c0.001-0.401-0.154-0.78-0.439-1.063 L16.23,9.926z"/><path xmlns="http://www.w3.org/2000/svg"  d="M20.363,6.927l-0.504-0.504c-0.002-0.002-0.003-0.005-0.007-0.006l-0.398-0.4 c-0.07-0.069-0.146-0.129-0.226-0.181c-5.113-4.489-12.89-4.351-17.84,0.411C1.364,6.269,1.337,6.284,1.313,6.308l-0.91,0.911 c-0.54,0.539-0.537,1.416,0.006,1.959C0.951,9.72,1.828,9.724,2.368,9.183l0.91-0.909c0.006-0.008,0.011-0.015,0.017-0.02 c4.003-3.867,10.353-3.891,14.388-0.079l0.716,0.717c0.539,0.539,1.418,0.537,1.96-0.005C20.9,8.344,20.902,7.466,20.363,6.927z"/>
        </symbol>
        <symbol id="img-icon">
            <path xmlns="http://www.w3.org/2000/svg"  d="M9.84,0.078h7.655V7.73H9.84V0.078z M9.84,9.918h7.655v7.652H9.84V9.918z M0,9.918h7.652v7.652H0 V9.918z M0,0.078h7.652V7.73H0V0.078z M0.003,19.978h7.649v7.654H0.003V19.978z M9.843,19.978h7.652v7.654H9.843V19.978z M20.054,0.078h7.655V7.73h-7.655V0.078z M20.054,9.918h7.655v7.652h-7.655V9.918z M20.054,19.978h7.655v7.654h-7.655V19.978z"/>
        </symbol>
        <symbol id="img-info">
            <path xmlns="http://www.w3.org/2000/svg" d="M14.311,0c-6.904,0-12.5,5.596-12.5,12.5c0,4.723,2.618,8.828,6.48,10.955l-0.147,5.166l5.898-3.635 C14.131,24.988,14.22,25,14.311,25c6.904,0,12.5-5.596,12.5-12.5C26.811,5.596,21.215,0,14.311,0z M15.903,19.784h-3.203V9.474 h3.203V19.784z M14.28,8.211c-1.013,0-1.687-0.718-1.665-1.604c-0.021-0.927,0.652-1.624,1.686-1.624 c1.033,0,1.689,0.697,1.71,1.624C16.01,7.493,15.332,8.211,14.28,8.211z"/>
        </symbol>
        <symbol id="img-medical">
            <path xmlns="http://www.w3.org/2000/svg" d="M15.679,0C7.033,0,0.001,7.033,0.001,15.678c0,8.646,7.032,15.68,15.678,15.68c8.644,0,15.677-7.033,15.677-15.68 C31.356,7.033,24.323,0,15.679,0z M15.679,28.861c-7.27,0-13.183-5.913-13.183-13.184c0-7.268,5.913-13.183,13.183-13.183 c7.269,0,13.182,5.915,13.182,13.183C28.861,22.948,22.948,28.861,15.679,28.861z"/><path xmlns="http://www.w3.org/2000/svg" d="M19.243,12.368V7.33c0-0.868-0.703-1.57-1.57-1.57h-3.396c-0.867,0-1.569,0.703-1.569,1.57v5.038h-5.04 c-0.867,0-1.569,0.703-1.569,1.57v3.468c0,0.867,0.702,1.57,1.569,1.57h5.039v5.037c0,0.867,0.702,1.57,1.569,1.57h3.397 c0.866,0,1.569-0.703,1.569-1.57v-5.037h5.038c0.867,0,1.57-0.703,1.57-1.57v-3.468c0-0.868-0.703-1.57-1.57-1.57H19.243z"/>
        </symbol>
        <symbol id="img-restaurant">
            <path xmlns="http://www.w3.org/2000/svg" d="M42.558,23.378l2.406-10.92c0.18-0.816-0.336-1.624-1.152-1.803c-0.816-0.182-1.623,0.335-1.802,1.151l-2.145,9.733 h-9.647c-0.835,0-1.512,0.677-1.512,1.513c0,0.836,0.677,1.513,1.512,1.513h0.573l-3.258,7.713 c-0.325,0.771,0.034,1.657,0.805,1.982c0.19,0.081,0.392,0.12,0.588,0.12c0.59,0,1.15-0.348,1.394-0.925l2.974-7.038l4.717,0.001 l2.971,7.037c0.327,0.77,1.215,1.127,1.982,0.805c0.77-0.325,1.13-1.212,0.805-1.982l-3.257-7.713h0.573 C41.791,24.564,42.403,24.072,42.558,23.378z"/><path xmlns="http://www.w3.org/2000/svg" d="M14.208,24.564h0.573c0.835,0,1.512-0.677,1.512-1.513c0-0.836-0.677-1.513-1.512-1.513H5.134L2.99,11.806 C2.809,10.99,2,10.472,1.188,10.655c-0.815,0.179-1.332,0.987-1.152,1.803l2.406,10.92c0.153,0.693,0.767,1.187,1.477,1.187h0.573 L1.234,32.28c-0.325,0.77,0.035,1.655,0.805,1.98c0.768,0.324,1.656-0.036,1.982-0.805l2.971-7.037l4.717-0.001l2.972,7.038 c0.244,0.577,0.804,0.925,1.394,0.925c0.196,0,0.396-0.039,0.588-0.12c0.77-0.325,1.13-1.212,0.805-1.98L14.208,24.564z"/><path xmlns="http://www.w3.org/2000/svg" d="M24.862,31.353h-0.852V18.308h8.13c0.835,0,1.513-0.677,1.513-1.512s-0.678-1.513-1.513-1.513H12.856 c-0.835,0-1.513,0.678-1.513,1.513c0,0.834,0.678,1.512,1.513,1.512h8.13v13.045h-0.852c-0.835,0-1.512,0.679-1.512,1.514 s0.677,1.513,1.512,1.513h4.728c0.837,0,1.514-0.678,1.514-1.513S25.699,31.353,24.862,31.353z"/>
        </symbol>
        <symbol id="img-microphone-black-shape">
            <path xmlns="http://www.w3.org/2000/svg" d="M237.541,328.897c25.128,0,46.632-8.946,64.523-26.83c17.888-17.884,26.833-39.399,26.833-64.525V91.365 c0-25.126-8.938-46.632-26.833-64.525C284.173,8.951,262.669,0,237.541,0c-25.125,0-46.632,8.951-64.524,26.84 c-17.893,17.89-26.838,39.399-26.838,64.525v146.177c0,25.125,8.949,46.641,26.838,64.525 C190.906,319.951,212.416,328.897,237.541,328.897z"/><path xmlns="http://www.w3.org/2000/svg" d="M396.563,188.15c-3.606-3.617-7.898-5.426-12.847-5.426c-4.944,0-9.226,1.809-12.847,5.426 c-3.613,3.616-5.421,7.898-5.421,12.845v36.547c0,35.214-12.518,65.333-37.548,90.362c-25.022,25.03-55.145,37.545-90.36,37.545 c-35.214,0-65.334-12.515-90.365-37.545c-25.028-25.022-37.541-55.147-37.541-90.362v-36.547c0-4.947-1.809-9.229-5.424-12.845 c-3.617-3.617-7.895-5.426-12.847-5.426c-4.952,0-9.235,1.809-12.85,5.426c-3.618,3.616-5.426,7.898-5.426,12.845v36.547 c0,42.065,14.04,78.659,42.112,109.776c28.073,31.118,62.762,48.961,104.068,53.526v37.691h-73.089 c-4.949,0-9.231,1.811-12.847,5.428c-3.617,3.614-5.426,7.898-5.426,12.847c0,4.941,1.809,9.233,5.426,12.847 c3.616,3.614,7.898,5.428,12.847,5.428h182.719c4.948,0,9.236-1.813,12.847-5.428c3.621-3.613,5.431-7.905,5.431-12.847 c0-4.948-1.81-9.232-5.431-12.847c-3.61-3.617-7.898-5.428-12.847-5.428h-73.08v-37.691 c41.299-4.565,75.985-22.408,104.061-53.526c28.076-31.117,42.12-67.711,42.12-109.776v-36.547 C401.998,196.049,400.185,191.77,396.563,188.15z"/>
        </symbol>
        <symbol id="img-open-exit-door">
            <path xmlns="http://www.w3.org/2000/svg" d="M199.725,0v36.025H85.211v421.66l114.514,0.094v36.459l209.085-37.555l0.216-418.867L199.725,0z M234.404,230.574 c7.022,0,12.715,7.408,12.715,16.545c0,9.139-5.692,16.545-12.715,16.545s-12.715-7.406-12.715-16.545 C221.688,237.982,227.382,230.574,234.404,230.574z M119.211,423.713V70.025h80.514v353.753L119.211,423.713z"/>
        </symbol>
        <symbol id="img-newspaper">
            <path xmlns="http://www.w3.org/2000/svg" d="m93.67 103.5h80v80h-80z"/><path xmlns="http://www.w3.org/2000/svg" d="m390 0h-390v453.41c0 32.36 26.23 58.59 37.63 58.59h367.9c-9.74-12.78-15.53-28.72-15.53-46zm-326.33 73.5h140v140h-140zm262.66 365h-262.66v-30h262.66zm0-55h-262.66v-30h262.66zm0-55h-262.66v-30h262.66zm0-55h-262.66v-30h262.66zm0-60h-92v-30h92zm0-55h-92v-30h92zm0-55h-92v-30h92z"/><path xmlns="http://www.w3.org/2000/svg" d="m420 257.05v208.95c0 25.41 20.59 46 46 46s46-20.59 46-46v-208.95z"/>
        </symbol>
        <symbol id="img-parking-sign">
            <path xmlns="http://www.w3.org/2000/svg" d="M408,0H51C22.95,0,0,22.95,0,51v357c0,28.05,22.95,51,51,51h357c28.05,0,51-22.95,51-51V51C459,22.95,436.05,0,408,0z M173.4,265.2V357h-45.9V102h109.65c38.25,0,56.1,7.65,71.399,22.95c17.851,15.3,22.95,35.7,22.95,58.65 c0,25.5-7.65,45.9-22.95,58.65s-33.149,20.4-71.399,20.4H173.4V265.2z"/><path xmlns="http://www.w3.org/2000/svg" d="M173.4,229.5v-91.8h58.65c17.851,0,30.601,5.1,38.25,15.3c7.65,10.2,12.75,17.85,12.75,30.6c0,15.3-5.1,22.95-12.75,33.15 c-7.649,7.65-17.85,12.75-35.7,12.75H173.4z"/>
        </symbol>
        <symbol id="img-undo-arrow">
            <path xmlns="http://www.w3.org/2000/svg" d="M421.125,134.191c-11.608-27.03-27.217-50.347-46.819-69.949C354.7,44.639,331.384,29.033,304.353,17.42 C277.325,5.807,248.969,0.005,219.275,0.005c-27.978,0-55.052,5.277-81.227,15.843C111.879,26.412,88.61,41.305,68.243,60.531 l-37.12-36.835c-5.711-5.901-12.275-7.232-19.701-3.999C3.807,22.937,0,28.554,0,36.547v127.907c0,4.948,1.809,9.231,5.426,12.847 c3.619,3.617,7.902,5.426,12.85,5.426h127.907c7.996,0,13.61-3.807,16.846-11.421c3.234-7.423,1.903-13.988-3.999-19.701 l-39.115-39.398c13.328-12.563,28.553-22.222,45.683-28.98c17.131-6.757,35.021-10.138,53.675-10.138 c19.793,0,38.687,3.858,56.674,11.563c17.99,7.71,33.544,18.131,46.679,31.265c13.134,13.131,23.555,28.69,31.265,46.679 c7.703,17.987,11.56,36.875,11.56,56.674c0,19.798-3.856,38.686-11.56,56.672c-7.71,17.987-18.131,33.544-31.265,46.679 c-13.135,13.134-28.695,23.558-46.679,31.265c-17.987,7.707-36.881,11.561-56.674,11.561c-22.651,0-44.064-4.949-64.241-14.843 c-20.174-9.894-37.209-23.883-51.104-41.973c-1.331-1.902-3.521-3.046-6.567-3.429c-2.856,0-5.236,0.855-7.139,2.566 l-39.114,39.402c-1.521,1.53-2.33,3.478-2.426,5.853c-0.094,2.385,0.527,4.524,1.858,6.427 c20.749,25.125,45.871,44.587,75.373,58.382c29.502,13.798,60.625,20.701,93.362,20.701c29.694,0,58.05-5.808,85.078-17.416 c27.031-11.607,50.34-27.22,69.949-46.821c19.605-19.609,35.211-42.921,46.822-69.949s17.411-55.392,17.411-85.08 C438.536,189.569,432.732,161.22,421.125,134.191z"/>
        </symbol>
        <symbol id="img-select">
            <path xmlns="http://www.w3.org/2000/svg" d="M160.003,21.333h-42.667c-5.888,0-10.667,4.779-10.667,10.667s4.779,10.667,10.667,10.667h42.667 c5.909,0,10.667-4.779,10.667-10.667S165.913,21.333,160.003,21.333z"/><path xmlns="http://www.w3.org/2000/svg" d="M288.003,21.333h-42.667c-5.888,0-10.667,4.779-10.667,10.667s4.779,10.667,10.667,10.667h42.667 c5.909,0,10.667-4.779,10.667-10.667S293.913,21.333,288.003,21.333z"/><path xmlns="http://www.w3.org/2000/svg" d="M160.003,352h-42.667c-5.888,0-10.667,4.779-10.667,10.667s4.779,10.667,10.667,10.667h42.667 c5.909,0,10.667-4.779,10.667-10.667S165.913,352,160.003,352z"/><path xmlns="http://www.w3.org/2000/svg" d="M288.003,352h-42.667c-5.888,0-10.667,4.779-10.667,10.667s4.779,10.667,10.667,10.667h42.667 c5.888,0,10.667-4.779,10.667-10.667S293.913,352,288.003,352z"/><path xmlns="http://www.w3.org/2000/svg" d="M32.003,234.667c-5.909,0-10.667,4.779-10.667,10.667V288c0,5.888,4.779,10.667,10.667,10.667S42.67,293.888,42.67,288 v-42.667C42.67,239.445,37.913,234.667,32.003,234.667z"/><path xmlns="http://www.w3.org/2000/svg" d="M32.003,106.667c-5.909,0-10.667,4.779-10.667,10.667V160c0,5.888,4.779,10.667,10.667,10.667 c5.909,0,10.667-4.779,10.667-10.667v-42.667C42.67,111.445,37.913,106.667,32.003,106.667z"/><path xmlns="http://www.w3.org/2000/svg" d="M373.337,234.667c-5.888,0-10.667,4.779-10.667,10.667V288c0,5.888,4.779,10.667,10.667,10.667 c5.888,0,10.667-4.779,10.667-10.667v-42.667C384.003,239.445,379.246,234.667,373.337,234.667z"/><path xmlns="http://www.w3.org/2000/svg" d="M373.337,106.667c-5.909,0-10.667,4.779-10.667,10.667V160c0,5.888,4.779,10.667,10.667,10.667 c5.888,0,10.667-4.779,10.667-10.667v-42.667C384.003,111.445,379.246,106.667,373.337,106.667z"/><path xmlns="http://www.w3.org/2000/svg" d="M394.67,0h-42.667c-5.888,0-10.667,4.779-10.667,10.667v42.667c0,5.888,4.779,10.667,10.667,10.667h42.667 c5.909,0,10.667-4.779,10.667-10.667V10.667C405.337,4.779,400.579,0,394.67,0z"/><path xmlns="http://www.w3.org/2000/svg" d="M53.337,0H10.67C4.782,0,0.003,4.779,0.003,10.667v42.667C0.003,59.221,4.782,64,10.67,64h42.667 c5.909,0,10.667-4.779,10.667-10.667V10.667C64.003,4.779,59.246,0,53.337,0z"/><path xmlns="http://www.w3.org/2000/svg" d="M53.337,330.667H10.67c-5.888,0-10.667,4.779-10.667,10.667V384c0,5.888,4.779,10.667,10.667,10.667h42.667 c5.909,0,10.667-4.779,10.667-10.667v-42.667C64.003,335.445,59.246,330.667,53.337,330.667z"/><path xmlns="http://www.w3.org/2000/svg" d="M506.521,385.344l-192-106.667c-3.968-2.197-8.875-1.664-12.224,1.323c-3.392,2.987-4.544,7.765-2.859,11.968 l85.333,213.333c1.6,4.011,5.461,6.656,9.771,6.699c0.043,0,0.085,0,0.128,0c4.267,0,8.128-2.539,9.813-6.464l30.315-70.741 l70.741-30.315c3.733-1.6,6.229-5.205,6.443-9.259C512.195,391.168,510.062,387.328,506.521,385.344z"/>
        </symbol>
        <symbol id="img-selection">
            <path xmlns="http://www.w3.org/2000/svg" d="M397.061,83.592c5.771,0,10.449-4.678,10.449-10.449V10.449C407.51,4.678,402.832,0,397.061,0h-62.694 c-5.771,0-10.449,4.678-10.449,10.449v20.898H83.592V10.449C83.592,4.678,78.914,0,73.143,0H10.449C4.678,0,0,4.678,0,10.449 v62.694c0,5.771,4.678,10.449,10.449,10.449h20.898v240.327H10.449C4.678,323.918,0,328.597,0,334.367v62.694 c0,5.771,4.678,10.449,10.449,10.449h62.694c5.771,0,10.449-4.678,10.449-10.449v-20.898h240.327v20.898 c0,5.771,4.678,10.449,10.449,10.449h62.694c5.771,0,10.449-4.678,10.449-10.449v-62.694c0-5.771-4.678-10.449-10.449-10.449 h-20.898V83.592H397.061z M355.265,323.918h-20.898c-5.771,0-10.449,4.678-10.449,10.449v20.898H83.592v-20.898 c0-5.771-4.678-10.449-10.449-10.449H52.245V83.592h20.898c5.771,0,10.449-4.678,10.449-10.449V52.245h240.327v20.898 c0,5.771,4.678,10.449,10.449,10.449h20.898V323.918z"/>
        </symbol>
        <symbol id="img-settings-cogwheel-button">
            <path xmlns="http://www.w3.org/2000/svg" d="M440.813,280.5c0-7.65,2.55-15.3,2.55-25.5s0-17.85-2.55-25.5l53.55-43.35c5.1-5.1,5.1-10.2,2.55-15.3l-51-89.25 c-2.55-2.55-7.649-5.1-15.3-2.55l-63.75,25.5c-12.75-10.2-28.05-17.85-43.35-25.5l-10.2-66.3C315.863,5.1,308.212,0,303.113,0 h-102c-5.101,0-12.75,5.1-12.75,10.2l-10.2,68.85c-15.3,5.1-28.05,15.3-43.35,25.5l-61.2-25.5c-7.65-2.55-12.75,0-17.851,5.1 l-51,89.25c-2.55,2.55,0,10.2,5.1,15.3l53.55,40.8c0,7.65-2.55,15.3-2.55,25.5s0,17.85,2.55,25.5l-53.55,43.35 c-5.1,5.101-5.1,10.2-2.55,15.301l51,89.25c2.55,2.55,7.649,5.1,15.3,2.55l63.75-25.5c12.75,10.2,28.05,17.85,43.35,25.5 l10.2,66.3c0,5.1,5.1,10.2,12.75,10.2h102c5.101,0,12.75-5.101,12.75-10.2l10.2-66.3c15.3-7.65,30.6-15.3,43.35-25.5l63.75,25.5 c5.101,2.55,12.75,0,15.301-5.101l51-89.25c2.55-5.1,2.55-12.75-2.551-15.3L440.813,280.5z M252.113,344.25 c-48.45,0-89.25-40.8-89.25-89.25s40.8-89.25,89.25-89.25s89.25,40.8,89.25,89.25S300.563,344.25,252.113,344.25z"/>
        </symbol>
        <symbol id="img-shower">
            <path xmlns="http://www.w3.org/2000/svg" d="m140 0a52.059 52.059 0 0 0 -51.874 48.563 56.156 56.156 0 0 0 -45.785 39.437h107.318a56.155 56.155 0 0 0 -45.494-39.394 36 36 0 0 1 71.835 3.394v140h16v-140a52.059 52.059 0 0 0 -52-52z"/><path xmlns="http://www.w3.org/2000/svg" d="m32 96h128v16h-128z"/><circle xmlns="http://www.w3.org/2000/svg" cx="96" cy="176" r="8"/><circle xmlns="http://www.w3.org/2000/svg" cx="96" cy="152" r="8"/><circle xmlns="http://www.w3.org/2000/svg" cx="128" cy="176" r="8"/><circle xmlns="http://www.w3.org/2000/svg" cx="128" cy="152" r="8"/><circle xmlns="http://www.w3.org/2000/svg" cx="64" cy="176" r="8"/><circle xmlns="http://www.w3.org/2000/svg" cx="64" cy="152" r="8"/><circle xmlns="http://www.w3.org/2000/svg" cx="96" cy="128" r="8"/><circle xmlns="http://www.w3.org/2000/svg" cx="128" cy="128" r="8"/><circle xmlns="http://www.w3.org/2000/svg" cx="64" cy="128" r="8"/>
        </symbol>
        <symbol id="img-text-tool">
            <path xmlns="http://www.w3.org/2000/svg" d="M318.765,9.888c-0.063-5.479-4.521-9.888-10-9.888H10.83c-5.523,0-10,4.478-10,10v55c0,5.522,4.477,10,10,10h22.596 c3.039,0,5.912-1.381,7.809-3.753L58.232,50h71.592v259.635c0,5.521,4.477,10,10,10h40c5.521,0,10-4.479,10-10V50.001h71.514 l17.08,21.263c1.898,2.363,4.769,3.737,7.799,3.737h22.588c2.66,0,5.212-1.061,7.089-2.946c1.877-1.885,2.926-4.441,2.911-7.102 L318.765,9.888z"/>
        </symbol>
        <symbol id="img-way-in">
            <path xmlns="http://www.w3.org/2000/svg" d="M35.413 255.998H86.068V334.299H35.413z"/><path xmlns="http://www.w3.org/2000/svg" d="M35.413 0L35.413 140.609 86.068 140.609 86.068 50.674 248.23 50.674 248.23 334.299 298.886 334.299 298.886 0z"/><path xmlns="http://www.w3.org/2000/svg" d="M116.078 174.386L35.413 174.386 35.413 222.23 116.078 222.23 116.078 253.657 193.033 198.309 116.078 142.961z"/>
        </symbol>
        <symbol id="img-wc">
            <path xmlns="http://www.w3.org/2000/svg" d="M106.667,85.333c23.573,0,42.667-19.093,42.667-42.667C149.333,19.093,130.24,0,106.667,0S64,19.093,64,42.667 C64,66.24,83.093,85.333,106.667,85.333z"/><path xmlns="http://www.w3.org/2000/svg" d="M298.667,85.333c23.573,0,42.667-19.093,42.667-42.667C341.333,19.093,322.24,0,298.667,0 C275.093,0,256,19.093,256,42.667C256,66.24,275.093,85.333,298.667,85.333z"/><path xmlns="http://www.w3.org/2000/svg" d="M138.667,106.667h-64C51.2,106.667,32,125.867,32,149.333v117.333h32v160h85.333v-160h32V149.333 C181.333,125.867,162.133,106.667,138.667,106.667z"/><path xmlns="http://www.w3.org/2000/svg" d="M340.373,135.893c-5.76-17.493-22.08-29.227-40.427-29.227h-2.453c-18.347,0-34.667,11.733-40.427,29.227l-54.4,162.773 h64v128h64v-128h64L340.373,135.893z"/>
        </symbol>
        <symbol id="img-90767">
            <path xmlns="http://www.w3.org/2000/svg" d="M369.717,279.514c0-9.021-7.312-16.334-16.332-16.334h-8.375c-0.114-5.848-2.9-11.033-7.186-14.406 c3.1-0.112,5.581-2.652,5.581-5.782c0-2.395-1.454-4.449-3.524-5.332c13.278-6.59,13.656-24.128,7.45-43.182l-12.175-39.709h2.457 c3.198,0,5.792-2.594,5.792-5.791c0-2.754-1.924-5.055-4.5-5.643c4.438-3.66,7.268-9.201,7.268-15.402 c0-7.259-3.888-13.594-9.683-17.086h16.895c9.021,0,16.332-7.313,16.332-16.334c0-9.02-7.312-16.332-16.332-16.332H18.051 c-9.02,0-16.333,7.313-16.333,16.332c0,9.021,7.313,16.334,16.333,16.334h16.895c-5.795,3.492-9.683,9.827-9.683,17.086 c0,6.201,2.829,11.742,7.268,15.402c-2.576,0.588-4.498,2.889-4.498,5.643c0,3.197,2.592,5.791,5.791,5.791h2.455l-12.174,39.709 c-6.207,19.057-5.828,36.593,7.451,43.183c-2.072,0.883-3.523,2.936-3.523,5.331c0,3.13,2.479,5.67,5.579,5.782 c-4.285,3.373-7.071,8.559-7.186,14.406h-8.375c-9.02,0-16.333,7.313-16.333,16.334L0,293.255h371.435L369.717,279.514z M101.556,237.66c-2.072,0.883-3.523,2.936-3.523,5.331c0,3.13,2.478,5.67,5.579,5.782c-4.285,3.373-7.071,8.559-7.186,14.406H64.01 c-0.114-5.848-2.9-11.033-7.185-14.406c3.1-0.112,5.581-2.652,5.581-5.782c0-2.395-1.453-4.449-3.524-5.332 c13.278-6.59,13.657-24.128,7.45-43.182l-12.175-39.709h2.457c3.198,0,5.792-2.594,5.792-5.791c0-2.754-1.924-5.055-4.5-5.643 c4.438-3.66,7.268-9.201,7.268-15.402c0-7.259-3.888-13.594-9.683-17.086h49.455c-5.795,3.492-9.683,9.827-9.683,17.086 c0,6.201,2.829,11.742,7.267,15.402c-2.576,0.588-4.498,2.889-4.498,5.643c0,3.197,2.592,5.791,5.791,5.791h2.455l-12.174,39.709 C87.897,213.534,88.276,231.07,101.556,237.66z M171.556,237.66c-2.072,0.883-3.523,2.936-3.523,5.331 c0,3.13,2.479,5.67,5.579,5.782c-4.285,3.373-7.071,8.559-7.186,14.406H134.01c-0.114-5.848-2.9-11.033-7.186-14.406 c3.1-0.112,5.581-2.652,5.581-5.782c0-2.395-1.453-4.449-3.524-5.332c13.278-6.59,13.657-24.128,7.45-43.182l-12.175-39.709h2.457 c3.198,0,5.792-2.594,5.792-5.791c0-2.754-1.924-5.055-4.5-5.643c4.439-3.66,7.268-9.201,7.268-15.402 c0-7.259-3.888-13.594-9.683-17.086h49.455c-5.795,3.492-9.683,9.827-9.683,17.086c0,6.201,2.829,11.742,7.268,15.402 c-2.576,0.588-4.498,2.889-4.498,5.643c0,3.197,2.592,5.791,5.791,5.791h2.455l-12.174,39.709 C157.897,213.534,158.276,231.07,171.556,237.66z M241.556,237.66c-2.072,0.883-3.523,2.936-3.523,5.331 c0,3.13,2.479,5.67,5.579,5.782c-4.285,3.373-7.071,8.559-7.186,14.406H204.01c-0.114-5.848-2.9-11.033-7.186-14.406 c3.1-0.112,5.581-2.652,5.581-5.782c0-2.395-1.453-4.449-3.524-5.332c13.278-6.59,13.657-24.128,7.45-43.182l-12.175-39.709h2.457 c3.198,0,5.792-2.594,5.792-5.791c0-2.754-1.924-5.055-4.5-5.643c4.439-3.66,7.268-9.201,7.268-15.402 c0-7.259-3.888-13.594-9.683-17.086h49.455c-5.795,3.492-9.683,9.827-9.683,17.086c0,6.201,2.829,11.742,7.268,15.402 c-2.576,0.588-4.498,2.889-4.498,5.643c0,3.197,2.592,5.791,5.791,5.791h2.455l-12.174,39.709 C227.897,213.534,228.276,231.07,241.556,237.66z M312.556,237.66c-2.072,0.883-3.523,2.936-3.523,5.331 c0,3.13,2.479,5.67,5.579,5.782c-4.285,3.373-7.071,8.559-7.186,14.406H274.01c-0.114-5.848-2.9-11.033-7.186-14.406 c3.1-0.112,5.581-2.652,5.581-5.782c0-2.395-1.454-4.449-3.524-5.332c13.278-6.59,13.656-24.128,7.45-43.182l-12.175-39.709h2.457 c3.198,0,5.792-2.594,5.792-5.791c0-2.754-1.924-5.055-4.5-5.643c4.438-3.66,7.268-9.201,7.268-15.402 c0-7.259-3.888-13.594-9.683-17.086h50.455c-5.795,3.492-9.683,9.827-9.683,17.086c0,6.201,2.829,11.742,7.268,15.402 c-2.576,0.588-4.498,2.889-4.498,5.643c0,3.197,2.592,5.791,5.791,5.791h2.455l-12.175,39.709 C298.897,213.534,299.276,231.07,312.556,237.66z"/>
        </symbol>
        <symbol id="img-armchair">
            <path xmlns="http://www.w3.org/2000/svg" d="m191.97 94.783a24 24 0 0 0 -47.97 1.217v40a8 8 0 0 0 -8-8h-80a8 8 0 0 0 -8 8v-40a24 24 0 1 0 -32 22.629v41.371a8 8 0 0 0 8 8h8v16h16v-16h96v16h16v-16h8a8 8 0 0 0 8-8v-41.371a24.006 24.006 0 0 0 15.97-23.846z"/><path xmlns="http://www.w3.org/2000/svg" d="m56 96v24h80v-24a32.057 32.057 0 0 1 24-30.987v-17.013a40.045 40.045 0 0 0 -40-40h-48a40.045 40.045 0 0 0 -40 40v17.013a32.057 32.057 0 0 1 24 30.987zm56-56a8 8 0 1 1 -8 8 8 8 0 0 1 8-8zm0 24a8 8 0 1 1 -8 8 8 8 0 0 1 8-8zm-32-24a8 8 0 1 1 -8 8 8 8 0 0 1 8-8zm0 24a8 8 0 1 1 -8 8 8 8 0 0 1 8-8z"/>
        </symbol>
        <symbol id="img-camping-tent">
            <path xmlns="http://www.w3.org/2000/svg" d="M358.117,103.434c-2.065-3.309-8.491-6.187-12.393-6.187H235.755c-3.902,0-4.036,2.936-2.104,6.321l194.406,337.594 c1.932,3.386,6.521,3.605,10.241,2.458l106.039-33.517c3.729-1.147,5.077-5.565,3.012-8.874L358.117,103.434z"/><path xmlns="http://www.w3.org/2000/svg" d="M94.536,441.229l93.808-200.239v193.726c0,17.337,18.379,16.343,22.281,16.343h182.816c3.901,0,5.488-6.282,3.557-9.668 L208.12,106.599c-1.932-3.385-5.059-3.385-6.99,0l-47.296,83.05c-1.932,3.385-6.254,7.669-9.667,9.562 c-47.841,26.545-112.359,61.994-140.951,74.54c-4.284,1.884-4.045,7.286-0.708,10.557c6.359,6.216,19.871,20.436,32.35,37.562 c7.258,9.964,13.607,21.076,18.81,32.102c1.664,3.528,1.348,9.17-0.583,12.564l-40.622,74.855 c-1.912,3.386-0.315,9.668,3.586,9.668h68.229C88.177,451.06,92.767,444.71,94.536,441.229z M39.982,286.958 c-1.75-1.55-1.549-3.615,0.526-4.705c20.129-10.538,115.362-60.521,141.841-76.71c1.999-1.224,2.725-0.574,1.664,1.511 l-90.27,177.384c-1.062,2.085-2.276,1.913-2.792-0.373C87.556,369.07,73.776,316.85,39.982,286.958z"/>
        </symbol>
        <symbol id="img-cocktail">
            <path xmlns="http://www.w3.org/2000/svg" d="M380.758,20.021c-51.832,0-94.86,38.398-102.146,88.241H153.05L51.096,0L29.259,20.564l82.587,87.698H28.004 l178.121,199.612v174.131H122.55V512h199.968v-29.995h-86.397V307.874l87.827-98.423c16.766,11.062,36.468,17.047,56.81,17.047 c56.926,0,103.238-46.313,103.238-103.238S437.683,20.021,380.758,20.021z M307.126,183.25H135.119l-40.149-44.993h252.304 L307.126,183.25z"/>
        </symbol>
        <symbol id="img-computer">
            <path xmlns="http://www.w3.org/2000/svg" d="M450.634,380.036c-0.134-1.984-0.256-3.97-0.45-6.027c-1.449-15.034,8.402-19.729,17.865-25.977 c5.322-3.52,7.271-8.135,6.717-14.31c-1.724-19.267-41.729-32.084-26.701-52.196h46.01V0H53.283v281.526h167.306v21.836 c-36.712,1.839-61.89,5.59-61.89,9.913c0,6.149,50.756,11.137,113.371,11.137c62.615,0,113.368-4.987,113.368-11.137 c0-4.202-23.705-7.855-58.669-9.755v-21.994h111.979c-5.761,13.116,4.025,25.745,15.454,37.205 c4.677,4.688,19.229,16.039,6.813,24.246c-5.048,3.338-9.176,6.102-13.061,10.833c-6.418,7.794-6.065,16.971-5.518,26.226H13.871 v167.312h519.605V380.036H450.634z M82.24,257.395V21.723h382.867v235.671H82.24z M514.181,528.04H33.177V399.338h481.004V528.04z M88.676,438.754H62.125v-26.543h26.552V438.754z M130.908,438.754h-26.542v-26.543h26.542V438.754z M174.335,438.754h-26.537 v-26.543h26.537V438.754z M216.561,438.754h-26.536v-26.543h26.536V438.754z M261.207,438.754H234.67v-26.543h26.537V438.754z M303.435,438.754h-26.536v-26.543h26.536V438.754z M346.875,438.754h-26.549v-26.543h26.549V438.754z M389.109,438.754h-26.555 v-26.543h26.555V438.754z M70.573,476.958H44.037v-26.543h26.537V476.958z M112.808,476.958h-26.54v-26.543h26.54V476.958z M156.242,476.958h-26.542v-26.543h26.542V476.958z M198.467,476.958h-26.542v-26.543h26.542V476.958z M243.112,476.958h-26.552 v-26.543h26.552V476.958z M285.344,476.958h-26.545v-26.543h26.545V476.958z M328.771,476.958h-26.536v-26.543h26.536V476.958z M371,476.958h-26.536v-26.543H371V476.958z M466.229,476.958h-26.537v-26.543h26.537V476.958z M463.099,485.805h26.536v26.542 h-26.536V485.805z M417.241,485.805h26.555v26.542h-26.555V485.805z M53.085,490.627h26.543v26.549H53.085V490.627z M95.311,490.627h26.549v26.549H95.311V490.627z M138.75,490.627h26.54v26.549h-26.54V490.627z M180.97,490.627h26.552v26.549 H180.97V490.627z M225.615,490.627h26.537v26.549h-26.537V490.627z M267.841,490.627h26.546v26.549h-26.546V490.627z M311.277,490.627h26.543v26.549h-26.543V490.627z M353.512,490.627h26.537v26.549h-26.537V490.627z M453.935,408.229h-40.469 v14.602h40.469V408.229z M451.998,420.895h-36.596v-10.729h36.596V420.895z M502.587,408.229h-40.456v14.602h40.456V408.229z M500.662,420.895h-36.602v-10.729h36.602V420.895z"/>
        </symbol>
        <symbol id="img-dancing">
            <path xmlns="http://www.w3.org/2000/svg" d="m115.175781 118.503906c2.933594-2.933594 2.933594-7.691406 0-10.625-14.324219-14.324218-37.632812-14.324218-51.960937 0-2.933594 2.933594-2.933594 7.691406 0 10.625s7.691406 2.933594 10.625 0c8.46875-8.46875 22.246094-8.46875 30.710937 0 2.9375 2.933594 7.691407 2.933594 10.625 0zm0 0"/><path xmlns="http://www.w3.org/2000/svg" d="m57.804688 97.457031c17.308593-17.308593 45.476562-17.308593 62.785156 0 2.933594 2.933594 7.691406 2.933594 10.625 0 2.933594-2.933593 2.933594-7.6875 0-10.625-23.171875-23.167969-60.867188-23.167969-84.035156 0-2.933594 2.933594-2.933594 7.691407 0 10.625 2.933593 2.933594 7.691406 2.933594 10.625 0zm0 0"/><path xmlns="http://www.w3.org/2000/svg" d="m101.492188 135.25c0 6.789062-5.503907 12.296875-12.296876 12.296875-6.789062 0-12.296874-5.507813-12.296874-12.296875 0-6.792969 5.507812-12.296875 12.296874-12.296875 6.792969 0 12.296876 5.503906 12.296876 12.296875zm0 0"/><path xmlns="http://www.w3.org/2000/svg" d="m511.984375 151.847656-2.847656-72.863281c-.402344-10.277344-8.859375-18.332031-19.050781-18.332031-.253907 0-.507813.003906-.761719.011718-10.527344.414063-18.730469 9.28125-18.316407 19.8125l1.835938 46.953126-46.738281-14.589844c-6.179688-1.929688-12.617188-2.910156-19.09375-2.910156h-64.621094l-86.785156-26.605469-37.738281-72.546875c-4.863282-9.347656-16.382813-12.984375-25.734376-8.121094-9.347656 4.863281-12.980468 16.382812-8.117187 25.730469l41.421875 79.628906c2.359375 4.53125 6.429688 7.925781 11.3125 9.429687l80.332031 24.734376v129.460937l-46.476562 53.351563c-3.894531 4.472656-5.984375 10.230468-5.859375 16.160156l2.355468 113.886718c.269532 13 10.890626 23.355469 23.835938 23.355469.164062 0 .332031 0 .503906-.003906 13.167969-.273437 23.621094-11.167969 23.347656-24.335937l-2.167968-104.679688 53.921875-61.898438h10.425781l25.070312 83.925782-18.226562 77.691406c-3.007812 12.824219 4.945312 25.65625 17.769531 28.667969 12.820313 3.003906 25.65625-4.941407 28.667969-17.773438l19.691406-83.933593c.960938-4.085938.824219-8.355469-.398437-12.375l-22.972657-76.203126v-132.949218l61.394532 16.488281c5.828125 1.570313 12.09375.289063 16.859375-3.511719 4.738281-3.78125 7.398437-9.59375 7.160156-15.65625zm0 0"/><path xmlns="http://www.w3.org/2000/svg" d="m407.03125 48.226562c0 23.691407-19.207031 42.898438-42.902344 42.898438-23.691406 0-42.898437-19.207031-42.898437-42.898438 0-23.695312 19.207031-42.902343 42.898437-42.902343 23.695313 0 42.902344 19.207031 42.902344 42.902343zm0 0"/><path xmlns="http://www.w3.org/2000/svg" d="m155.082031 168.34375h-131.773437c-12.871094 0-23.308594 10.433594-23.308594 23.308594v222.757812c0 9.996094 6.292969 18.519532 15.132812 21.832032l-5.640624 27.078124c-1.410157 6.769532 2.933593 13.398438 9.707031 14.808594 6.765625 1.410156 13.398437-2.933594 14.808593-9.703125l6.398438-30.707031h97.582031l6.394531 30.707031c1.414063 6.78125 8.058594 11.113281 14.8125 9.703125 6.769532-1.410156 11.113282-8.039062 9.703126-14.808594l-5.640626-27.078124c8.839844-3.3125 15.136719-11.835938 15.136719-21.832032v-222.757812c0-12.875-10.4375-23.308594-23.3125-23.308594zm-65.886719 52.453125c14.773438 0 26.75 11.972656 26.75 26.746094 0 14.773437-11.976562 26.75-26.75 26.75-14.773437 0-26.75-11.976563-26.75-26.75 0-14.773438 11.976563-26.746094 26.75-26.746094zm0 92.246094c22.386719 0 40.535157 18.148437 40.535157 40.535156 0 22.382813-18.148438 40.53125-40.535157 40.53125-22.386718 0-40.53125-18.148437-40.53125-40.53125 0-22.386719 18.148438-40.535156 40.53125-40.535156zm0 0"/>
        </symbol>

</svg>