<svg width="137" height="137" viewBox="0 0 137 137" fill="none" xmlns="http://www.w3.org/2000/svg">
<circle cx="68.5" cy="68.5" r="68.5" fill="#42B3E5"/>
<path d="M56.3703 86.5703C55.6715 86.5703 55.0425 86.1604 54.763 85.4772L50.4302 74.956H45.119L41.3453 67.3725L38.0608 73.5896C37.6415 74.4094 36.733 74.956 35.7547 74.956H20.7297C19.961 74.956 19.332 74.3411 19.332 73.5896C19.332 72.8381 19.961 72.2232 20.7297 72.2232H35.6149L39.8079 64.3664C40.0874 63.8199 40.7164 63.4099 41.3453 63.4099C42.0442 63.4099 42.6032 63.7515 42.9527 64.3664L46.8661 72.1549H50.9194C51.8279 72.1549 52.5966 72.7014 52.8761 73.5212L56.1606 81.5147L64.966 51.659C65.1756 50.9074 65.8744 50.4292 66.6432 50.4292C67.4119 50.4292 68.1107 50.9074 68.3204 51.659L75.4485 72.2232H83.3453C84.0442 72.2232 84.743 72.6331 85.0225 73.3163L86.4202 76.7323L93.4085 58.9692C93.6881 58.286 94.317 57.876 95.0857 57.876C95.0857 57.876 95.0857 57.876 95.1556 57.876C95.9244 57.876 96.5533 58.3543 96.763 59.0375L101.375 72.2915H111.229C111.998 72.2915 112.627 72.9064 112.627 73.6579C112.627 74.4094 111.998 75.0243 111.229 75.0243H99.3486L95.0159 62.5218L88.0275 80.2849C87.748 80.8998 87.1889 81.3097 86.4901 81.3097C85.7913 81.3097 85.1623 80.8998 84.8828 80.2849L82.6465 75.0243H73.4219L66.7131 55.6215L57.9776 85.4772C57.8378 86.0921 57.139 86.5703 56.3703 86.5703Z" fill="white"/>
</svg>
