<svg width="16" height="9" viewBox="0 0 16 9" fill="none" xmlns="http://www.w3.org/2000/svg">
<path d="M10.1843 0.194148C9.99955 0.415528 10.0387 0.737534 10.2727 0.912865L11.9254 2.15211L14.0964 3.99001H0.539157C0.241183 3.99001 9.53674e-07 4.21923 9.53674e-07 4.50167C9.53674e-07 4.78411 0.241183 5.01334 0.539157 5.01334H13.9606L10.194 8.1014C9.969 8.2856 9.94348 8.60897 10.1383 8.82284C10.3331 9.03672 10.6735 9.06026 10.8989 8.87537L15.8131 4.84688C15.9306 4.75068 15.9986 4.61117 16 4.46381C16 4.46245 16 4.46108 16 4.45972C16 4.31372 15.9346 4.17489 15.8199 4.07802L12.6188 1.36927L10.9416 0.110577C10.708 -0.0650942 10.3691 -0.0272315 10.1843 0.194148Z" fill="#989898"/>
</svg>
