<svg width="39" height="38" viewBox="0 0 39 38" fill="none" xmlns="http://www.w3.org/2000/svg">
<path d="M34.0574 28.4082L26.8248 24.7341C25.809 24.2149 24.5494 24.4944 23.8586 25.373L21.2175 28.7277C18.617 27.3699 16.6666 26.0519 14.3912 23.8155C11.9532 21.4194 10.653 19.4625 9.35273 16.9865L12.7252 14.3906C13.6192 13.7117 13.9036 12.4737 13.3754 11.4753L9.63717 4.40659C8.98704 3.16857 7.36174 2.7692 6.18339 3.52799L1.59188 6.56314C0.535431 7.28199 -0.0740443 8.48006 0.00722103 9.71808C0.0884864 10.996 0.251002 12.6334 0.576063 13.7516C1.91694 18.8235 5.12693 24.0552 9.67779 28.4881C14.188 32.921 19.5109 36.0759 24.6713 37.4337C25.809 37.7133 27.4749 37.873 28.8158 37.9928C30.116 38.0727 31.3756 37.4737 32.0664 36.3954L35.0732 31.8027C35.7233 30.6047 35.2764 29.0471 34.0574 28.4082Z" fill="white"/>
<path d="M19.4278 14.9099C20.3217 15.1495 21.2156 15.6287 21.9064 16.3476C22.6378 17.0664 23.1254 17.9051 23.3692 18.7837C23.5723 19.5025 24.2631 19.9818 25.0351 19.9418H25.1976C26.2541 19.9019 27.0261 18.9035 26.7417 17.9051C26.3353 16.4674 25.5633 15.0696 24.385 13.9514C23.2066 12.7933 21.8251 12.0345 20.3623 11.6351C19.3465 11.3556 18.3307 12.1144 18.2901 13.1527V13.3124C18.2088 14.0313 18.6964 14.7102 19.4278 14.9099Z" fill="white"/>
<path d="M19.9182 9.15904C22.153 9.55841 24.3066 10.5967 26.0131 12.2741C27.7603 13.9913 28.8168 16.068 29.1825 18.2645C29.345 19.0632 30.0764 19.6622 30.9297 19.6223H31.0516C32.0674 19.5823 32.7988 18.6638 32.5956 17.7054C32.0674 14.83 30.6859 12.0744 28.4511 9.83794C26.1757 7.60152 23.4126 6.24371 20.4465 5.76448C19.4713 5.60473 18.5367 6.32358 18.4961 7.28204V7.40185C18.4961 8.28044 19.1056 8.9993 19.9182 9.15904Z" fill="white"/>
<path d="M38.5274 17.4658C37.9179 13.1926 35.9675 9.07918 32.6357 5.80442C29.3038 2.52966 25.1186 0.612729 20.7709 0.0136876C19.7957 -0.106121 18.9018 0.572803 18.8612 1.57121V1.73094C18.8205 2.60953 19.4707 3.32837 20.324 3.44818C23.9403 3.92742 27.3941 5.56481 30.1571 8.28047C32.9201 10.9961 34.5454 14.4306 35.0736 17.945C35.1955 18.7837 35.9269 19.4226 36.8208 19.3827H36.9834C37.9179 19.3028 38.6493 18.4242 38.5274 17.4658Z" fill="white"/>
</svg>
