<svg width="36" height="32" viewBox="0 0 36 32" fill="none" xmlns="http://www.w3.org/2000/svg">
<path d="M14.0986 23.4931L12.9499 20.0061H30.3163C30.7978 20.0061 31.2235 19.6946 31.3751 19.2352L31.3751 19.2351L35.1579 7.75336L35.1579 7.7533C35.2708 7.41008 35.214 7.03301 35.0052 6.73929L35.0049 6.73891C34.7953 6.44572 34.4589 6.27049 34.0991 6.27049H8.42452L6.78726 1.30056L6.78723 1.30046C6.63558 0.841044 6.20995 0.529607 5.72844 0.529607H1.94569C1.32748 0.529607 0.8299 1.03591 0.8299 1.65652C0.8299 2.27713 1.32748 2.78343 1.94569 2.78343H4.92373L11.8403 23.7775C10.3783 24.3646 9.34109 25.8062 9.34109 27.4905C9.34109 29.6929 11.1123 31.4878 13.2939 31.4878C15.4756 31.4878 17.2468 29.6929 17.2468 27.4905C17.2468 26.865 17.1016 26.274 16.8469 25.747H25.8177C25.5629 26.274 25.4178 26.865 25.4178 27.4905C25.4178 29.6929 27.189 31.4878 29.3706 31.4878C31.5522 31.4878 33.3235 29.6929 33.3235 27.4905C33.3235 25.2881 31.5522 23.4931 29.3706 23.4931H14.0986ZM29.3706 25.747C30.3177 25.747 31.0919 26.5274 31.0919 27.4905C31.0919 28.4536 30.3177 29.234 29.3706 29.234C28.4235 29.234 27.6493 28.4536 27.6493 27.4905C27.6493 26.5274 28.4235 25.747 29.3706 25.747ZM13.2939 25.747C14.241 25.747 15.0152 26.5274 15.0152 27.4905C15.0152 28.4536 14.241 29.234 13.2939 29.234C12.3468 29.234 11.5727 28.4536 11.5727 27.4905C11.5727 26.5274 12.3468 25.747 13.2939 25.747ZM12.2073 17.7523L9.16718 8.52431H32.5517L29.5116 17.7523H12.2073Z" fill="#42B3E5" stroke="#42B3E5" stroke-width="0.3402"/>
</svg>
