<svg width="46" height="46" viewBox="0 0 46 46" fill="none" xmlns="http://www.w3.org/2000/svg">
<path d="M23 46C10.3117 46 0 35.6883 0 23C0 10.3117 10.3117 0 23 0C35.6883 0 46 10.3117 46 23C46 35.6883 35.6883 46 23 46ZM23 1.91667C11.385 1.91667 1.91667 11.385 1.91667 23C1.91667 34.615 11.385 44.0833 23 44.0833C34.615 44.0833 44.0833 34.615 44.0833 23C44.0833 11.385 34.615 1.91667 23 1.91667Z" fill="#42B3E5"/>
<path d="M22.9996 41.0934C13.0329 41.0934 4.90625 32.9667 4.90625 23.0001C4.90625 13.0334 13.0329 4.90674 22.9996 4.90674C32.9663 4.90674 41.0929 13.0334 41.0929 23.0001C41.0929 32.9667 32.9663 41.0934 22.9996 41.0934ZM22.9996 6.8234C14.0679 6.8234 6.82292 14.0684 6.82292 23.0001C6.82292 31.9317 14.1063 39.1767 22.9996 39.1767C31.8929 39.1767 39.1763 31.9317 39.1763 23.0001C39.1763 14.0684 31.9313 6.8234 22.9996 6.8234Z" fill="#42B3E5"/>
<path d="M23.9596 5.86523H22.043V8.31857H23.9596V5.86523Z" fill="#42B3E5"/>
<path d="M23.9596 37.6821H22.043V40.1355H23.9596V37.6821Z" fill="#42B3E5"/>
<path d="M34.4511 10.1793L32.7148 11.9126L34.069 13.269L35.8052 11.5357L34.4511 10.1793Z" fill="#42B3E5"/>
<path d="M11.9354 32.7291L10.1992 34.4624L11.5533 35.8188L13.2896 34.0855L11.9354 32.7291Z" fill="#42B3E5"/>
<path d="M40.133 22.0415H37.6797V23.9582H40.133V22.0415Z" fill="#42B3E5"/>
<path d="M8.31662 22.0415H5.86328V23.9582H8.31662V22.0415Z" fill="#42B3E5"/>
<path d="M34.0848 32.7126L32.7305 34.0688L34.4664 35.8024L35.8208 34.4461L34.0848 32.7126Z" fill="#42B3E5"/>
<path d="M11.534 10.1975L10.1797 11.5537L11.9157 13.2872L13.27 11.931L11.534 10.1975Z" fill="#42B3E5"/>
<path d="M23.0015 26.4117C21.1232 26.4117 19.5898 24.8784 19.5898 23C19.5898 21.1217 21.1232 19.5884 23.0015 19.5884C24.8798 19.5884 26.4132 21.1217 26.4132 23C26.4132 24.8784 24.8798 26.4117 23.0015 26.4117ZM23.0015 21.505C22.1965 21.505 21.5065 22.1567 21.5065 23C21.5065 23.8434 22.1965 24.495 23.0015 24.495C23.8065 24.495 24.4965 23.8434 24.4965 23C24.4965 22.1567 23.8065 21.505 23.0015 21.505Z" fill="#42B3E5"/>
<path d="M23.9596 13.1865H22.043V20.5465H23.9596V13.1865Z" fill="#42B3E5"/>
<path d="M27.2404 17.4349L24.0664 20.6035L25.4205 21.9599L28.5946 18.7913L27.2404 17.4349Z" fill="#42B3E5"/>
</svg>
