<svg width="27" height="27" viewBox="0 0 27 27" fill="none" xmlns="http://www.w3.org/2000/svg">
<path d="M13.5 0C10.83 0 8.21987 0.791761 5.99981 2.27516C3.77974 3.75856 2.04941 5.86697 1.02763 8.33377C0.00584936 10.8006 -0.261496 13.515 0.259405 16.1337C0.780305 18.7525 2.06606 21.1579 3.95406 23.0459C5.84207 24.9339 8.24754 26.2197 10.8663 26.7406C13.485 27.2615 16.1994 26.9941 18.6662 25.9724C21.133 24.9506 23.2414 23.2203 24.7248 21.0002C26.2082 18.7801 27 16.17 27 13.5C27 9.91958 25.5777 6.4858 23.0459 3.95406C20.5142 1.42232 17.0804 0 13.5 0ZM20.1439 16.8268C20.0638 16.9858 19.9412 17.1195 19.7897 17.2132C19.6382 17.3068 19.4638 17.3566 19.2857 17.3571C19.1344 17.3589 18.9852 17.3225 18.8518 17.2511L13.0661 14.3582C12.9071 14.2781 12.7733 14.1555 12.6797 14.004C12.5861 13.8525 12.5363 13.6781 12.5357 13.5V4.82143C12.5357 4.56568 12.6373 4.32041 12.8182 4.13958C12.999 3.95874 13.2443 3.85714 13.5 3.85714C13.7557 3.85714 14.001 3.95874 14.1819 4.13958C14.3627 4.32041 14.4643 4.56568 14.4643 4.82143V12.9021L19.7196 15.5346C19.9468 15.6502 20.1189 15.8511 20.1984 16.0932C20.2779 16.3353 20.2583 16.599 20.1439 16.8268Z" fill="#808080"/>
</svg>
