<svg width="21" height="16" viewBox="0 0 21 16" fill="none" xmlns="http://www.w3.org/2000/svg">
<path d="M19.3125 0.0712891H1.6875C0.75 0.0712891 0 0.858789 0 1.79629V13.3838C0 14.2838 0.75 15.0713 1.6875 15.0713H19.3125C20.25 15.0713 21 14.2838 21 13.3463V1.79629C21 0.858789 20.25 0.0712891 19.3125 0.0712891ZM1.6875 0.821289H19.3125C19.8375 0.821289 20.25 1.27129 20.25 1.79629V3.82129H0.75V1.79629C0.75 1.27129 1.1625 0.821289 1.6875 0.821289ZM20.25 7.57129H0.75V4.57129H20.25V7.57129ZM19.3125 14.3213H1.6875C1.1625 14.3213 0.75 13.8713 0.75 13.3463V12.8213H1.125C1.35 12.8213 1.5 12.6713 1.5 12.4463C1.5 12.2213 1.35 12.0713 1.125 12.0713H0.75V10.5713H1.125C1.35 10.5713 1.5 10.4213 1.5 10.1963C1.5 9.97129 1.35 9.82129 1.125 9.82129H0.75V8.32129H20.25V13.3463C20.25 13.8713 19.8375 14.3213 19.3125 14.3213Z" fill="black"/>
<path d="M7.53828 9.82129H5.92578C5.70078 9.82129 5.55078 9.97129 5.55078 10.1963C5.55078 10.4213 5.70078 10.5713 5.92578 10.5713H7.53828C7.76328 10.5713 7.91328 10.4213 7.91328 10.1963C7.91328 9.97129 7.76328 9.82129 7.53828 9.82129Z" fill="black"/>
<path d="M4.35078 9.82129H2.73828C2.51328 9.82129 2.36328 9.97129 2.36328 10.1963C2.36328 10.4213 2.51328 10.5713 2.73828 10.5713H4.35078C4.57578 10.5713 4.72578 10.4213 4.72578 10.1963C4.72578 9.97129 4.53828 9.82129 4.35078 9.82129Z" fill="black"/>
<path d="M10.7629 9.82129H9.15039C8.92539 9.82129 8.77539 9.97129 8.77539 10.1963C8.77539 10.4213 8.92539 10.5713 9.15039 10.5713H10.7629C10.9879 10.5713 11.1379 10.4213 11.1379 10.1963C11.1379 9.97129 10.9879 9.82129 10.7629 9.82129Z" fill="black"/>
<path d="M13.125 9.82129H12.375C12.15 9.82129 12 9.97129 12 10.1963C12 10.4213 12.15 10.5713 12.375 10.5713H13.125C13.35 10.5713 13.5 10.4213 13.5 10.1963C13.5 9.97129 13.35 9.82129 13.125 9.82129Z" fill="black"/>
<path d="M4.125 12.0713H2.625C2.4 12.0713 2.25 12.2213 2.25 12.4463C2.25 12.6713 2.4 12.8213 2.625 12.8213H4.125C4.35 12.8213 4.5 12.6713 4.5 12.4463C4.5 12.2213 4.35 12.0713 4.125 12.0713Z" fill="black"/>
<path d="M6.375 12.0713H5.625C5.4 12.0713 5.25 12.2213 5.25 12.4463C5.25 12.6713 5.4 12.8213 5.625 12.8213H6.375C6.6 12.8213 6.75 12.6713 6.75 12.4463C6.75 12.2213 6.6 12.0713 6.375 12.0713Z" fill="black"/>
<path d="M19.125 9.82129H15.375C15.15 9.82129 15 9.97129 15 10.1963V13.1963C15 13.4213 15.15 13.5713 15.375 13.5713H19.125C19.35 13.5713 19.5 13.4213 19.5 13.1963V10.1963C19.5 9.97129 19.35 9.82129 19.125 9.82129ZM18.75 12.8213H15.75V10.5713H18.75V12.8213Z" fill="black"/>
</svg>
