<svg width="94" height="94" viewBox="0 0 94 94" fill="none" xmlns="http://www.w3.org/2000/svg">
<path d="M94 94H90.0833V39.1667H3.91667V94H0V37.2083C0 36.689 0.206324 36.1908 0.573583 35.8236C0.940841 35.4563 1.43895 35.25 1.95833 35.25H92.0417C92.5611 35.25 93.0592 35.4563 93.4264 35.8236C93.7937 36.1908 94 36.689 94 37.2083V94Z" fill="white"/>
<path d="M92.0416 84.2085H1.95825V88.1252H92.0416V84.2085Z" fill="white"/>
<path d="M72.4584 56.7917H68.5417V60.7084H72.4584V56.7917Z" fill="#42B3E5"/>
<path d="M64.6247 45.0415H60.708V48.9582H64.6247V45.0415Z" fill="#42B3E5"/>
<path d="M70.5002 25.4583H66.5835V29.3749H70.5002V25.4583Z" fill="#42B3E5"/>
<path d="M25.4582 45.0415H21.5415V48.9582H25.4582V45.0415Z" fill="#42B3E5"/>
<path d="M31.3337 62.6667H27.417V66.5834H31.3337V62.6667Z" fill="#42B3E5"/>
<path d="M66.584 19.5837C64.3689 19.6279 62.1648 19.2627 60.0823 18.5066C58.4054 17.8795 56.6237 17.5804 54.834 17.6253V13.7087C57.049 13.6644 59.2532 14.0296 61.3357 14.7857C63.0125 15.4128 64.7943 15.7119 66.584 15.667C68.3737 15.7119 70.1554 15.4128 71.8323 14.7857C73.9148 14.0296 76.119 13.6644 78.334 13.7087V17.6253C76.5443 17.5804 74.7626 17.8795 73.0857 18.5066C71.0032 19.2627 68.799 19.6279 66.584 19.5837Z" fill="#42B3E5"/>
<path d="M27.416 25.4582C25.201 25.5024 22.9968 25.1372 20.9144 24.3811C19.2375 23.7541 17.4557 23.4549 15.666 23.4998V19.5832C17.8811 19.539 20.0852 19.9041 22.1677 20.6603C23.8446 21.2873 25.6263 21.5865 27.416 21.5415C29.2057 21.5865 30.9875 21.2873 32.6644 20.6603C34.7468 19.9041 36.951 19.539 39.166 19.5832V23.4998C37.3763 23.4549 35.5946 23.7541 33.9177 24.3811C31.8352 25.1372 29.6311 25.5024 27.416 25.4582Z" fill="#42B3E5"/>
<path d="M27.4168 78.3333C23.7812 78.3333 20.2944 76.8891 17.7236 74.3183C15.1528 71.7474 13.7085 68.2607 13.7085 64.625V1.95833C13.7085 1.43895 13.9148 0.940841 14.2821 0.573583C14.6493 0.206324 15.1474 0 15.6668 0L39.1668 0C39.6862 0 40.1843 0.206324 40.5516 0.573583C40.9188 0.940841 41.1252 1.43895 41.1252 1.95833V64.625C41.1252 68.2607 39.6809 71.7474 37.1101 74.3183C34.5393 76.8891 31.0525 78.3333 27.4168 78.3333ZM17.6252 3.91667V64.625C17.6252 67.2219 18.6568 69.7125 20.4931 71.5488C22.3294 73.385 24.8199 74.4167 27.4168 74.4167C30.0137 74.4167 32.5043 73.385 34.3406 71.5488C36.1769 69.7125 37.2085 67.2219 37.2085 64.625V3.91667H17.6252Z" fill="white"/>
<path d="M66.5833 78.3333C62.9477 78.3333 59.4609 76.8891 56.8901 74.3183C54.3193 71.7474 52.875 68.2607 52.875 64.625V1.95833C52.875 1.43895 53.0813 0.940841 53.4486 0.573583C53.8158 0.206324 54.314 0 54.8333 0L78.3333 0C78.8527 0 79.3508 0.206324 79.7181 0.573583C80.0854 0.940841 80.2917 1.43895 80.2917 1.95833V64.625C80.2917 68.2607 78.8474 71.7474 76.2766 74.3183C73.7058 76.8891 70.219 78.3333 66.5833 78.3333ZM56.7917 3.91667V64.625C56.7917 67.2219 57.8233 69.7125 59.6596 71.5488C61.4959 73.385 63.9864 74.4167 66.5833 74.4167C69.1802 74.4167 71.6708 73.385 73.5071 71.5488C75.3434 69.7125 76.375 67.2219 76.375 64.625V3.91667H56.7917Z" fill="white"/>
<path d="M82.2501 0H50.9167V3.91667H82.2501V0Z" fill="white"/>
<path d="M43.0836 0H11.7502V3.91667H43.0836V0Z" fill="white"/>
</svg>
