<svg width="22" height="12" viewBox="0 0 22 12" fill="none" xmlns="http://www.w3.org/2000/svg">
<path d="M17.6635 6.87854C17.3193 6.45947 17.4178 6.27303 17.6635 5.89844C17.6679 5.89416 20.5088 2.10888 20.8015 0.82517L20.8032 0.824315C20.9487 0.3565 20.8032 0.0126953 20.0999 0.0126953H17.7726C17.1801 0.0126953 16.9069 0.307752 16.7606 0.637873C16.7606 0.637873 15.5756 3.37292 13.8993 5.14583C13.3582 5.65811 13.1081 5.82232 12.8128 5.82232C12.6673 5.82232 12.4411 5.65811 12.4411 5.1903V0.824315C12.4411 0.26328 12.2753 0.0126953 11.7848 0.0126953H8.12528C7.75366 0.0126953 7.53281 0.274398 7.53281 0.51814C7.53281 1.0501 8.37097 1.1724 8.45789 2.66906V5.9164C8.45789 6.62795 8.32396 6.7588 8.02683 6.7588C7.23568 6.7588 5.31545 4.01264 4.1775 0.869642C3.94778 0.259859 3.72339 0.0135505 3.12647 0.0135505H0.798249C0.133928 0.0135505 0 0.308607 0 0.638729C0 1.222 0.791153 4.12211 3.67904 7.95357C5.60371 10.5689 8.3142 11.986 10.7799 11.986C12.262 11.986 12.4429 11.6713 12.4429 11.1299C12.4429 8.63092 12.309 8.39487 13.0514 8.39487C13.3955 8.39487 13.988 8.55908 15.3716 9.82055C16.953 11.3164 17.2129 11.986 18.0981 11.986H20.4254C21.0888 11.986 21.425 11.6713 21.2316 11.0504C20.7891 9.74444 17.7983 7.05814 17.6635 6.87854Z" fill="white"/>
</svg>
