<svg width="24" height="23" viewBox="0 0 24 23" fill="none" xmlns="http://www.w3.org/2000/svg">
<path d="M23.5538 12.8313C23.7507 12.7263 23.829 12.4804 23.7238 12.2788C23.6212 12.0798 23.3811 11.9997 23.1842 12.1047L18.8161 14.4365V13.6325L23.5538 11.1046C23.7507 10.9996 23.829 10.7537 23.7238 10.552C23.6239 10.3531 23.3838 10.2757 23.1842 10.3807L18.8161 12.7098V11.95L23.5538 9.42205C23.6914 9.35298 23.7723 9.20932 23.7696 9.0546C23.7669 8.89989 23.6806 8.75898 23.543 8.68991L16.2044 5.06238C16.0964 5.00713 15.9669 5.00989 15.8563 5.06238L0.223963 12.8866C0.0863639 12.9529 2.72183e-05 13.0965 2.72183e-05 13.254C2.72183e-05 13.4115 0.0890619 13.5496 0.223963 13.6215L8.03745 17.5059C8.0941 17.5336 8.15346 17.5501 8.21282 17.5501C8.27487 17.5501 8.33963 17.5336 8.39628 17.5004L13.4389 14.8122V15.5748L8.20742 18.3652L0.572009 14.5663C0.377751 14.4669 0.137626 14.5553 0.0404976 14.7542C-0.0539333 14.9587 0.0270074 15.2018 0.226661 15.2985L8.04014 19.1885C8.0968 19.2161 8.15616 19.2272 8.21552 19.2272C8.27757 19.2272 8.34232 19.2106 8.39898 19.1829L13.4416 16.4892V17.2932L8.21012 20.0836L0.574707 16.2903C0.377751 16.1881 0.137626 16.2765 0.0404976 16.4809C-0.0539333 16.6799 0.0270074 16.9285 0.226661 17.0252L8.04014 20.9097C8.0968 20.9373 8.15616 20.9539 8.21552 20.9539C8.27757 20.9539 8.34232 20.9373 8.39898 20.9042L13.4416 18.216V18.9647L8.21012 21.7551L0.574707 17.9618C0.377751 17.8679 0.137626 17.948 0.0404976 18.1524C-0.0566314 18.3569 0.0270074 18.6 0.226661 18.6995L8.04014 22.5839C8.0968 22.6171 8.15616 22.6254 8.21552 22.6254C8.27757 22.6254 8.34232 22.6088 8.39898 22.5756L18.6002 17.1413L23.5538 14.4973C23.7507 14.3951 23.829 14.1464 23.7238 13.9475C23.6185 13.7486 23.3811 13.6657 23.1842 13.7734L18.8161 16.108V15.3537L23.5538 12.8313ZM16.0317 5.88293L22.48 9.07394L18.3844 11.2565L11.8605 7.97159L16.0317 5.88293ZM8.21012 16.6799L1.31397 13.2485L6.25945 10.7758L12.9559 14.1492L8.21012 16.6799ZM14.2429 14.3868L16.8033 13.022C16.9976 12.9197 17.0731 12.6738 16.9733 12.4722C16.8708 12.2705 16.6307 12.1931 16.4364 12.2981L13.8382 13.6795L7.16868 10.32L10.954 8.42469L18.0147 11.9831V16.5279L14.2429 18.542V14.3868Z" fill="black"/>
<path d="M7.14139 6.09579C10.3655 6.09579 12.7992 4.91885 12.7992 3.36064C12.7992 1.80243 10.3682 0.625488 7.14139 0.625488C3.91725 0.625488 1.48633 1.80243 1.48633 3.36064C1.48633 4.91885 3.91725 6.09579 7.14139 6.09579ZM7.14139 1.44051C10.004 1.44051 11.9978 2.45168 11.9978 3.35788C11.9978 4.26407 10.004 5.27524 7.14139 5.27524C4.27879 5.27524 2.28494 4.26407 2.28494 3.35788C2.28494 2.45168 4.28148 1.44051 7.14139 1.44051Z" fill="black"/>
<path d="M12.7015 5.73941C12.7933 5.5322 12.7015 5.28907 12.5019 5.1979C12.2995 5.10673 12.0648 5.1979 11.9731 5.40511C11.6979 6.03226 9.77418 6.70914 7.14361 6.70914C4.51573 6.70914 2.58934 6.03226 2.31144 5.40511C2.21971 5.1979 1.98228 5.10673 1.78263 5.20066C1.58028 5.29184 1.49124 5.53496 1.58298 5.73941C2.12528 6.96608 4.84489 7.52692 7.14361 7.52692C9.44233 7.52692 12.1646 6.96608 12.7015 5.73941Z" fill="black"/>
<path d="M7.54292 8.66517C7.54292 8.43862 7.36485 8.25627 7.14361 8.25627C4.51573 8.25627 2.58934 7.57939 2.31144 6.94948C2.21971 6.74503 1.98228 6.6511 1.78263 6.74503C1.58028 6.83897 1.49124 7.07933 1.58298 7.28654C2.12528 8.51321 4.84489 9.07406 7.14361 9.07406C7.36215 9.07406 7.54292 8.89171 7.54292 8.66517Z" fill="black"/>
<path d="M4.65916 10.2315C4.85342 10.2315 5.0234 10.0878 5.05308 9.88335C5.08545 9.65956 4.93706 9.44959 4.71852 9.41644C3.04035 9.1595 2.40092 8.72574 2.29839 8.53235C2.19047 8.33343 1.95035 8.26159 1.75609 8.36934C1.56183 8.47709 1.48898 8.7285 1.59691 8.92466C2.00161 9.68166 3.45315 10.0491 4.59981 10.2259C4.61869 10.2287 4.63758 10.2315 4.65916 10.2315Z" fill="black"/>
<path d="M2.27433 10.0107C2.15022 9.82281 1.902 9.7786 1.71854 9.90569C1.53777 10.0328 1.4919 10.2897 1.61871 10.4748C1.83725 10.8008 2.34718 11.0605 3.17547 11.265C3.20785 11.2733 3.23753 11.276 3.2699 11.276C3.44797 11.276 3.61255 11.1517 3.65842 10.9638C3.71238 10.7456 3.58018 10.5246 3.36433 10.4693C2.44161 10.24 2.28242 10.019 2.27433 10.0107Z" fill="black"/>
<path d="M14.1744 10.3936C14.028 10.0329 13.1664 10.0568 12.25 10.4469C11.3336 10.837 10.7095 11.4457 10.8559 11.8064C11.0024 12.1671 11.864 12.1432 12.7803 11.7531C13.6967 11.363 14.3209 10.7543 14.1744 10.3936Z" fill="black"/>
</svg>
