<svg width="94" height="94" viewBox="0 0 94 94" fill="none" xmlns="http://www.w3.org/2000/svg">
<path d="M61.9448 33.561L62.9362 28.2C62.055 26.2539 61.6144 24.0875 61.7612 21.7742C62.2019 14.9078 67.8565 9.36331 74.7597 9.06956C82.7276 8.73909 89.2636 15.3117 88.8964 23.3164C88.5659 30.1828 83.0214 35.8008 76.1183 36.2047C73.144 36.3883 70.3901 35.5805 68.1136 34.1485L63.4136 35.0297C62.5323 35.1766 61.798 34.4055 61.9448 33.561Z" fill="#42B3E5"/>
<path d="M73.0337 88.1249V83.0577C73.0337 73.9882 67.2689 65.9101 58.6767 62.9726L48.6524 59.5578V53.3523H29.4485V59.5578L19.461 62.9359C10.8688 65.8734 5.104 73.9515 5.104 83.021V88.1249H73.0337Z" fill="#42B3E5"/>
<path d="M48.6894 59.9249L42.5573 69.3984H35.5808L29.4487 59.9249V43.8054H48.6894V59.9249Z" fill="white"/>
<path d="M38.2612 43.8054H29.8894C29.7425 43.8789 29.5956 43.9156 29.4487 43.989V59.9249L35.5808 69.3984H38.2612V43.8054Z" fill="#00A1CF" fill-opacity="0.11"/>
<path d="M24.7485 45.1273C24.5281 44.5031 24.418 43.8789 24.3446 43.218L23.6469 34.6258C21.9211 34.332 20.4891 33.0469 20.0485 31.2844L19.9016 30.6234C19.461 28.7875 20.8563 26.9883 22.7656 26.9883H23.0594L22.5086 16.3766L55.7391 16.1562L55.3719 27.025C57.0977 27.2086 58.3461 28.8609 57.9422 30.6234L57.7953 31.2844C57.4281 32.8266 56.2531 34.0016 54.8211 34.4789L54.1234 43.218C54.05 44.0258 53.8664 44.7969 53.5727 45.5312L52.8016 46.743C51.9938 48.0281 50.6719 48.9094 49.2031 49.1664L38.4445 51.1492L29.6688 49.5336C28.2 49.2766 26.8781 48.3953 26.0703 47.1469L24.7485 45.1273Z" fill="white"/>
<path d="M22.5086 16.3766L23.0594 26.9883H22.7656C20.8563 26.9883 19.461 28.7876 19.9016 30.6235L20.0485 31.2844C20.4891 33.0469 21.9211 34.3321 23.6469 34.6258L24.3446 43.218C24.3813 43.879 24.5281 44.5399 24.7485 45.1274L26.0336 47.1102C26.8414 48.3587 28.1633 49.2399 29.632 49.4969L37.5266 50.9657V33.6344L35.3602 24.7118L36.8656 16.2297L22.5086 16.3766Z" fill="#00A1CF" fill-opacity="0.11"/>
<path d="M51.1862 34.1116C51.4065 34.1484 51.5167 34.332 51.4433 34.4788C50.6354 36.2046 46.9636 44.6866 51.5167 48.6156C51.5534 48.6156 51.5167 48.7257 51.48 48.7257C43.512 51.957 34.3323 51.9202 26.3644 48.7257C26.3276 48.7257 26.3276 48.6523 26.3276 48.6156C30.844 44.7234 27.2823 36.3148 26.4378 34.5156C26.3644 34.332 26.5112 34.1484 26.6948 34.1116L27.0253 34.0749L30.9175 32.0921C35.9479 29.889 41.9698 29.889 47.0003 32.1288L50.7823 34.0015L51.1862 34.1116Z" fill="#42B3E5"/>
<path d="M63.9643 78.8352C63.9643 82.1031 61.3205 84.7836 58.0158 84.7836C54.7479 84.7836 52.0674 82.1398 52.0674 78.8352C52.0674 75.5672 54.7111 72.8867 58.0158 72.8867C61.2838 72.8867 63.9643 75.5305 63.9643 78.8352Z" fill="white"/>
<path d="M59.8516 78.8351C59.8516 79.8633 59.007 80.6711 58.0156 80.6711C56.9875 80.6711 56.1797 79.8265 56.1797 78.8351C56.1797 77.807 57.0242 76.9992 58.0156 76.9992C59.0438 76.9625 59.8516 77.807 59.8516 78.8351Z" fill="#00A1CF"/>
<path d="M55.1886 19.6078H22.6558V13.7695C22.6558 9.80391 25.8503 6.60938 29.8159 6.60938H47.9917C51.9573 6.60938 55.1519 9.80391 55.1519 13.7695V19.6078H55.1886Z" fill="#42B3E5"/>
<path d="M39.1055 51.9203C34.736 51.9203 30.3297 51.1125 26.2539 49.4602C25.9969 49.35 25.8133 49.1297 25.7766 48.8727C25.7399 48.6157 25.8133 48.3219 26.0336 48.1383C30.1461 44.5399 26.6946 36.4617 25.9602 34.8828C25.8133 34.5891 25.85 34.2586 25.9969 33.9649C26.1805 33.6711 26.4743 33.4875 26.8414 33.4508L27.025 33.4141L30.8438 31.468C36.0578 29.1914 42.3 29.1914 47.5141 31.5047L51.2227 33.3407L51.4797 33.3774C51.8102 33.4508 52.1039 33.6344 52.2508 33.9282C52.3977 34.1852 52.3977 34.5157 52.2508 34.8094C51.5164 36.3883 47.9914 44.5032 52.1407 48.1016C52.3243 48.2852 52.4344 48.5422 52.3977 48.836C52.361 49.1297 52.1774 49.35 51.9203 49.4602C47.8446 51.0758 43.475 51.9203 39.1055 51.9203ZM27.7227 48.4321C34.993 51.1125 43.1446 51.1125 50.4149 48.4321C47 44.3563 49.4602 37.4899 50.6719 34.6992L46.8532 32.7899C42.043 30.6602 36.2782 30.6602 31.4313 32.7532L27.5024 34.736C28.5672 37.2328 31.1375 44.3196 27.7227 48.4321Z" fill="#00232D"/>
<path d="M25.7769 47.2569C25.4831 47.2569 25.1894 47.0733 25.0792 46.7429C25.0058 46.5593 24.7855 46.1187 24.5651 45.7147C23.9776 44.5765 23.6105 43.8054 23.5737 43.2546L22.9128 35.2132C21.1136 34.6991 19.755 33.2671 19.2776 31.4312L19.1308 30.7702C18.8737 29.6687 19.1308 28.5304 19.8284 27.6491C20.4159 26.878 21.2972 26.4007 22.2519 26.2905L22.105 22.2882C22.105 21.8843 22.3987 21.5538 22.8026 21.5171C23.2066 21.5171 23.537 21.8108 23.5737 22.2147L23.7941 27.7226H22.7292C22.0316 27.7226 21.4073 28.0163 21.0034 28.5671C20.5995 29.1179 20.4159 29.7788 20.5995 30.4397L20.7464 31.1007C21.1136 32.5694 22.2886 33.6343 23.7573 33.8913L24.3081 34.0015L25.0425 43.1812C25.0792 43.4749 25.5933 44.503 25.887 45.0538C26.1441 45.6046 26.3644 46.0085 26.4745 46.3022C26.6214 46.6694 26.4011 47.1101 26.0339 47.2202C25.9237 47.2569 25.8503 47.2569 25.7769 47.2569Z" fill="#00232D"/>
<path d="M52.5813 47.6242C52.5078 47.6242 52.3977 47.6242 52.3242 47.5875C51.9571 47.4406 51.7735 47 51.9203 46.6328C51.9938 46.4492 52.1406 46.1555 52.2875 45.825C52.618 45.0539 53.2789 43.6586 53.3156 43.1812L54.05 33.9281L54.5274 33.7812C55.7758 33.3773 56.7305 32.3859 57.0242 31.1008L57.1711 30.4398C57.318 29.8156 57.2078 29.1914 56.8406 28.6773C56.4735 28.1633 55.886 27.8328 55.2617 27.7594L54.6008 27.6859V22.0312C54.6008 21.6273 54.9313 21.2969 55.3352 21.2969C55.7391 21.2969 56.0696 21.6273 56.0696 22.0312V26.4375C56.8774 26.6578 57.5383 27.1719 58.0524 27.8328C58.6399 28.6773 58.8602 29.7789 58.6032 30.807L58.4563 31.468C58.0891 33.0469 56.9508 34.3688 55.4453 34.993L54.7844 43.2914C54.7477 43.9523 54.2336 45.1273 53.6461 46.4125C53.4992 46.7063 53.3891 47 53.3156 47.1469C53.1321 47.4406 52.875 47.6242 52.5813 47.6242Z" fill="#00232D"/>
<path d="M42.9608 69.7289H35.1764L28.8241 59.925C28.6038 59.5945 28.7139 59.1172 29.0444 58.8968C29.3749 58.6765 29.8522 58.7867 30.0725 59.1172L35.9842 68.2601H42.153L48.028 59.1172C48.2483 58.7867 48.6889 58.6765 49.0561 58.8968C49.3866 59.1172 49.4967 59.5578 49.2764 59.925L42.9608 69.7289Z" fill="#00232D"/>
<path d="M30.7704 82.0297H24.822C24.4181 82.0297 24.0876 81.6993 24.0876 81.2954C24.0876 80.8915 24.4181 80.561 24.822 80.561H29.3017V71.3813C29.3017 67.2688 25.9603 63.9641 21.8845 63.9641H21.0032C16.8907 63.9641 13.586 67.3055 13.586 71.3813V80.561H17.4415C17.8454 80.561 18.1759 80.8915 18.1759 81.2954C18.1759 81.6993 17.8454 82.0297 17.4415 82.0297H12.0806V71.3813C12.0806 66.461 16.0829 62.4954 20.9665 62.4954H21.8478C26.7681 62.4954 30.7337 66.4977 30.7337 71.3813V82.0297H30.7704Z" fill="#00232D"/>
<path d="M20.4893 62.7524C20.0854 62.7524 19.7549 62.422 19.7549 62.0181C19.7549 56.8407 23.9775 52.6548 29.1182 52.6548C29.5221 52.6548 29.8525 52.9853 29.8525 53.3892C29.8525 53.7931 29.5221 54.1235 29.1182 54.1235C24.7486 54.1235 21.2236 57.6853 21.2236 62.0181C21.2236 62.422 20.8932 62.7524 20.4893 62.7524Z" fill="#00232D"/>
<path d="M57.3179 72.997C56.914 72.997 56.5835 72.6665 56.5835 72.2626V62.0181C56.5835 57.6485 53.0218 54.1235 48.689 54.1235C48.2851 54.1235 47.9546 53.7931 47.9546 53.3892C47.9546 52.9853 48.2851 52.6548 48.689 52.6548C53.8663 52.6548 58.0522 56.8774 58.0522 62.0181V72.2626C58.0522 72.6665 57.7218 72.997 57.3179 72.997Z" fill="#00232D"/>
<path d="M57.9421 85.4814C54.2702 85.4814 51.2593 82.4704 51.2593 78.7985C51.2593 75.1267 54.2702 72.1157 57.9421 72.1157C61.614 72.1157 64.6249 75.1267 64.6249 78.7985C64.6249 82.5071 61.614 85.4814 57.9421 85.4814ZM57.9421 73.6212C55.078 73.6212 52.728 75.9712 52.728 78.8353C52.728 81.6993 55.078 84.0493 57.9421 84.0493C60.8062 84.0493 63.1562 81.6993 63.1562 78.8353C63.1562 75.9345 60.8062 73.6212 57.9421 73.6212Z" fill="#00232D"/>
<path d="M56.0327 20.3422H22.0679V13.7695C22.0679 9.4 25.6296 5.875 29.9624 5.875H48.1382C52.5077 5.875 56.0327 9.43672 56.0327 13.7695V20.3422ZM23.5366 18.8734H54.564V13.7695C54.564 10.2078 51.6632 7.34375 48.1382 7.34375H29.9624C26.4007 7.34375 23.5366 10.2445 23.5366 13.7695V18.8734Z" fill="#00232D"/>
<path d="M25.4462 31.2109C25.2258 31.2109 24.9688 31.1008 24.8219 30.8805L22.1782 26.9883C21.9579 26.6578 22.0313 26.1805 22.3618 25.9602C22.6922 25.7398 23.1696 25.8133 23.3899 26.1438L26.0704 30.0727C26.2907 30.4031 26.2172 30.8805 25.8868 31.1008C25.7399 31.1742 25.593 31.2109 25.4462 31.2109Z" fill="#00232D"/>
<path d="M52.6182 31.2108C52.4713 31.2108 52.3245 31.1741 52.2143 31.1007C51.8838 30.8804 51.8104 30.403 52.0307 30.0726L54.6745 26.1804C54.8948 25.8499 55.3721 25.7765 55.7026 25.9968C56.0331 26.2171 56.1065 26.6944 55.8862 27.0249L53.2424 30.9171C53.0588 31.1007 52.8385 31.2108 52.6182 31.2108Z" fill="#00232D"/>
<path d="M80.5244 20.3421H77.6603V17.478C77.6603 17.3679 77.5869 17.2944 77.4767 17.2944H73.1072C72.9971 17.2944 72.9236 17.3679 72.9236 17.478V20.3421H70.0596C69.9494 20.3421 69.876 20.4155 69.876 20.5257V24.8952C69.876 25.0054 69.9494 25.0788 70.0596 25.0788H72.9236V27.9429C72.9236 28.053 72.9971 28.1265 73.1072 28.1265H77.4767C77.5869 28.1265 77.6603 28.053 77.6603 27.9429V25.0788H80.5244C80.6346 25.0788 80.708 25.0054 80.708 24.8952V20.5624C80.7447 20.4522 80.6713 20.3421 80.5244 20.3421Z" fill="white"/>
</svg>
