<svg width="24" height="13" viewBox="0 0 24 13" fill="none" xmlns="http://www.w3.org/2000/svg">
<path d="M19.1781 7.45457C18.8044 6.99957 18.9113 6.79714 19.1781 6.39043C19.1829 6.38579 22.2674 2.27593 22.5852 0.882143L22.5871 0.881214C22.745 0.373286 22.5871 0 21.8234 0H19.2965C18.6532 0 18.3566 0.320357 18.1977 0.678786C18.1977 0.678786 16.9112 3.64836 15.0911 5.57329C14.5037 6.1295 14.2321 6.30779 13.9114 6.30779C13.7535 6.30779 13.5079 6.1295 13.5079 5.62157V0.881214C13.5079 0.272071 13.3279 0 12.7953 0H8.82201C8.41851 0 8.17873 0.284143 8.17873 0.548786C8.17873 1.12636 9.08876 1.25914 9.18313 2.88414V6.40993C9.18313 7.1825 9.03772 7.32457 8.71512 7.32457C7.85612 7.32457 5.77124 4.34293 4.53571 0.930428C4.2863 0.268357 4.04266 0.000928504 3.39456 0.000928504H0.866697C0.145412 0.000928504 0 0.321286 0 0.679714C0 1.313 0.858992 4.46179 3.99451 8.62179C6.08421 11.4614 9.02713 13 11.7043 13C13.3134 13 13.5099 12.6583 13.5099 12.0705C13.5099 9.35721 13.3645 9.10093 14.1705 9.10093C14.5441 9.10093 15.1874 9.27921 16.6897 10.6489C18.4067 12.2729 18.6889 13 19.6499 13H22.1768C22.8972 13 23.2621 12.6583 23.0522 11.9841C22.5717 10.5662 19.3244 7.64957 19.1781 7.45457Z" fill="#989898"/>
</svg>
