<svg width="18" height="18" viewBox="0 0 18 18" fill="none" xmlns="http://www.w3.org/2000/svg">
<path d="M8.73352 5.66781C6.79922 5.66781 5.22571 7.24131 5.22571 9.17562C5.22571 11.1099 6.79922 12.6834 8.73352 12.6834C10.6678 12.6834 12.2413 11.1099 12.2413 9.17562C12.2413 7.24131 10.6678 5.66781 8.73352 5.66781ZM8.73352 5.66781C6.79922 5.66781 5.22571 7.24131 5.22571 9.17562C5.22571 11.1099 6.79922 12.6834 8.73352 12.6834C10.6678 12.6834 12.2413 11.1099 12.2413 9.17562C12.2413 7.24131 10.6678 5.66781 8.73352 5.66781ZM14.7803 0.589844H2.68673C1.30365 0.589844 0.181152 1.71234 0.181152 3.09542V15.189C0.181152 16.5721 1.30365 17.6946 2.68673 17.6946H14.7803C16.1634 17.6946 17.2859 16.5721 17.2859 15.189V3.09542C17.2859 1.71234 16.1634 0.589844 14.7803 0.589844ZM8.73352 13.6857C6.24802 13.6857 4.22348 11.6611 4.22348 9.17562C4.22348 6.69005 6.24802 4.66558 8.73352 4.66558C11.219 4.66558 13.2436 6.69005 13.2436 9.17562C13.2436 11.6611 11.219 13.6857 8.73352 13.6857ZM14.2458 4.66558C13.6946 4.66558 13.2436 4.21458 13.2436 3.66335C13.2436 3.11212 13.6946 2.66112 14.2458 2.66112C14.797 2.66112 15.248 3.11212 15.248 3.66335C15.248 4.21458 14.797 4.66558 14.2458 4.66558ZM8.73352 5.66781C6.79922 5.66781 5.22571 7.24131 5.22571 9.17562C5.22571 11.1099 6.79922 12.6834 8.73352 12.6834C10.6678 12.6834 12.2413 11.1099 12.2413 9.17562C12.2413 7.24131 10.6678 5.66781 8.73352 5.66781ZM8.73352 5.66781C6.79922 5.66781 5.22571 7.24131 5.22571 9.17562C5.22571 11.1099 6.79922 12.6834 8.73352 12.6834C10.6678 12.6834 12.2413 11.1099 12.2413 9.17562C12.2413 7.24131 10.6678 5.66781 8.73352 5.66781ZM8.73352 5.66781C6.79922 5.66781 5.22571 7.24131 5.22571 9.17562C5.22571 11.1099 6.79922 12.6834 8.73352 12.6834C10.6678 12.6834 12.2413 11.1099 12.2413 9.17562C12.2413 7.24131 10.6678 5.66781 8.73352 5.66781Z" fill="white"/>
</svg>
