<svg width="94" height="94" viewBox="0 0 94 94" fill="none" xmlns="http://www.w3.org/2000/svg">
<path d="M65.6818 60.4929C63.1281 59.2452 60.956 57.335 59.3922 54.9617C57.8284 52.5883 56.9301 49.8388 56.791 47H60.7077C60.848 49.1216 61.5492 51.1679 62.7397 52.9296C63.9303 54.6913 65.5673 56.1052 67.4835 57.0267L65.6818 60.4929Z" fill="white"/>
<path d="M28.3153 60.4929L26.5137 57.0071C28.4271 56.0872 30.0624 54.6764 31.2527 52.9184C32.443 51.1604 33.1459 49.1182 33.2895 47H37.2062C37.0671 49.8388 36.1688 52.5883 34.605 54.9617C33.0411 57.335 30.869 59.2452 28.3153 60.4929Z" fill="white"/>
<path d="M47 52.875C34.4862 52.875 23.5 39.1667 23.5 23.5C23.5 9.43916 32.9392 0 47 0C61.0608 0 70.5 9.43916 70.5 23.5C70.5 39.1667 59.5137 52.875 47 52.875ZM47 3.91667C35.0933 3.91667 27.4167 11.5933 27.4167 23.5C27.4167 37.0517 36.5621 48.9583 47 48.9583C57.4379 48.9583 66.5833 37.0517 66.5833 23.5C66.5833 11.5933 58.9067 3.91667 47 3.91667Z" fill="white"/>
<path d="M92.0416 94.0002H1.95833C1.43895 94.0002 0.940841 93.7939 0.573582 93.4266C0.206324 93.0594 0 92.5612 0 92.0419V77.0802C0.00220216 73.0881 1.35958 69.2151 3.84993 66.095C6.34029 62.975 9.81608 60.7928 13.7083 59.9056L26.9858 56.7919C27.4724 56.6787 27.9838 56.7558 28.4154 57.0073L47 68.209L65.5846 57.066C66.0162 56.8145 66.5276 56.7375 67.0141 56.8506L80.2916 59.9056C84.1839 60.7928 87.6597 62.975 90.15 66.095C92.6404 69.2151 93.9978 73.0881 94 77.0802V92.0419C94 92.5612 93.7936 93.0594 93.4264 93.4266C93.0591 93.7939 92.561 94.0002 92.0416 94.0002ZM3.91667 90.0835H90.0833V77.0802C90.0826 73.9795 89.0306 70.9706 87.0993 68.5449C85.1679 66.1191 82.4713 64.4198 79.4496 63.7244L66.9162 60.8456L47.9987 72.1844C47.701 72.3563 47.3633 72.4467 47.0196 72.4467C46.6758 72.4467 46.3381 72.3563 46.0404 72.1844L27.1229 60.8456L14.5896 63.7244C11.5606 64.4121 8.85503 66.1082 6.91599 68.5346C4.97695 70.9611 3.91943 73.9741 3.91667 77.0802V90.0835Z" fill="white"/>
<path d="M48.9577 70.5H45.041V92.0417H48.9577V70.5Z" fill="white"/>
<path d="M41.1244 25.4584C39.5751 25.4584 38.0606 24.999 36.7724 24.1383C35.4842 23.2775 34.4802 22.0541 33.8873 20.6228C33.2944 19.1914 33.1393 17.6164 33.4415 16.0969C33.7438 14.5774 34.4898 13.1816 35.5854 12.0861C36.6809 10.9906 38.0766 10.2445 39.5961 9.94227C41.1157 9.64002 42.6907 9.79514 44.122 10.388C45.5534 10.9809 46.7768 11.9849 47.6375 13.2731C48.4983 14.5613 48.9577 16.0758 48.9577 17.6251C48.9577 19.7026 48.1324 21.695 46.6634 23.1641C45.1943 24.6331 43.2019 25.4584 41.1244 25.4584ZM41.1244 13.7084C40.3497 13.7084 39.5925 13.9381 38.9484 14.3685C38.3043 14.7989 37.8023 15.4106 37.5058 16.1262C37.2094 16.8419 37.1318 17.6294 37.2829 18.3892C37.4341 19.1489 37.8071 19.8468 38.3549 20.3946C38.9026 20.9423 39.6005 21.3154 40.3602 21.4665C41.12 21.6176 41.9075 21.5401 42.6232 21.2436C43.3389 20.9472 43.9506 20.4452 44.3809 19.8011C44.8113 19.157 45.041 18.3997 45.041 17.6251C45.041 16.5863 44.6284 15.5901 43.8939 14.8556C43.1593 14.1211 42.1631 13.7084 41.1244 13.7084Z" fill="#42B3E5"/>
<path d="M35.2506 15.6667H25.459V19.5834H35.2506V15.6667Z" fill="#42B3E5"/>
<path d="M68.5417 15.6667H47V19.5834H68.5417V15.6667Z" fill="#42B3E5"/>
<path d="M72.4577 68.5417H68.541V84.2084H72.4577V68.5417Z" fill="#42B3E5"/>
<path d="M78.3327 74.4167H62.666V78.3334H78.3327V74.4167Z" fill="#42B3E5"/>
</svg>
