<svg width="18" height="22" viewBox="0 0 18 22" fill="none" xmlns="http://www.w3.org/2000/svg">
<path d="M1.9779 14.3999C2.31124 14.8091 6.27261 19.4753 8.06571 21.5868C8.29936 21.862 8.62496 22 8.95059 22C9.27052 22 9.59111 21.8667 9.82506 21.5995C9.82506 21.5995 15.5674 14.8048 15.8971 14.3999C17.1335 12.8822 17.875 10.9523 17.875 8.85022C17.875 3.9622 13.8739 0 8.9375 0C4.00111 0 0 3.9622 0 8.85022C0 10.9523 0.741536 12.8822 1.9779 14.3999ZM8.9375 4.88905C11.1474 4.88905 12.9383 6.66249 12.9383 8.85022C12.9383 11.0383 11.1474 12.8114 8.9375 12.8114C6.72798 12.8114 4.93669 11.0383 4.93669 8.85022C4.93669 6.66249 6.72798 4.88905 8.9375 4.88905Z" fill="#989898"/>
<path d="M8.9383 11.4365C10.3885 11.4365 11.5641 10.2786 11.5641 8.85033C11.5641 7.42203 10.3885 6.26416 8.9383 6.26416C7.48811 6.26416 6.3125 7.42203 6.3125 8.85033C6.3125 10.2786 7.48811 11.4365 8.9383 11.4365Z" fill="#989898"/>
</svg>
