<svg width="16" height="17" viewBox="0 0 16 17" fill="none" xmlns="http://www.w3.org/2000/svg">
<path fill-rule="evenodd" clip-rule="evenodd" d="M3.77242 0.744587C3.5612 0.426134 3.34998 0.373058 2.98035 0.426134C2.29388 0.532285 1.66023 0.58536 1.29059 1.00996C-1.19123 3.76989 0.0232813 7.59133 3.93083 11.8374C7.89118 16.0834 11.5875 17.5165 14.4918 15.2873C14.967 14.9158 15.0726 14.2788 15.1782 13.5889C15.2838 13.2173 15.231 13.005 14.9142 12.7397C14.8614 12.7397 11.9043 10.7228 11.9043 10.7228C11.1651 10.5105 10.4258 11.5189 10.0562 11.9966C9.63374 12.4743 9.2113 12.5804 8.84167 12.3151C6.8879 10.9882 4.98693 8.91822 3.82522 6.90135C3.5612 6.47674 3.66681 6.05214 4.19485 5.73369C4.6701 5.30908 5.72619 4.67218 5.56778 3.92912C5.56778 3.92912 3.82522 0.797663 3.77242 0.744587Z" fill="#CCCCCC"/>
</svg>
