<svg width="22" height="22" viewBox="0 0 22 22" fill="none" xmlns="http://www.w3.org/2000/svg">
<path d="M13.2917 18.7917C13.1701 18.7917 13.0535 18.84 12.9676 18.9259C12.8816 19.0119 12.8333 19.1284 12.8333 19.25V20.625C12.8333 20.7466 12.785 20.8631 12.6991 20.9491C12.6131 21.035 12.4966 21.0833 12.375 21.0833H1.375C1.25344 21.0833 1.13686 21.035 1.05091 20.9491C0.964955 20.8631 0.916667 20.7466 0.916667 20.625V18.3333H5.04167C5.16322 18.3333 5.2798 18.285 5.36576 18.1991C5.45171 18.1131 5.5 17.9966 5.5 17.875C5.5 17.7534 5.45171 17.6369 5.36576 17.5509C5.2798 17.465 5.16322 17.4167 5.04167 17.4167H0.916667V4.58333H5.04167C5.16322 4.58333 5.2798 4.53504 5.36576 4.44909C5.45171 4.36314 5.5 4.24656 5.5 4.125C5.5 4.00344 5.45171 3.88686 5.36576 3.80091C5.2798 3.71496 5.16322 3.66667 5.04167 3.66667H0.916667V1.375C0.916667 1.25344 0.964955 1.13686 1.05091 1.05091C1.13686 0.964955 1.25344 0.916667 1.375 0.916667H12.375C12.4966 0.916667 12.6131 0.964955 12.6991 1.05091C12.785 1.13686 12.8333 1.25344 12.8333 1.375V2.75C12.8333 2.87156 12.8816 2.98814 12.9676 3.07409C13.0535 3.16004 13.1701 3.20833 13.2917 3.20833C13.4132 3.20833 13.5298 3.16004 13.6158 3.07409C13.7017 2.98814 13.75 2.87156 13.75 2.75V1.375C13.75 1.01033 13.6051 0.660591 13.3473 0.402728C13.0894 0.144866 12.7397 0 12.375 0L1.375 0C1.01033 0 0.660591 0.144866 0.402728 0.402728C0.144866 0.660591 0 1.01033 0 1.375L0 20.625C0 20.9897 0.144866 21.3394 0.402728 21.5973C0.660591 21.8551 1.01033 22 1.375 22H12.375C12.7397 22 13.0894 21.8551 13.3473 21.5973C13.6051 21.3394 13.75 20.9897 13.75 20.625V19.25C13.75 19.1284 13.7017 19.0119 13.6158 18.9259C13.5298 18.84 13.4132 18.7917 13.2917 18.7917Z" fill="black"/>
<path d="M5.04102 19.7083C5.04102 19.8299 5.0893 19.9465 5.17526 20.0324C5.26121 20.1184 5.37779 20.1667 5.49935 20.1667H8.24935C8.37091 20.1667 8.48749 20.1184 8.57344 20.0324C8.65939 19.9465 8.70768 19.8299 8.70768 19.7083C8.70768 19.5868 8.65939 19.4702 8.57344 19.3842C8.48749 19.2983 8.37091 19.25 8.24935 19.25H5.49935C5.37779 19.25 5.26121 19.2983 5.17526 19.3842C5.0893 19.4702 5.04102 19.5868 5.04102 19.7083Z" fill="black"/>
<path d="M5.49935 1.8335C5.37779 1.8335 5.26121 1.88178 5.17526 1.96774C5.0893 2.05369 5.04102 2.17027 5.04102 2.29183C5.04102 2.41339 5.0893 2.52997 5.17526 2.61592C5.26121 2.70187 5.37779 2.75016 5.49935 2.75016H8.24935C8.37091 2.75016 8.48749 2.70187 8.57344 2.61592C8.65939 2.52997 8.70768 2.41339 8.70768 2.29183C8.70768 2.17027 8.65939 2.05369 8.57344 1.96774C8.48749 1.88178 8.37091 1.8335 8.24935 1.8335H5.49935Z" fill="black"/>
<path d="M20.6243 4.12516H7.33268V3.66683C7.33268 3.54527 7.28439 3.42869 7.19844 3.34274C7.11249 3.25678 6.99591 3.2085 6.87435 3.2085C6.75279 3.2085 6.63621 3.25678 6.55026 3.34274C6.4643 3.42869 6.41602 3.54527 6.41602 3.66683V18.3335C6.41602 18.4551 6.4643 18.5716 6.55026 18.6576C6.63621 18.7435 6.75279 18.7918 6.87435 18.7918C6.99591 18.7918 7.11249 18.7435 7.19844 18.6576C7.28439 18.5716 7.33268 18.4551 7.33268 18.3335V17.8752H20.6243C20.989 17.8752 21.3388 17.7303 21.5966 17.4724C21.8545 17.2146 21.9993 16.8648 21.9993 16.5002V5.50016C21.9993 5.13549 21.8545 4.78575 21.5966 4.52789C21.3388 4.27003 20.989 4.12516 20.6243 4.12516ZM7.33268 7.3335H17.0035C17.0933 7.7739 17.3107 8.17818 17.6285 8.496C17.9463 8.81383 18.3506 9.03118 18.791 9.121V12.8793C18.3506 12.9691 17.9463 13.1865 17.6285 13.5043C17.3107 13.8221 17.0933 14.2264 17.0035 14.6668H7.33268V7.3335ZM21.0827 16.5002C21.0827 16.6217 21.0344 16.7383 20.9484 16.8243C20.8625 16.9102 20.7459 16.9585 20.6243 16.9585H7.33268V15.5835H17.416C17.5376 15.5835 17.6542 15.5352 17.7401 15.4493C17.8261 15.3633 17.8743 15.2467 17.8743 15.1252C17.8743 14.7605 18.0192 14.4108 18.2771 14.1529C18.5349 13.895 18.8847 13.7502 19.2493 13.7502C19.3709 13.7502 19.4875 13.7019 19.5734 13.6159C19.6594 13.53 19.7077 13.4134 19.7077 13.2918V8.7085C19.7077 8.58694 19.6594 8.47036 19.5734 8.38441C19.4875 8.29845 19.3709 8.25016 19.2493 8.25016C18.8847 8.25016 18.5349 8.1053 18.2771 7.84743C18.0192 7.58957 17.8743 7.23984 17.8743 6.87516C17.8743 6.75361 17.8261 6.63703 17.7401 6.55107C17.6542 6.46512 17.5376 6.41683 17.416 6.41683H7.33268V5.04183H20.6243C20.7459 5.04183 20.8625 5.09012 20.9484 5.17607C21.0344 5.26203 21.0827 5.37861 21.0827 5.50016V16.5002Z" fill="black"/>
<path d="M11 8.25C10.4561 8.25 9.92442 8.41128 9.47218 8.71346C9.01995 9.01563 8.66747 9.44512 8.45933 9.94762C8.25119 10.4501 8.19673 11.0031 8.30284 11.5365C8.40895 12.0699 8.67086 12.5599 9.05546 12.9445C9.44005 13.3291 9.93006 13.5911 10.4635 13.6972C10.997 13.8033 11.5499 13.7488 12.0524 13.5407C12.5549 13.3325 12.9844 12.9801 13.2865 12.5278C13.5887 12.0756 13.75 11.5439 13.75 11C13.75 10.2707 13.4603 9.57118 12.9445 9.05546C12.4288 8.53973 11.7293 8.25 11 8.25ZM11 12.8333C10.6374 12.8333 10.2829 12.7258 9.98146 12.5244C9.67997 12.3229 9.44498 12.0366 9.30622 11.7016C9.16746 11.3666 9.13116 10.998 9.2019 10.6423C9.27263 10.2867 9.44724 9.96003 9.70364 9.70364C9.96004 9.44724 10.2867 9.27263 10.6423 9.20189C10.998 9.13115 11.3666 9.16746 11.7016 9.30622C12.0366 9.44498 12.3229 9.67996 12.5244 9.98145C12.7258 10.2829 12.8333 10.6374 12.8333 11C12.8333 11.4862 12.6402 11.9525 12.2964 12.2964C11.9525 12.6402 11.4862 12.8333 11 12.8333Z" fill="black"/>
</svg>
