<svg width="55" height="41" viewBox="0 0 55 41" fill="none" xmlns="http://www.w3.org/2000/svg">
<path d="M48.4697 2.31799e-06H5.86667C5.02144 -0.000912093 4.19738 0.268736 3.5114 0.770695C2.82541 1.27265 2.31232 1.98144 2.04492 2.79651C1.77751 3.61157 1.76936 4.49154 2.02163 5.31158C2.27389 6.13162 2.77376 6.8501 3.45033 7.36509M48.4697 2.31799e-06L48.4695 0.150002C48.4695 0.150002 48.4696 0.150002 48.4696 0.150002M48.4697 2.31799e-06V0.150002H48.4696M48.4697 2.31799e-06L28.4889 23.7506M48.4696 0.150002H5.86667H5.8665C5.05338 0.149123 4.26037 0.408515 3.59998 0.891748C2.93954 1.37501 2.44517 2.0577 2.18744 2.84326C1.92971 3.62885 1.92185 4.47708 2.165 5.26747C2.40794 6.05719 2.88899 6.74875 3.53956 7.2445M48.4696 0.150002C50.1604 0.151954 51.7819 0.835565 52.9782 2.05168C54.1747 3.2679 54.8481 4.91741 54.85 6.63844V34.3616C54.8481 36.0826 54.1747 37.7321 52.9782 38.9483C51.7819 40.1645 50.1603 40.8481 48.4695 40.85H6.5305C4.83967 40.8481 3.21813 40.1645 2.02177 38.9483C0.825323 37.7321 0.151898 36.0826 0.15 34.3616L0.15 13.0455C0.15 12.5902 0.327938 12.154 0.643903 11.8329C0.959785 11.5118 1.38769 11.3318 1.83333 11.3318C2.27898 11.3318 2.70688 11.5118 3.02276 11.8329C3.33873 12.154 3.51667 12.5902 3.51667 13.0455V34.3617V34.3618C3.51718 35.1727 3.83425 35.9507 4.39902 36.5248C4.96387 37.0989 5.73034 37.4222 6.53024 37.4227H6.53033H48.4697H48.4698C49.2697 37.4222 50.0361 37.0989 50.601 36.5248C51.1657 35.9507 51.4828 35.1727 51.4833 34.3618V34.3617V6.63828V6.63809C51.4823 5.82809 51.1656 5.05102 50.6018 4.47716C50.0379 3.90323 49.2728 3.57935 48.4737 3.57727H48.4733H5.86667V3.57708L5.85895 3.57747C5.75606 3.58278 5.6573 3.61906 5.5752 3.68136C5.49312 3.74365 5.43147 3.82906 5.39769 3.92649C5.36391 4.02391 5.35941 4.12923 5.38471 4.22919C5.41001 4.32917 5.46408 4.4196 5.54041 4.48881L5.54673 4.49453L5.55365 4.4995L27.3978 20.1932L27.4866 20.257L27.5745 20.192L46.6778 6.06751C46.8566 5.93537 47.0592 5.84043 47.2739 5.788C47.4886 5.73556 47.7113 5.72663 47.9293 5.76169C48.1474 5.79676 48.3566 5.87516 48.5451 5.99251C48.7336 6.10987 48.8976 6.26392 49.0278 6.44597L49.1498 6.35873L49.0278 6.44597C49.158 6.62803 49.2517 6.8345 49.3035 7.05361C49.3553 7.27273 49.3641 7.5001 49.3295 7.72271C49.2948 7.94533 49.2174 8.15871 49.1017 8.35069C48.986 8.54267 48.8344 8.70944 48.6555 8.84159L48.6555 8.84161L28.4889 23.7506M3.53956 7.2445L3.53786 7.24327L3.45033 7.36509M3.53956 7.2445L26.5297 23.7625L26.5298 23.7626C26.8169 23.9691 27.1601 24.0788 27.5112 24.0767C27.8624 24.0745 28.2043 23.9606 28.4889 23.7506M3.53956 7.2445C3.5401 7.24491 3.54064 7.24532 3.54119 7.24574L3.45033 7.36509M3.45033 7.36509L28.4889 23.7506" fill="white" stroke="#3156A3" stroke-width="0.3"/>
</svg>
