<svg width="82" height="82" viewBox="0 0 82 82" fill="none" xmlns="http://www.w3.org/2000/svg">
<path d="M53.1656 54.941L53.1651 54.9413L49.7292 56.9008L49.7292 56.9008C47.111 58.393 43.63 57.646 40.1022 55.2852C36.5673 52.9196 32.9446 48.9102 30.0059 43.7836L30.0059 43.7835C27.5202 39.4456 25.9465 35.0252 25.3823 31.1586C24.819 27.2977 25.2589 23.9625 26.836 21.8224C27.344 21.1331 27.9601 20.5689 28.6739 20.1639C28.674 20.1639 28.6741 20.1639 28.6741 20.1638L32.1096 18.2045L53.1656 54.941ZM53.1656 54.941C53.8106 54.5699 54.3659 54.0819 54.8051 53.4858C56.054 51.7912 56.1804 49.5153 55.1324 47.6702L55.1321 47.6696L53.8195 45.3825C52.3611 42.8383 49.1086 41.951 46.5566 43.3988L46.5562 43.399L43.1242 45.3615L43.1231 45.3621C43.0002 45.4339 42.7398 45.455 42.3337 45.3252C41.9369 45.1983 41.4317 44.9365 40.8486 44.4965L40.8484 44.4963C39.4986 43.4808 38.0776 41.7717 36.9551 39.8121L36.9551 39.812C35.695 37.6152 35.0812 35.6771 34.8896 34.2334C34.7938 33.5108 34.8044 32.9175 34.8891 32.4797C34.9757 32.0329 35.1319 31.7837 35.2922 31.6929L35.2927 31.6926L38.7266 29.7317L38.7269 29.7315C41.2102 28.3074 42.1111 24.9532 40.6928 22.4776L40.6927 22.4774L39.3761 20.1873L39.3759 20.1871M53.1656 54.941L39.3759 20.1871M39.3759 20.1871C38.6639 18.9545 37.5225 18.0666 36.1476 17.6938M39.3759 20.1871L36.1476 17.6938M32.3674 42.435L32.3674 42.435C35.1229 47.244 38.3209 50.7451 41.2405 52.8034C42.7005 53.8327 44.086 54.4978 45.3075 54.7884C46.5296 55.0792 47.5753 54.9928 48.3725 54.5383L51.8083 52.5788C53.0254 51.8841 53.4614 50.2438 52.7685 49.0378L52.8985 48.9631L52.7685 49.0378L51.4538 46.7492L51.4538 46.7491C50.7418 45.5082 49.153 45.0733 47.904 45.782C47.9039 45.782 47.9039 45.782 47.9038 45.7821L44.4737 47.7423C43.0314 48.5671 41.1489 48.1543 39.2024 46.6834M32.3674 42.435L33.932 29.3394C33.5497 29.5572 33.2168 29.8548 32.9449 30.2237C32.0264 31.4702 31.9249 33.3088 32.299 35.2652C32.6743 37.2281 33.5344 39.3441 34.586 41.1791C35.8997 43.4715 37.5351 45.4243 39.2024 46.6834M32.3674 42.435C30.1983 38.6508 28.7597 34.7099 28.1684 31.3053C27.5753 27.8905 27.8408 25.0535 29.0288 23.4415C29.3137 23.055 29.6492 22.7492 30.0289 22.5397L30.0289 22.5397L30.0308 22.5386L33.4647 20.5776L33.4652 20.5773C34.0695 20.2292 34.7673 20.1393 35.4341 20.327L35.4356 20.3274C36.1053 20.5084 36.6627 20.9417 37.0074 21.5456L37.0076 21.5459L38.3247 23.8394L38.3247 23.8394C39.0178 25.0458 38.5866 26.6867 37.3648 27.3802L37.3645 27.3804L33.9321 29.3394L32.3674 42.435ZM39.2024 46.6834L39.2929 46.5638L39.2025 46.6835C39.2025 46.6834 39.2025 46.6834 39.2024 46.6834ZM36.1476 17.6938C34.7781 17.3187 33.3413 17.5007 32.1097 18.2045L36.1476 17.6938Z" fill="white" stroke="white" stroke-width="0.3"/>
<path d="M56.2274 63.0777L56.2272 63.0776C54.5 62.8962 53.193 61.8006 52.1634 60.4163C51.1388 59.0387 50.3727 57.3531 49.7316 55.9424L49.7232 55.924L49.7231 55.9236L49.5386 55.5149C49.5385 55.5147 49.5385 55.5145 49.5384 55.5143L49.5384 55.5143L49.6751 55.4526C49.3983 54.8464 49.661 54.1274 50.2745 53.853L56.2274 63.0777ZM56.2274 63.0777C58.7131 63.3353 61.2627 61.5798 64.0146 57.8456C73.5505 44.9058 70.7815 26.6219 57.8432 17.0841C44.9053 7.5496 26.6195 10.3172 17.0836 23.257C7.54768 36.1967 10.3187 54.482 23.2565 64.0165C30.0107 68.994 38.5894 70.8201 46.7918 69.0256C47.5264 68.8677 47.9891 68.1424 47.8316 67.4094L47.8313 67.4083C47.6678 66.6743 46.9489 66.212 46.212 66.3702L46.2113 66.3703C38.7769 68.0049 30.9932 66.3464 24.8667 61.8315C13.1362 53.1867 10.6229 36.6031 19.2691 24.8706C27.9153 13.1381 44.4995 10.6282 56.23 19.273C67.9606 27.9178 70.4738 44.5014 61.8276 56.2339C60.7646 57.6763 59.7692 58.7519 58.8677 59.4474C57.9632 60.1452 57.1733 60.4452 56.515 60.3777C56.0663 60.3307 55.634 60.106 55.2181 59.7477C54.8021 59.3894 54.4102 58.9041 54.0441 58.3513C53.3113 57.2451 52.6969 55.8927 52.2032 54.8054L52.203 54.805L52.0121 54.3884L56.2274 63.0777ZM52.0119 54.388C51.7002 53.7031 50.8975 53.4054 50.2133 53.716L52.0119 54.388Z" fill="white" stroke="white" stroke-width="0.3"/>
</svg>
