<svg width="23" height="16" viewBox="0 0 23 16" fill="none" xmlns="http://www.w3.org/2000/svg">
<path d="M11.0476 9.312L1.34939 0.24C1.66683 0.0841173 2.01463 0.00211913 2.36735 0H19.7279C20.0806 0.00211913 20.4284 0.0841173 20.7459 0.24L11.0476 9.312ZM21.8585 1.368L11.6 10.968C11.4541 11.1052 11.2624 11.1814 11.0634 11.1814C10.8644 11.1814 10.6727 11.1052 10.5268 10.968L0.268299 1.368C0.103598 1.68723 0.0118983 2.03995 0 2.4V13.6C0 14.2365 0.249416 14.847 0.69338 15.2971C1.13734 15.7471 1.73949 16 2.36735 16H19.7279C20.3558 16 20.9579 15.7471 21.4019 15.2971C21.8458 14.847 22.0952 14.2365 22.0952 13.6V2.4C22.0931 2.04242 22.0123 1.68982 21.8585 1.368Z" fill="#989898"/>
</svg>
