<svg width="88" height="88" viewBox="0 0 88 88" fill="none" xmlns="http://www.w3.org/2000/svg">
<path d="M79.4406 56.925L78.0312 55.6188C76.3812 54.0719 73.8375 54.0375 72.1531 55.5157L63.1125 63.3875H59.125V60.5688C59.125 58.5063 57.475 56.8563 55.4125 56.8563H45.7187L33.8937 54.175C31.9 53.7969 29.8719 54.0032 28.0156 54.8282L23.8906 56.65L22.3437 56.8563L22 73.0125L23.9938 73.0469L29.0812 75.625C30.2844 76.2438 31.6594 76.4844 33 76.3469L61.7031 72.4969C62.5969 72.3594 63.4562 71.9813 64.1437 71.3625L79.4062 57.4063C79.5437 57.2688 79.5437 57.0625 79.4406 56.925Z" fill="white"/>
<path d="M78.375 55.928L64.1438 68.9217C63.4563 69.5405 62.6312 69.953 61.7031 70.0561L33 73.9405C31.6594 74.078 30.2844 73.8374 29.0812 73.2186L23.9938 70.6405L22 70.6061V73.0124L23.9938 73.0467L29.0812 75.6249C30.2844 76.2436 31.6594 76.4842 33 76.3467L61.7031 72.4967C62.5969 72.3592 63.4563 71.9811 64.1438 71.3624L79.4062 57.4061C79.5438 57.2686 79.5438 57.0624 79.4062 56.9249L78.375 55.928Z" fill="#F9EEFF"/>
<path d="M18.5969 52.6968H7.90625V76.7593H18.5969C19.525 76.7593 20.2812 76.003 20.2812 75.0749V54.3812C20.2812 53.453 19.525 52.6968 18.5969 52.6968Z" fill="white"/>
<path d="M18.5969 70.2281H7.90625V76.7593H18.5969C19.525 76.7593 20.2812 76.0031 20.2812 75.075V68.5437C20.2812 69.4718 19.525 70.2281 18.5969 70.2281Z" fill="#0384CE"/>
<path d="M59.3998 63.4906C59.0217 63.4906 58.7123 63.1812 58.7123 62.8031V60.6719C58.7123 58.9875 57.3373 57.6469 55.6873 57.6469H45.9248H45.8561L34.0311 54.9313C32.2092 54.5875 30.3186 54.7938 28.5654 55.55L24.3373 57.4063L22.5498 57.4406C22.1717 57.475 21.8623 57.1656 21.8623 56.7531C21.8623 56.375 22.1373 56.0656 22.5498 56.0656L24.0623 56.0313L28.0498 54.2781C30.0436 53.3844 32.2092 53.1438 34.3404 53.5906L46.0967 56.2375H55.7217C58.1623 56.2375 60.1217 58.2313 60.1217 60.6375V62.7688C60.0873 63.1813 59.7779 63.4906 59.3998 63.4906Z" fill="#00232D"/>
<path d="M32.5529 77.1717C31.3498 77.1717 30.1467 76.8967 29.0467 76.3467L24.0967 73.8374L22.3092 73.6999C21.931 73.6655 21.656 73.3561 21.6904 72.9436C21.7248 72.5655 22.0342 72.2905 22.4467 72.3249L24.5092 72.4967L29.7342 75.1436C30.8342 75.6936 32.0717 75.9342 33.2748 75.7967L61.9779 71.9467C62.7342 71.8436 63.456 71.4999 64.0404 70.9842L79.0279 57.303L77.9279 56.2717C76.5529 54.9655 74.3873 54.9311 72.9779 56.1686L63.7654 64.2124H45.4092C45.031 64.2124 44.7217 63.903 44.7217 63.5249C44.7217 63.1467 45.031 62.8374 45.4092 62.8374H63.2498L72.0842 55.1374C74.0435 53.4186 76.9998 53.4874 78.8904 55.2749L80.2998 56.5811C80.506 56.7874 80.6092 57.028 80.6092 57.303C80.6092 57.578 80.4717 57.853 80.2654 58.0249L65.0029 71.9811C64.2123 72.703 63.2498 73.1499 62.1842 73.2874L33.481 77.1374C33.1029 77.1374 32.8279 77.1717 32.5529 77.1717Z" fill="#00232D"/>
<path d="M18.8718 77.5842H8.18115C7.80303 77.5842 7.49365 77.2749 7.49365 76.8967C7.49365 76.5186 7.80303 76.2092 8.18115 76.2092H18.8718C19.4218 76.2092 19.8687 75.7624 19.8687 75.2124V54.5186C19.8687 53.9686 19.4218 53.5217 18.8718 53.5217H8.18115C7.80303 53.5217 7.49365 53.2124 7.49365 52.8342C7.49365 52.4561 7.80303 52.1467 8.18115 52.1467H18.8718C20.178 52.1467 21.2437 53.2124 21.2437 54.5186V75.2124C21.2437 76.5186 20.178 77.5842 18.8718 77.5842Z" fill="#00232D"/>
<path d="M73.6312 23.4437C73.4593 11.8937 58.0249 5.9468 50.2218 14.4718C42.4187 5.91242 26.9843 11.8937 26.8124 23.4437L26.8468 23.4781C25.8843 30.5937 33.6874 36.2999 37.9156 40.6999C37.9843 41.0437 49.7062 52.4218 49.8781 52.6624C49.9812 52.7656 50.0843 52.7656 50.2218 52.7656C50.3249 52.7999 50.4624 52.7656 50.5656 52.6624C50.7374 52.3531 62.4249 41.0437 62.5281 40.6999C66.7906 36.2999 74.5593 30.5937 73.6312 23.4781V23.4437Z" fill="#0384CE"/>
<path d="M39.1875 39.5655C38.8438 39.5655 38.5344 39.3592 38.3969 39.0155L36.2656 33.7217H33.6531L31.7969 29.9061L30.1813 33.0342C29.975 33.4467 29.5281 33.7217 29.0469 33.7217H21.6562C21.2781 33.7217 20.9688 33.4124 20.9688 33.0342C20.9688 32.6561 21.2781 32.3467 21.6562 32.3467H28.9781L31.0406 28.3936C31.1781 28.1186 31.4875 27.9124 31.7969 27.9124C32.1406 27.9124 32.4156 28.0842 32.5875 28.3936L34.5125 32.3124H36.5062C36.9531 32.3124 37.3312 32.5874 37.4688 32.9999L39.0844 37.0217L43.4156 21.9999C43.5188 21.6217 43.8625 21.3811 44.2406 21.3811C44.6187 21.3811 44.9625 21.6217 45.0656 21.9999L48.5719 32.3467H52.4563C52.8 32.3467 53.1437 32.553 53.2812 32.8967L53.9688 34.6155L57.4062 25.678C57.5438 25.3342 57.8531 25.128 58.2312 25.128C58.2312 25.128 58.2313 25.128 58.2656 25.128C58.6437 25.128 58.9531 25.3686 59.0563 25.7124L61.325 32.3811H66.1719C66.55 32.3811 66.8594 32.6905 66.8594 33.0686C66.8594 33.4467 66.55 33.7561 66.1719 33.7561H60.3281L58.1969 27.4655L54.7594 36.403C54.6219 36.7124 54.3469 36.9186 54.0031 36.9186C53.6594 36.9186 53.35 36.7124 53.2125 36.403L52.1125 33.7561H47.575L44.275 23.9936L39.9781 39.0155C39.9094 39.3249 39.5656 39.5655 39.1875 39.5655ZM38.6719 38.5686C38.6719 38.5686 38.6719 38.603 38.6719 38.5686V38.5686Z" fill="#00232D"/>
</svg>
