<svg width="21" height="25" viewBox="0 0 21 25" fill="none" xmlns="http://www.w3.org/2000/svg">
<path d="M18.6433 3.60526H14.6426C14.4026 1.57895 12.6689 0 10.5619 0H10.3752C8.26814 0 6.5345 1.57895 6.32113 3.60526H2.32041C1.04018 3.60526 0 4.63158 0 5.89474C0 6.21053 0.240043 6.44737 0.5601 6.44737H20.4036C20.7237 6.44737 20.9637 6.21053 20.9637 5.89474C20.9637 4.63158 19.9235 3.60526 18.6433 3.60526ZM10.4019 2.13158H10.5886C11.4954 2.13158 12.2422 2.76316 12.4556 3.60526H8.53485C8.72155 2.76316 9.49502 2.13158 10.4019 2.13158Z" fill="#B6B6B6"/>
<path d="M3.09468 23.0529C3.17469 24.1581 4.10819 25.0002 5.22839 25.0002H15.7369C16.8571 25.0002 17.7906 24.1581 17.8706 23.0529L19.1509 7.86865H1.81445L3.09468 23.0529ZM12.6697 12.2108C12.6964 11.7108 13.1231 11.3423 13.6299 11.3687C14.1366 11.395 14.51 11.816 14.4834 12.316L14.0033 20.6581C13.9766 21.1318 13.5765 21.5002 13.0965 21.5002C13.0698 21.5002 13.0698 21.5002 13.0431 21.5002C12.5364 21.4739 12.163 21.0529 12.1896 20.5529L12.6697 12.2108ZM7.36211 11.3687C7.86886 11.3423 8.29561 11.7108 8.32228 12.2108L8.80236 20.5529C8.82903 21.0529 8.45563 21.4739 7.94888 21.5002C7.92221 21.5002 7.92221 21.5002 7.89553 21.5002C7.41545 21.5002 7.01538 21.1318 6.98871 20.6581L6.50862 12.316C6.48195 11.816 6.85535 11.395 7.36211 11.3687Z" fill="#B6B6B6"/>
</svg>
