<svg width="89" height="89" viewBox="0 0 89 89" fill="none" xmlns="http://www.w3.org/2000/svg">
<path d="M59.9707 67.4453V74.3637C59.9707 75.3371 60.7703 76.1367 61.7438 76.1367H69.3227C70.2961 76.1367 71.0957 75.3371 71.0957 74.3637V67.4453H59.9707Z" fill="white"/>
<path d="M71.0957 67.4453H59.9707V70.9219H71.0957V67.4453Z" fill="#3156A3" fill-opacity="0.21"/>
<path d="M69.3227 76.832H61.7438C60.3879 76.832 59.2754 75.7195 59.2754 74.3637V70.2266C59.2754 69.8441 59.5883 69.5312 59.9707 69.5312C60.3531 69.5312 60.666 69.8441 60.666 70.2266V74.3637C60.666 74.9547 61.1527 75.4414 61.7438 75.4414H69.3227C69.9137 75.4414 70.4004 74.9547 70.4004 74.3637V70.2266C70.4004 69.8441 70.7133 69.5312 71.0957 69.5312C71.4781 69.5312 71.791 69.8441 71.791 70.2266V74.3637C71.791 75.7195 70.6785 76.832 69.3227 76.832Z" fill="#00232D"/>
<path d="M18.252 67.4453V74.3637C18.252 75.3371 19.0516 76.1367 20.025 76.1367H27.6039C28.5773 76.1367 29.377 75.3371 29.377 74.3637V67.4453H18.252Z" fill="white"/>
<path d="M29.377 67.4453H18.252V70.9219H29.377V67.4453Z" fill="#3156A3" fill-opacity="0.21"/>
<path d="M75.059 12.8633C79.0223 12.8633 82.2207 16.0617 82.2207 19.9902V60.666C82.2207 64.5945 79.0223 67.793 75.0938 67.793H13.9062C9.97773 67.793 6.7793 64.5945 6.7793 60.666V19.9902C6.7793 16.0617 9.97773 12.8633 13.941 12.8633H75.059Z" fill="white"/>
<path d="M75.0938 63.9688H13.9062C9.97773 63.9688 6.7793 60.7703 6.7793 56.8418V60.666C6.7793 64.5945 9.97773 67.793 13.9062 67.793H75.0938C79.0223 67.793 82.2207 64.5945 82.2207 60.666V56.8418C82.2207 60.7703 79.0223 63.9688 75.0938 63.9688Z" fill="#3156A3" fill-opacity="0.08"/>
<path d="M58.4409 16.6875C61.2222 16.6875 63.4472 18.8777 63.4472 21.5547V49.3672C63.4472 52.0789 61.2222 54.2344 58.4409 54.2344H15.6444C12.8979 54.2344 10.6382 52.0441 10.6382 49.3672V21.5547C10.6382 18.8777 12.8632 16.6875 15.6444 16.6875H58.4409Z" fill="#3156A3"/>
<path d="M75.0938 68.4883H13.9062C9.59531 68.4883 6.08398 64.977 6.08398 60.666V19.9902C6.08398 15.6793 9.59531 12.168 13.941 12.168H75.059C79.4047 12.168 82.916 15.6793 82.916 19.9902V60.666C82.916 64.977 79.4047 68.4883 75.0938 68.4883ZM13.941 13.5586C10.3949 13.5586 7.47461 16.4441 7.47461 19.9902V60.666C7.47461 64.2121 10.3602 67.0977 13.9062 67.0977H75.0938C78.6398 67.0977 81.5254 64.2121 81.5254 60.666V19.9902C81.5254 16.4441 78.6398 13.5586 75.059 13.5586H13.941Z" fill="#00232D"/>
<path d="M37.0254 61.1875H13.7324C13.35 61.1875 13.0371 60.8746 13.0371 60.4922C13.0371 60.1098 13.35 59.7969 13.7324 59.7969H37.0254C37.4078 59.7969 37.7207 60.1098 37.7207 60.4922C37.7207 60.8746 37.4078 61.1875 37.0254 61.1875Z" fill="#00232D"/>
<path d="M46.0645 61.1875H40.8496C40.4672 61.1875 40.1543 60.8746 40.1543 60.4922C40.1543 60.1098 40.4672 59.7969 40.8496 59.7969H46.0645C46.4469 59.7969 46.7598 60.1098 46.7598 60.4922C46.7598 60.8746 46.4469 61.1875 46.0645 61.1875Z" fill="#00232D"/>
<path d="M27.6039 76.832H20.025C18.6691 76.832 17.5566 75.7195 17.5566 74.3637V70.2266C17.5566 69.8441 17.8695 69.5312 18.252 69.5312C18.6344 69.5312 18.9473 69.8441 18.9473 70.2266V74.3637C18.9473 74.9547 19.434 75.4414 20.025 75.4414H27.6039C28.1949 75.4414 28.6816 74.9547 28.6816 74.3637V70.2266C28.6816 69.8441 28.9945 69.5312 29.377 69.5312C29.7594 69.5312 30.0723 69.8441 30.0723 70.2266V74.3637C30.0723 75.7195 28.9598 76.832 27.6039 76.832Z" fill="#00232D"/>
<path d="M31.1152 46.9336C30.7328 46.9336 30.4199 46.6902 30.2809 46.3078L27.8125 37.9988H24.7879L22.5977 33.5488L19.0168 40.8496C18.8777 41.1277 18.5996 41.3363 18.2867 41.3363C17.9738 41.3363 17.6609 41.1625 17.5219 40.8844L15.9227 38.0336H10.6035V36.643H16.6875L18.2172 39.3199L21.798 32.0539C21.9371 31.741 22.25 31.5324 22.5977 31.5324C22.9453 31.5324 23.2582 31.741 23.3973 32.0539L25.657 36.643H28.0211C28.5078 36.643 28.925 36.9559 29.0641 37.4426L31.0457 44.1176L36.5734 22.25C36.6777 21.8328 37.0254 21.5547 37.4426 21.5547C37.8598 21.5547 38.2074 21.8328 38.3117 22.25L41.8578 36.643H46.3426C46.725 36.643 47.0727 36.8516 47.2117 37.234L48.1156 39.4242L52.1832 28.8902C52.3223 28.5426 52.6699 28.2992 53.0523 28.2992C53.4348 28.2992 53.7824 28.5426 53.8867 28.925L56.5289 36.6777H63.4473V38.0684H55.5555L53.0176 30.5938L48.95 41.1277C48.8109 41.4406 48.498 41.684 48.1504 41.684C47.8027 41.684 47.4898 41.4754 47.3508 41.1625L46.0645 38.0336H40.7801L37.4426 24.475L31.9148 46.3078C31.8453 46.6555 31.4977 46.9336 31.1152 46.9336Z" fill="white"/>
<path d="M72.4863 44.5C70.5742 44.5 69.0098 42.9355 69.0098 41.0234C69.0098 39.1113 70.5742 37.5469 72.4863 37.5469C74.3984 37.5469 75.9629 39.1113 75.9629 41.0234C75.9629 42.9355 74.3984 44.5 72.4863 44.5ZM72.4863 38.9375C71.3391 38.9375 70.4004 39.8762 70.4004 41.0234C70.4004 42.1707 71.3391 43.1094 72.4863 43.1094C73.6336 43.1094 74.5723 42.1707 74.5723 41.0234C74.5723 39.8762 73.6336 38.9375 72.4863 38.9375Z" fill="#00232D"/>
<path d="M72.4863 54.9297C70.5742 54.9297 69.0098 53.3652 69.0098 51.4531C69.0098 49.541 70.5742 47.9766 72.4863 47.9766C74.3984 47.9766 75.9629 49.541 75.9629 51.4531C75.9629 53.3652 74.3984 54.9297 72.4863 54.9297ZM72.4863 49.3672C71.3391 49.3672 70.4004 50.3059 70.4004 51.4531C70.4004 52.6004 71.3391 53.5391 72.4863 53.5391C73.6336 53.5391 74.5723 52.6004 74.5723 51.4531C74.5723 50.3059 73.6336 49.3672 72.4863 49.3672Z" fill="#00232D"/>
<path d="M76.102 27.1172H67.8277C67.1324 27.1172 66.5762 26.5609 66.5762 25.8656V22.1109C66.5762 21.4156 67.1324 20.8594 67.8277 20.8594H76.102C76.7973 20.8594 77.3535 21.4156 77.3535 22.1109V25.8656C77.3535 26.5609 76.7973 27.1172 76.102 27.1172Z" fill="#3156A3"/>
</svg>
