<svg width="15" height="19" viewBox="0 0 15 19" fill="none" xmlns="http://www.w3.org/2000/svg">
<path d="M1.58215 12.4127C1.84878 12.74 5.01753 16.4725 6.45186 18.1616C6.63875 18.3817 6.8992 18.4921 7.15968 18.4921C7.4156 18.4921 7.67203 18.3855 7.85918 18.1718C7.85918 18.1718 12.4526 12.7365 12.7163 12.4127C13.7053 11.1987 14.2984 9.65493 14.2984 7.97344C14.2984 4.06345 11.0979 0.894043 7.14921 0.894043C3.20054 0.894043 0 4.06345 0 7.97344C0 9.65493 0.593163 11.1987 1.58215 12.4127ZM7.14921 4.80485C8.9169 4.80485 10.3495 6.22345 10.3495 7.97344C10.3495 9.72367 8.9169 11.142 7.14921 11.142C5.38179 11.142 3.94892 9.72367 3.94892 7.97344C3.94892 6.22345 5.38179 4.80485 7.14921 4.80485Z" fill="#CCCCCC"/>
<path d="M7.14875 10.0422C8.30877 10.0422 9.24916 9.11601 9.24916 7.97349C9.24916 6.83098 8.30877 5.90479 7.14875 5.90479C5.98872 5.90479 5.04834 6.83098 5.04834 7.97349C5.04834 9.11601 5.98872 10.0422 7.14875 10.0422Z" fill="#CCCCCC"/>
</svg>
