<svg width="19" height="14" viewBox="0 0 19 14" fill="none" xmlns="http://www.w3.org/2000/svg">
<path d="M9.21803 8.04957L1.12592 0.447214C1.39079 0.316584 1.68099 0.24787 1.97529 0.246094H16.4608C16.7551 0.24787 17.0453 0.316584 17.3101 0.447214L9.21803 8.04957ZM18.2385 1.39248L9.67893 9.4373C9.55718 9.55227 9.39725 9.61616 9.2312 9.61616C9.06514 9.61616 8.90522 9.55227 8.78346 9.4373L0.223866 1.39248C0.0864414 1.65999 0.00992779 1.95557 0 2.2573V11.6429C0 12.1763 0.208111 12.6879 0.57855 13.0651C0.948989 13.4422 1.45141 13.6541 1.97529 13.6541H16.4608C16.9846 13.6541 17.4871 13.4422 17.8575 13.0651C18.2279 12.6879 18.4361 12.1763 18.4361 11.6429V2.2573C18.4343 1.95764 18.3668 1.66217 18.2385 1.39248Z" fill="#CCCCCC"/>
</svg>
