<svg width="20" height="20" viewBox="0 0 20 20" fill="none" xmlns="http://www.w3.org/2000/svg">
<path fill-rule="evenodd" clip-rule="evenodd" d="M4.73861 0.422539C4.47329 0.0225232 4.20797 -0.044146 3.74367 0.0225232C2.88139 0.155862 2.08545 0.222531 1.62114 0.755885C-1.49632 4.22268 0.0292442 9.02287 4.93759 14.3564C9.91227 19.6899 14.5553 21.49 18.2034 18.6899C18.8004 18.2232 18.933 17.4232 19.0657 16.5565C19.1983 16.0898 19.132 15.8231 18.734 15.4898C18.6677 15.4898 14.9533 12.9564 14.9533 12.9564C14.0247 12.6897 13.0961 13.9564 12.6318 14.5564C12.1011 15.1564 11.5705 15.2898 11.1062 14.9564C8.65202 13.2897 6.26418 10.6896 4.80494 8.15617C4.47329 7.62281 4.60595 7.08946 5.26924 6.68945C5.8662 6.15609 7.19278 5.35606 6.9938 4.42269C6.9938 4.42269 4.80494 0.489208 4.73861 0.422539Z" fill="#989898"/>
</svg>
