<svg width="94" height="94" viewBox="0 0 94 94" fill="none" xmlns="http://www.w3.org/2000/svg">
<path d="M78.3333 86.1667C76.7841 86.1667 75.2696 85.7073 73.9814 84.8465C72.6932 83.9858 71.6892 82.7624 71.0963 81.331C70.5034 79.8997 70.3483 78.3246 70.6505 76.8051C70.9528 75.2856 71.6988 73.8898 72.7943 72.7943C73.8898 71.6988 75.2856 70.9528 76.8051 70.6505C78.3246 70.3483 79.8997 70.5034 81.331 71.0963C82.7624 71.6892 83.9858 72.6932 84.8465 73.9814C85.7073 75.2696 86.1667 76.7841 86.1667 78.3333C86.1667 80.4109 85.3414 82.4033 83.8723 83.8723C82.4033 85.3414 80.4109 86.1667 78.3333 86.1667ZM78.3333 74.4167C77.5587 74.4167 76.8014 74.6464 76.1574 75.0767C75.5133 75.5071 75.0113 76.1188 74.7148 76.8345C74.4184 77.5502 74.3408 78.3377 74.4919 79.0974C74.6431 79.8572 75.0161 80.5551 75.5638 81.1028C76.1116 81.6506 76.8095 82.0236 77.5692 82.1747C78.329 82.3259 79.1165 82.2483 79.8322 81.9519C80.5479 81.6554 81.1596 81.1534 81.5899 80.5093C82.0203 79.8652 82.25 79.108 82.25 78.3333C82.25 77.2946 81.8374 76.2984 81.1028 75.5638C80.3683 74.8293 79.3721 74.4167 78.3333 74.4167Z" fill="white"/>
<path d="M15.6673 86.1667C14.118 86.1667 12.6035 85.7073 11.3154 84.8465C10.0272 83.9858 9.02315 82.7624 8.43026 81.331C7.83738 79.8997 7.68225 78.3246 7.9845 76.8051C8.28675 75.2856 9.03281 73.8898 10.1283 72.7943C11.2238 71.6988 12.6196 70.9528 14.1391 70.6505C15.6586 70.3483 17.2337 70.5034 18.665 71.0963C20.0964 71.6892 21.3198 72.6932 22.1805 73.9814C23.0412 75.2696 23.5007 76.7841 23.5007 78.3333C23.5007 80.4109 22.6754 82.4033 21.2063 83.8723C19.7373 85.3414 17.7449 86.1667 15.6673 86.1667ZM15.6673 74.4167C14.8927 74.4167 14.1354 74.6464 13.4913 75.0767C12.8472 75.5071 12.3452 76.1188 12.0488 76.8345C11.7523 77.5502 11.6748 78.3377 11.8259 79.0974C11.977 79.8572 12.3501 80.5551 12.8978 81.1028C13.4456 81.6506 14.1435 82.0236 14.9032 82.1747C15.663 82.3259 16.4505 82.2483 17.1662 81.9519C17.8818 81.6554 18.4935 81.1534 18.9239 80.5093C19.3543 79.8652 19.584 79.108 19.584 78.3333C19.584 77.2946 19.1713 76.2984 18.4368 75.5638C17.7023 74.8293 16.7061 74.4167 15.6673 74.4167Z" fill="white"/>
<path d="M72.4577 76.3748H21.541V80.2914H72.4577V76.3748Z" fill="white"/>
<path d="M80.2923 72.4583H76.3757V64.6249H17.6257V72.4583H13.709V62.6666C13.709 62.1472 13.9153 61.6491 14.2826 61.2818C14.6498 60.9146 15.1479 60.7083 15.6673 60.7083H78.334C78.8534 60.7083 79.3515 60.9146 79.7187 61.2818C80.086 61.6491 80.2923 62.1472 80.2923 62.6666V72.4583Z" fill="white"/>
<path d="M86.1673 60.7083H7.83398V64.6249H86.1673V60.7083Z" fill="white"/>
<path d="M80.2932 64.6247H35.2515C34.8188 64.6233 34.3988 64.4787 34.0569 64.2134L8.59861 44.6301C8.39038 44.4732 8.21557 44.2764 8.08442 44.0511C7.95327 43.8258 7.86842 43.5765 7.83486 43.318C7.79607 43.0611 7.81271 42.7989 7.88364 42.5489C7.95457 42.299 8.07816 42.0671 8.24611 41.8688L12.5349 36.5226C13.8041 34.9271 15.6453 33.8893 17.6675 33.6297C19.6896 33.3701 21.7333 33.9091 23.3644 35.1322L41.7728 48.958H74.4182C76.4957 48.958 78.4882 49.7833 79.9572 51.2523C81.4262 52.7214 82.2515 54.7138 82.2515 56.7913V62.6663C82.2515 63.1857 82.0452 63.6838 81.6779 64.0511C81.3107 64.4184 80.8126 64.6247 80.2932 64.6247ZM35.9174 60.708H78.3349V56.7913C78.3349 55.7526 77.9222 54.7564 77.1877 54.0218C76.4532 53.2873 75.457 52.8747 74.4182 52.8747H41.1265C40.7028 52.8747 40.2905 52.7372 39.9515 52.483L21.0144 38.2655C20.205 37.6736 19.1993 37.4148 18.2047 37.5423C17.21 37.6698 16.3022 38.174 15.6682 38.9509L12.574 42.7501L35.9174 60.708Z" fill="white"/>
<path d="M94 90.0833H0V93.9999H94V90.0833Z" fill="white"/>
<path d="M52.8743 39.1667H41.1243C40.605 39.1667 40.1069 38.9603 39.7396 38.5931C39.3723 38.2258 39.166 37.7277 39.166 37.2083V27.4167H29.3743C28.855 27.4167 28.3569 27.2103 27.9896 26.8431C27.6223 26.4758 27.416 25.9777 27.416 25.4583V13.7083C27.416 13.189 27.6223 12.6908 27.9896 12.3236C28.3569 11.9563 28.855 11.75 29.3743 11.75H39.166V1.95833C39.166 1.43895 39.3723 0.940841 39.7396 0.573583C40.1069 0.206324 40.605 0 41.1243 0L52.8743 0C53.3937 0 53.8918 0.206324 54.2591 0.573583C54.6264 0.940841 54.8327 1.43895 54.8327 1.95833V11.75H64.6244C65.1437 11.75 65.6418 11.9563 66.0091 12.3236C66.3764 12.6908 66.5827 13.189 66.5827 13.7083V25.4583C66.5827 25.9777 66.3764 26.4758 66.0091 26.8431C65.6418 27.2103 65.1437 27.4167 64.6244 27.4167H54.8327V37.2083C54.8327 37.7277 54.6264 38.2258 54.2591 38.5931C53.8918 38.9603 53.3937 39.1667 52.8743 39.1667ZM43.0827 35.25H50.916V25.4583C50.916 24.939 51.1223 24.4408 51.4896 24.0736C51.8569 23.7063 52.355 23.5 52.8743 23.5H62.666V15.6667H52.8743C52.355 15.6667 51.8569 15.4603 51.4896 15.0931C51.1223 14.7258 50.916 14.2277 50.916 13.7083V3.91667H43.0827V13.7083C43.0827 14.2277 42.8764 14.7258 42.5091 15.0931C42.1418 15.4603 41.6437 15.6667 41.1243 15.6667H31.3327V23.5H41.1243C41.6437 23.5 42.1418 23.7063 42.5091 24.0736C42.8764 24.4408 43.0827 24.939 43.0827 25.4583V35.25Z" fill="#42B3E5"/>
</svg>
