<svg width="13" height="21" viewBox="0 0 13 21" fill="none" xmlns="http://www.w3.org/2000/svg">
<path d="M6.16729 10.3771C9.03355 10.3771 11.3558 8.05481 11.3558 5.18855C11.3558 2.3223 9.03355 1.41251e-06 6.16729 1.41251e-06C3.30104 -0.00209074 0.978742 2.3202 0.978742 5.18646C0.97665 8.05271 3.30104 10.3771 6.16729 10.3771ZM6.16729 2.63403C7.5774 2.63403 8.71972 3.77634 8.71972 5.18646C8.71972 6.59657 7.5774 7.73889 6.16729 7.73889C4.75718 7.73889 3.61486 6.59657 3.61486 5.18646C3.61486 3.77634 4.75718 2.63403 6.16729 2.63403ZM12.1488 11.0089C11.8559 10.421 11.0441 9.93147 9.96665 10.7809C8.50841 11.9295 6.16729 11.9295 6.16729 11.9295C6.16729 11.9295 3.82617 11.9295 2.36793 10.7809C1.29047 9.93147 0.478717 10.421 0.185815 11.0089C-0.326764 12.0341 0.250671 12.5299 1.55408 13.3668C2.66711 14.0802 4.19439 14.348 5.18188 14.4484L4.35758 15.2707C3.19643 16.4297 2.07712 17.5511 1.30093 18.3294C0.836475 18.7938 0.836475 19.547 1.30093 20.0115L1.44111 20.1517C1.90557 20.6161 2.65874 20.6161 3.1232 20.1517L6.17984 17.0929C7.34099 18.2541 8.46029 19.3734 9.23858 20.1517C9.70303 20.6161 10.4562 20.6161 10.9207 20.1517L11.0608 20.0115C11.5253 19.547 11.5253 18.7938 11.0608 18.3294L8.0042 15.2707L7.1778 14.4443C8.1653 14.3417 9.67793 14.0739 10.7805 13.3668C12.0839 12.532 12.6593 12.0341 12.1488 11.0089Z" fill="white"/>
</svg>
