<svg width="19" height="20" viewBox="0 0 19 20" fill="none" xmlns="http://www.w3.org/2000/svg">
<path fill-rule="evenodd" clip-rule="evenodd" d="M1.36501 1.79034H3.60843V3.32018C3.60843 4.03923 4.19564 4.62523 4.91569 4.62523C5.63622 4.62523 6.22342 4.03923 6.22342 3.32018V1.79034H11.8799V3.32018C11.8799 4.03923 12.4671 4.62523 13.1871 4.62523C13.9076 4.62523 14.4949 4.03923 14.4949 3.32018V1.79034H16.7383C17.4891 1.79034 18.1033 2.40324 18.1033 3.15255V18.6378C18.1033 19.3871 17.4891 20 16.7383 20H1.36501C0.61416 20 0 19.3871 0 18.6378V3.15255C0 2.40324 0.61416 1.79034 1.36501 1.79034ZM17.3515 6.60705V18.6378C17.3515 18.9745 17.0757 19.2497 16.7383 19.2497H1.36501C1.02761 19.2497 0.751817 18.9745 0.751817 18.6378V6.60705H17.3515Z" fill="#8D8D8D"/>
<path fill-rule="evenodd" clip-rule="evenodd" d="M2.3512 8.44733H4.8035V10.8951H2.3512V8.44733Z" fill="#8D8D8D"/>
<path fill-rule="evenodd" clip-rule="evenodd" d="M6.00061 8.44733H8.4534V10.8951H6.00061V8.44733Z" fill="#8D8D8D"/>
<path fill-rule="evenodd" clip-rule="evenodd" d="M9.65002 8.44733H12.1028V10.8951H9.65002V8.44733Z" fill="#8D8D8D"/>
<path fill-rule="evenodd" clip-rule="evenodd" d="M13.2993 8.44733H15.7521V10.8951H13.2993V8.44733Z" fill="#8D8D8D"/>
<path fill-rule="evenodd" clip-rule="evenodd" d="M2.3512 11.7045H4.8035V14.1517H2.3512V11.7045Z" fill="#8D8D8D"/>
<path fill-rule="evenodd" clip-rule="evenodd" d="M2.3512 14.9611H4.8035V17.4089H2.3512V14.9611Z" fill="#8D8D8D"/>
<path fill-rule="evenodd" clip-rule="evenodd" d="M6.00061 11.7045H8.4534V14.1517H6.00061V11.7045Z" fill="#8D8D8D"/>
<path fill-rule="evenodd" clip-rule="evenodd" d="M6.00061 14.9611H8.4534V17.4089H6.00061V14.9611Z" fill="#8D8D8D"/>
<path fill-rule="evenodd" clip-rule="evenodd" d="M9.65002 11.7045H12.1028V14.1517H9.65002V11.7045Z" fill="#8D8D8D"/>
<path fill-rule="evenodd" clip-rule="evenodd" d="M9.65002 14.9611H12.1028V17.4089H9.65002V14.9611Z" fill="#8D8D8D"/>
<path fill-rule="evenodd" clip-rule="evenodd" d="M13.2993 11.7045H15.7521V14.1517H13.2993V11.7045Z" fill="#8D8D8D"/>
<path fill-rule="evenodd" clip-rule="evenodd" d="M13.2993 14.9611H15.7521V17.4089H13.2993V14.9611Z" fill="#8D8D8D"/>
<path fill-rule="evenodd" clip-rule="evenodd" d="M4.91563 -0.00012207C5.26891 -0.00012207 5.55819 0.289515 5.55819 0.642074V3.32037C5.55819 3.67245 5.26891 3.96161 4.91563 3.96161C4.56234 3.96161 4.27307 3.67293 4.27307 3.32037V0.642074C4.27307 0.289034 4.56234 -0.00012207 4.91563 -0.00012207V-0.00012207Z" fill="#8D8D8D"/>
<path fill-rule="evenodd" clip-rule="evenodd" d="M13.1875 -0.00012207C13.5412 -0.00012207 13.8305 0.289515 13.8305 0.642074V3.32037C13.8305 3.67245 13.5412 3.96161 13.188 3.96161C12.8337 3.96161 12.5444 3.67293 12.5444 3.32037V0.642074C12.5444 0.289034 12.8337 -0.00012207 13.1875 -0.00012207V-0.00012207Z" fill="#8D8D8D"/>
</svg>
