<svg width="94" height="94" viewBox="0 0 94 94" fill="none" xmlns="http://www.w3.org/2000/svg">
<path d="M47 23.5C44.6761 23.5 42.4043 22.8109 40.4721 21.5198C38.5398 20.2287 37.0338 18.3936 36.1444 16.2465C35.2551 14.0995 35.0224 11.737 35.4758 9.4577C35.9292 7.17842 37.0482 5.08477 38.6915 3.4415C40.3348 1.79823 42.4284 0.679155 44.7077 0.225778C46.987 -0.227598 49.3495 0.00509111 51.4965 0.894421C53.6436 1.78375 55.4787 3.28978 56.7698 5.22205C58.0609 7.15433 58.75 9.42607 58.75 11.75C58.75 14.8663 57.5121 17.855 55.3085 20.0585C53.105 22.2621 50.1163 23.5 47 23.5ZM47 3.91667C45.4507 3.91667 43.9362 4.37609 42.648 5.23683C41.3599 6.09756 40.3558 7.32096 39.763 8.75232C39.1701 10.1837 39.0149 11.7587 39.3172 13.2782C39.6194 14.7977 40.3655 16.1935 41.461 17.289C42.5565 18.3845 43.9523 19.1306 45.4718 19.4328C46.9913 19.7351 48.5663 19.58 49.9977 18.9871C51.4291 18.3942 52.6525 17.3902 53.5132 16.102C54.3739 14.8138 54.8333 13.2993 54.8333 11.75C54.8333 9.67248 54.008 7.68004 52.539 6.211C51.07 4.74197 49.0775 3.91667 47 3.91667Z" fill="white"/>
<path d="M47 35.2501H23.5C17.2674 35.2501 11.2901 32.7742 6.88299 28.3671C2.47589 23.96 0 17.9827 0 11.7501C0 11.2307 0.206324 10.7326 0.573583 10.3653C0.940841 9.99807 1.43895 9.79175 1.95833 9.79175H17.2333C19.7273 9.81429 22.151 10.6207 24.1613 12.0968C26.1716 13.5729 27.6667 15.644 28.435 18.0167C29.7466 21.9001 32.2437 25.2739 35.5743 27.663C38.9049 30.052 42.9012 31.3358 47 31.3334C47.5194 31.3334 48.0175 31.5397 48.3848 31.907C48.752 32.2743 48.9583 32.7724 48.9583 33.2917C48.9583 33.8111 48.752 34.3092 48.3848 34.6765C48.0175 35.0438 47.5194 35.2501 47 35.2501ZM4.01458 13.7084C4.5017 18.5557 6.77808 23.0475 10.3992 26.3065C14.0204 29.5655 18.7262 31.3578 23.5979 31.3334H34.0946C29.7551 28.4503 26.4967 24.2068 24.8317 19.2701C24.3147 17.6595 23.3011 16.2539 21.9361 15.2547C20.5711 14.2556 18.9249 13.7143 17.2333 13.7084H4.01458Z" fill="white"/>
<path d="M70.5001 35.2501H47.0001C46.4807 35.2501 45.9826 35.0438 45.6153 34.6765C45.2481 34.3092 45.0417 33.8111 45.0417 33.2917C45.0417 32.7724 45.2481 32.2743 45.6153 31.907C45.9826 31.5397 46.4807 31.3334 47.0001 31.3334C51.0989 31.3358 55.0952 30.052 58.4258 27.663C61.7564 25.2739 64.2534 21.9001 65.5651 18.0167C66.3333 15.644 67.8284 13.5729 69.8388 12.0968C71.8491 10.6207 74.2728 9.81429 76.7667 9.79175H92.0417C92.5611 9.79175 93.0592 9.99807 93.4265 10.3653C93.7938 10.7326 94.0001 11.2307 94.0001 11.7501C94.0001 17.9827 91.5242 23.96 87.1171 28.3671C82.71 32.7742 76.7327 35.2501 70.5001 35.2501ZM60.0034 31.3334H70.5001C75.3718 31.3578 80.0776 29.5655 83.6988 26.3065C87.3199 23.0475 89.5963 18.5557 90.0834 13.7084H76.7667C75.092 13.7348 73.4677 14.2856 72.1223 15.2832C70.7768 16.2809 69.778 17.6752 69.2663 19.2701C67.6013 24.2068 64.3429 28.4503 60.0034 31.3334Z" fill="white"/>
<path d="M48.9584 21.5417H45.0417V94.0001H48.9584V21.5417Z" fill="white"/>
<path d="M36.7777 60.5321L15.236 55.6558C13.6984 55.3326 12.3184 54.4909 11.3274 53.2716C10.3363 52.0523 9.79417 50.5296 9.79186 48.9583V48.0771C9.7867 47.166 9.96169 46.2628 10.3068 45.4196C10.6519 44.5764 11.1603 43.8096 11.8027 43.1636C12.4451 42.5175 13.209 42.0048 14.0502 41.6549C14.8915 41.3051 15.7937 41.125 16.7048 41.125H37.2085V45.0417H16.7048C15.9117 45.0468 15.1526 45.3641 14.5918 45.9249C14.031 46.4857 13.7137 47.2448 13.7085 48.0379V48.9583C13.7057 49.6376 13.9354 50.2974 14.3593 50.8282C14.7832 51.359 15.3759 51.7288 16.0389 51.8762L37.5806 56.7525L36.7777 60.5321Z" fill="#42B3E5"/>
<path d="M57.2617 80.2918L56.3217 76.3751L68.2284 73.3984C68.907 73.262 69.5174 72.8949 69.956 72.3594C70.3945 71.8239 70.6342 71.1531 70.6342 70.4609C70.6342 69.7687 70.3945 69.0979 69.956 68.5624C69.5174 68.0269 68.907 67.6598 68.2284 67.5234L36.895 60.4342L37.6392 56.7917L68.9725 63.8809C70.4916 64.2216 71.8512 65.065 72.8312 66.2746C73.8112 67.4842 74.3542 68.9892 74.3724 70.5458C74.3905 72.1025 73.8827 73.6197 72.9311 74.8518C71.9795 76.0839 70.6399 76.9588 69.1292 77.3347L57.2617 80.2918Z" fill="#42B3E5"/>
<path d="M35.2502 94.0001H31.3335V88.125C31.3307 86.5826 31.8439 85.0835 32.7914 83.8663C33.7389 82.6491 35.0662 81.7837 36.5623 81.408L37.2085 83.3663L37.6785 85.3246C37.0228 85.4607 36.4299 85.8085 35.9911 86.3145C35.5524 86.8205 35.292 87.4566 35.2502 88.125V94.0001Z" fill="#42B3E5"/>
<path d="M57.221 60.5321L56.3594 56.7917L77.901 51.9154C78.5816 51.7785 79.1929 51.4079 79.6292 50.868C80.0654 50.328 80.2993 49.6525 80.2902 48.9583V48.0771C80.2928 47.681 80.2173 47.2884 80.0681 46.9215C79.919 46.5546 79.699 46.2207 79.4207 45.9388C79.1425 45.6569 78.8115 45.4326 78.4466 45.2787C78.0817 45.1248 77.69 45.0442 77.294 45.0417H56.7902V41.125H77.294C79.1274 41.125 80.8857 41.8533 82.1821 43.1497C83.4785 44.4462 84.2069 46.2045 84.2069 48.0379V48.9583C84.2164 50.5282 83.6868 52.0537 82.7065 53.2799C81.7263 54.5061 80.3548 55.3586 78.8214 55.695L57.221 60.5321Z" fill="white"/>
<path d="M62.6673 94.0002H58.7506V88.1252C58.753 87.4548 58.5305 86.8029 58.1186 86.274C57.7068 85.745 57.1295 85.3694 56.479 85.2072L24.8323 77.3739C23.3212 77.0001 21.9804 76.1272 21.0271 74.8965C20.0738 73.6659 19.5638 72.1494 19.5797 70.5928C19.5956 69.0362 20.1364 67.5305 21.1145 66.3195C22.0927 65.1085 23.4509 64.2631 24.9694 63.9202L36.7194 61.2568L37.5811 65.1735L25.8311 67.8368C25.1525 67.9732 24.542 68.3404 24.1034 68.8759C23.6649 69.4113 23.4252 70.0822 23.4252 70.7743C23.4252 71.4665 23.6649 72.1373 24.1034 72.6728C24.542 73.2083 25.1525 73.5754 25.8311 73.7118L57.4777 81.5452C58.9439 81.9224 60.2457 82.7704 61.1832 83.9591C62.1208 85.1479 62.6421 86.6115 62.6673 88.1252V94.0002Z" fill="white"/>
</svg>
