<svg width="197" height="197" viewBox="0 0 197 197" fill="none" xmlns="http://www.w3.org/2000/svg">
<path d="M195.069 55.2199L195.069 55.2197C194.028 53.759 192.361 52.8899 190.583 52.8899H42.9007L33.3272 23.7254L33.3272 23.7254C32.5738 21.4349 30.4631 19.8899 28.0833 19.8899H6.41665C3.36208 19.8899 0.889856 22.4026 0.889856 25.5C0.889856 28.5974 3.36208 31.1101 6.41665 31.1101H24.0992L64.1696 153.173C55.7183 156.214 49.6397 164.392 49.6397 174C49.6397 186.19 59.4071 196.11 71.4165 196.11C83.4259 196.11 93.1933 186.19 93.1933 174C93.1933 170.039 92.145 166.329 90.3405 163.11H144.576C142.771 166.329 141.723 170.039 141.723 174C141.723 186.19 151.49 196.11 163.5 196.11C175.509 196.11 185.276 186.19 185.276 174C185.276 161.81 175.509 151.89 163.5 151.89H75.4006L68.2514 130.11H168.916C171.296 130.11 173.407 128.565 174.16 126.275L195.827 60.2746L195.722 60.2402L195.827 60.2745C196.388 58.5629 196.105 56.6829 195.069 55.2199ZM163.5 163.11C169.411 163.11 174.223 167.994 174.223 174C174.223 180.006 169.411 184.89 163.5 184.89C157.589 184.89 152.776 180.006 152.776 174C152.776 167.994 157.589 163.11 163.5 163.11ZM71.4165 163.11C77.3276 163.11 82.1397 167.994 82.1397 174C82.1397 180.006 77.3276 184.89 71.4165 184.89C65.5054 184.89 60.6933 180.006 60.6933 174C60.6933 167.994 65.5054 163.11 71.4165 163.11ZM64.5673 118.89L46.5848 64.1101H182.915L164.932 118.89H64.5673Z" fill="#42B3E5" stroke="#42B3E5" stroke-width="0.220288"/>
<circle cx="151" cy="36" r="36" fill="white"/>
<path d="M147.555 42.0938H132.438V33.5391H147.555V18.3047H156.109V33.5391H171.227V42.0938H156.109V57.1328H147.555V42.0938Z" fill="#42B3E5"/>
</svg>
