<svg width="16" height="12" viewBox="0 0 16 12" fill="none" xmlns="http://www.w3.org/2000/svg">
<path d="M7.32294 5.03504L0.962891 0.161305C1.17604 0.0575514 1.41224 0 1.66572 0H13.5966C13.8443 0 14.0805 0.057609 14.2936 0.161305L7.94512 5.03504C7.76077 5.1733 7.50153 5.1733 7.32294 5.03504Z" fill="#8D8D8D"/>
<path d="M15.2607 1.65938V10.3411C15.2607 11.2571 14.5117 12.0002 13.5958 12.0002H1.6649C0.748919 12.0002 0 11.2571 0 10.3411V1.65938C0 1.42318 0.0518482 1.19274 0.144023 0.985352L6.61929 5.95126C6.91886 6.17594 7.27604 6.29115 7.63321 6.29115C7.99039 6.29115 8.34757 6.17594 8.64137 5.9455L15.1166 0.985352C15.2088 1.19274 15.2607 1.42318 15.2607 1.65938Z" fill="#8D8D8D"/>
</svg>
