<svg width="23" height="24" viewBox="0 0 23 24" fill="none" xmlns="http://www.w3.org/2000/svg">
<rect x="0.492188" y="0.985352" width="22.0288" height="22.0288" fill="#808080"/>
<path d="M11.5065 9.76257C10.2609 9.76257 9.24765 10.7758 9.24765 12.0214C9.24765 13.267 10.2609 14.2802 11.5065 14.2802C12.752 14.2802 13.7653 13.267 13.7653 12.0214C13.7653 10.7758 12.752 9.76257 11.5065 9.76257ZM11.5065 9.76257C10.2609 9.76257 9.24765 10.7758 9.24765 12.0214C9.24765 13.267 10.2609 14.2802 11.5065 14.2802C12.752 14.2802 13.7653 13.267 13.7653 12.0214C13.7653 10.7758 12.752 9.76257 11.5065 9.76257ZM15.4002 6.49268H7.6127C6.72209 6.49268 5.99927 7.21549 5.99927 8.10611V15.8936C5.99927 16.7842 6.72209 17.5071 7.6127 17.5071H15.4002C16.2908 17.5071 17.0137 16.7842 17.0137 15.8936V8.10611C17.0137 7.21549 16.2908 6.49268 15.4002 6.49268ZM11.5065 14.9256C9.90595 14.9256 8.60228 13.6219 8.60228 12.0214C8.60228 10.4208 9.90595 9.1172 11.5065 9.1172C13.107 9.1172 14.4106 10.4208 14.4106 12.0214C14.4106 13.6219 13.107 14.9256 11.5065 14.9256ZM15.056 9.1172C14.7011 9.1172 14.4106 8.82678 14.4106 8.47182C14.4106 8.11687 14.7011 7.82645 15.056 7.82645C15.411 7.82645 15.7014 8.11687 15.7014 8.47182C15.7014 8.82678 15.411 9.1172 15.056 9.1172ZM11.5065 9.76257C10.2609 9.76257 9.24765 10.7758 9.24765 12.0214C9.24765 13.267 10.2609 14.2802 11.5065 14.2802C12.752 14.2802 13.7653 13.267 13.7653 12.0214C13.7653 10.7758 12.752 9.76257 11.5065 9.76257ZM11.5065 9.76257C10.2609 9.76257 9.24765 10.7758 9.24765 12.0214C9.24765 13.267 10.2609 14.2802 11.5065 14.2802C12.752 14.2802 13.7653 13.267 13.7653 12.0214C13.7653 10.7758 12.752 9.76257 11.5065 9.76257ZM11.5065 9.76257C10.2609 9.76257 9.24765 10.7758 9.24765 12.0214C9.24765 13.267 10.2609 14.2802 11.5065 14.2802C12.752 14.2802 13.7653 13.267 13.7653 12.0214C13.7653 10.7758 12.752 9.76257 11.5065 9.76257Z" fill="white"/>
</svg>
