<svg width="24" height="29" viewBox="0 0 24 29" fill="none" xmlns="http://www.w3.org/2000/svg">
<path d="M2.60723 18.9817C3.04663 19.5211 8.26844 25.6719 10.6321 28.4553C10.9401 28.8181 11.3693 29 11.7985 29C12.2202 29 12.6428 28.8243 12.9512 28.4721C12.9512 28.4721 20.5207 19.5154 20.9553 18.9817C22.585 16.9811 23.5625 14.4372 23.5625 11.6662C23.5625 5.2229 18.2883 0 11.7812 0C5.27419 0 0 5.2229 0 11.6662C0 14.4372 0.977479 16.9811 2.60723 18.9817ZM11.7812 6.44466C14.6943 6.44466 17.055 8.78238 17.055 11.6662C17.055 14.5504 14.6943 16.8877 11.7812 16.8877C8.8687 16.8877 6.50746 14.5504 6.50746 11.6662C6.50746 8.78238 8.8687 6.44466 11.7812 6.44466Z" fill="#808080"/>
<path d="M11.7816 15.0754C13.6932 15.0754 15.2429 13.5491 15.2429 11.6664C15.2429 9.7836 13.6932 8.25732 11.7816 8.25732C9.86998 8.25732 8.32031 9.7836 8.32031 11.6664C8.32031 13.5491 9.86998 15.0754 11.7816 15.0754Z" fill="#808080"/>
</svg>
