<svg width="75" height="75" viewBox="0 0 75 75" fill="none" xmlns="http://www.w3.org/2000/svg">
<path d="M74.2502 65.8248L55.4657 46.9613C63.4373 34.9645 61.8587 19.0213 51.6772 8.83978C45.9156 3.15706 38.3386 0 30.2092 0C22.0797 0 14.5028 3.15706 8.82005 8.83978C-2.94002 20.6788 -2.94002 39.8579 8.82005 51.618C19.0016 61.7995 34.9448 63.3781 46.9416 55.4854L65.8051 74.3489C66.6732 75.217 68.1729 75.217 69.041 74.3489L74.2502 69.1397C75.1973 68.1926 75.1973 66.693 74.2502 65.8248ZM44.7317 44.7514C36.7601 52.723 23.7372 52.723 15.6867 44.7514C7.71508 36.7798 7.71508 23.7569 15.6867 15.7064C23.6583 7.73481 36.6811 7.73481 44.7317 15.7064C52.7032 23.7569 52.7032 36.7798 44.7317 44.7514Z" fill="white"/>
</svg>
