<svg width="19" height="14" viewBox="0 0 19 14" fill="none" xmlns="http://www.w3.org/2000/svg">
<path d="M9.21803 8.01832L1.12592 0.415964C1.39079 0.285334 1.68099 0.21662 1.97529 0.214844H16.4608C16.7551 0.21662 17.0453 0.285334 17.3101 0.415964L9.21803 8.01832ZM18.2385 1.36123L9.67893 9.40605C9.55718 9.52102 9.39725 9.58491 9.2312 9.58491C9.06514 9.58491 8.90522 9.52102 8.78346 9.40605L0.223866 1.36123C0.0864414 1.62874 0.00992779 1.92432 0 2.22605V11.6117C0 12.1451 0.208111 12.6566 0.57855 13.0338C0.948989 13.411 1.45141 13.6229 1.97529 13.6229H16.4608C16.9846 13.6229 17.4871 13.411 17.8575 13.0338C18.2279 12.6566 18.4361 12.1451 18.4361 11.6117V2.22605C18.4343 1.92639 18.3668 1.63092 18.2385 1.36123Z" fill="#808080"/>
</svg>
