<svg width="15" height="19" viewBox="0 0 15 19" fill="none" xmlns="http://www.w3.org/2000/svg">
<path d="M1.96496 12.3814C2.2316 12.7088 5.40034 16.4413 6.83467 18.1303C7.02157 18.3505 7.28202 18.4608 7.5425 18.4608C7.79841 18.4608 8.05485 18.3542 8.24199 18.1405C8.24199 18.1405 12.8354 12.7053 13.0991 12.3814C14.0881 11.1674 14.6812 9.62368 14.6812 7.94219C14.6812 4.0322 11.4807 0.862793 7.53202 0.862793C3.58335 0.862793 0.382812 4.0322 0.382812 7.94219C0.382812 9.62368 0.975976 11.1674 1.96496 12.3814ZM7.53202 4.7736C9.29972 4.7736 10.7323 6.1922 10.7323 7.94219C10.7323 9.69242 9.29972 11.1108 7.53202 11.1108C5.7646 11.1108 4.33173 9.69242 4.33173 7.94219C4.33173 6.1922 5.7646 4.7736 7.53202 4.7736Z" fill="#808080"/>
<path d="M7.53156 10.0109C8.69159 10.0109 9.63197 9.08476 9.63197 7.94224C9.63197 6.79973 8.69159 5.87354 7.53156 5.87354C6.37154 5.87354 5.43115 6.79973 5.43115 7.94224C5.43115 9.08476 6.37154 10.0109 7.53156 10.0109Z" fill="#808080"/>
</svg>
