<svg width="60" height="68" viewBox="0 0 60 68" fill="none" xmlns="http://www.w3.org/2000/svg">
<path d="M37.0728 25.6511C38.9477 23.7762 40.002 21.2312 40.002 18.5798C40.002 13.0943 35.4878 8.58008 30.0022 8.58008C24.5166 8.58008 20.0024 13.0943 20.0024 18.5798C20.0024 24.0654 24.5159 28.5789 30.0015 28.5796C32.6529 28.5796 35.1978 27.5254 37.0728 25.6511ZM24.9302 13.5085C26.2694 12.1693 28.0873 11.4157 29.9815 11.4157C33.9 11.4157 37.1242 14.6399 37.1242 18.5584C37.1242 22.4769 33.9 25.7011 29.9815 25.7011C28.0873 25.7011 26.2694 24.9476 24.9302 23.6083C22.1802 20.8341 22.1902 16.2928 24.9516 13.53L24.9302 13.5085Z" fill="white"/>
<path d="M59.9565 65.3721L54.9994 45.6011C54.988 45.4411 54.9487 45.284 54.8852 45.1368L52.8138 36.8013C52.6538 36.1692 52.0802 35.7227 51.4281 35.7227H44.9997C44.2161 35.7227 43.5711 36.3677 43.5711 37.1513C43.5711 37.9348 44.2161 38.5798 44.9997 38.5798H50.3138L51.7424 44.294H39.2855C38.502 44.294 37.857 44.939 37.857 45.7225C37.857 46.5061 38.502 47.1511 39.2855 47.1511H52.4567L56.7423 64.2935H3.25778L5.0506 57.1508H49.9996C50.7831 57.1508 51.4281 56.5058 51.4281 55.7223C51.4281 54.9387 50.7831 54.2938 49.9996 54.2938H5.76487L7.51483 47.2796H26.4287L28.85 50.801C29.1165 51.1895 29.5579 51.4224 30.0286 51.4224C30.4993 51.4224 30.9407 51.1895 31.2071 50.801L45.6425 29.7443C47.8196 26.5794 48.9853 22.8266 48.9853 18.9853C48.9853 8.57052 40.4148 0 30 0C19.5853 0 11.0147 8.57052 11.0147 18.9853C11.0147 22.8266 12.1804 26.5794 14.3575 29.7443L18.4717 35.7227H8.57195C7.91982 35.7227 7.34626 36.1692 7.18626 36.8013L0.0435707 65.3721C0.0149999 65.4864 0 65.6042 0 65.7221C0 66.5056 0.644985 67.1506 1.42854 67.1506H1.42925H58.5708H58.5715C59.3551 67.1506 60 66.5056 60 65.7221C60 65.6042 59.985 65.4864 59.9565 65.3721ZM18.5717 7.58768C21.6024 4.4999 25.7516 2.75851 30.0779 2.75851C38.9212 2.75851 46.1989 10.0355 46.1989 18.8796C46.1989 22.1859 45.1811 25.4137 43.2854 28.1229L30 47.4511L16.7146 28.1229C12.3176 21.7516 13.1033 13.0668 18.5717 7.58768ZM9.6862 38.5798H20.436L24.4359 44.4011H8.2291L9.6862 38.5798Z" fill="white"/>
</svg>
