<svg width="39" height="50" viewBox="0 0 39 50" fill="none" xmlns="http://www.w3.org/2000/svg">
<path d="M19.3211 49.3472L18.7456 48.9361C17.9646 48.3606 0 35.3702 0 19.3378C0 8.69057 8.67396 0.0166016 19.3211 0.0166016C29.9683 0.0166016 38.6423 8.69057 38.6423 19.3378C38.6423 35.3702 20.6777 48.3606 19.8967 48.9361L19.3211 49.3472ZM19.3211 2.07204C9.7839 2.07204 2.05544 9.8005 2.05544 19.3378C2.05544 32.7392 16.238 44.4141 19.3211 46.7985C22.4043 44.4141 36.5869 32.7392 36.5869 19.3378C36.5869 9.8005 28.8584 2.07204 19.3211 2.07204Z" fill="#4DB7E7"/>
<path d="M19.3209 30.8069C12.9902 30.8069 7.85156 25.6683 7.85156 19.3375C7.85156 13.0068 12.9902 7.86816 19.3209 7.86816C25.6517 7.86816 30.7903 13.0068 30.7903 19.3375C30.7903 25.6683 25.6517 30.8069 19.3209 30.8069ZM19.3209 9.8825C14.1001 9.8825 9.8659 14.1167 9.8659 19.3375C9.8659 24.5583 14.1001 28.7926 19.3209 28.7926C24.5417 28.7926 28.776 24.5583 28.776 19.3375C28.776 14.1167 24.5417 9.8825 19.3209 9.8825Z" fill="#4DB7E7"/>
</svg>
