<svg width="28" height="26" viewBox="0 0 28 26" fill="none" xmlns="http://www.w3.org/2000/svg">
<path d="M10.9313 18.8899L10.0444 16.1101H23.2564C23.6159 16.1101 23.9307 15.8702 24.0425 15.5208L24.0425 15.5208L26.9143 6.52078L26.9143 6.52074C26.9974 6.25977 26.9558 5.97291 26.8015 5.74893L26.8014 5.74869C26.6464 5.52487 26.3966 5.38986 26.1281 5.38986H6.6236L5.37586 1.47922L5.37584 1.47916C5.26413 1.12976 4.94926 0.889856 4.58974 0.889856H1.71795C1.25604 0.889856 0.889856 1.27945 0.889856 1.75C0.889856 2.22055 1.25604 2.61014 1.71795 2.61014H3.99177L9.25458 19.1038C8.14082 19.5564 7.35138 20.6841 7.35138 22C7.35138 23.7104 8.68449 25.1101 10.3333 25.1101C11.9821 25.1101 13.3152 23.7104 13.3152 22C13.3152 21.5002 13.1998 21.0287 12.9977 20.6101H19.874C19.672 21.0287 19.5565 21.5002 19.5565 22C19.5565 23.7104 20.8896 25.1101 22.5384 25.1101C24.1872 25.1101 25.5203 23.7104 25.5203 22C25.5203 20.2896 24.1872 18.8899 22.5384 18.8899H10.9313ZM22.5384 20.6101C23.2648 20.6101 23.8642 21.2291 23.8642 22C23.8642 22.7709 23.2648 23.3899 22.5384 23.3899C21.812 23.3899 21.2127 22.7709 21.2127 22C21.2127 21.2291 21.812 20.6101 22.5384 20.6101ZM10.3333 20.6101C11.0597 20.6101 11.6591 21.2291 11.6591 22C11.6591 22.7709 11.0597 23.3899 10.3333 23.3899C9.60687 23.3899 9.00756 22.7709 9.00756 22C9.00756 21.2291 9.60687 20.6101 10.3333 20.6101ZM9.49538 14.3899L7.17261 7.11014H24.9812L22.6584 14.3899H9.49538Z" fill="#5E5E5E" stroke="#808080" stroke-width="0.220288"/>
</svg>
