<svg width="20" height="21" viewBox="0 0 20 21" fill="none" xmlns="http://www.w3.org/2000/svg">
<path fill-rule="evenodd" clip-rule="evenodd" d="M5.57113 0.992476C5.30999 0.598767 5.04886 0.533149 4.59188 0.598767C3.74319 0.730003 2.95979 0.795622 2.50281 1.32057C-0.565507 4.73271 0.93601 9.45721 5.76698 14.7067C10.6632 19.9561 15.2331 21.7278 18.8236 18.9718C19.4112 18.5125 19.5418 17.7251 19.6723 16.8721C19.8029 16.4127 19.7376 16.1503 19.3459 15.8222C19.2806 15.8222 15.6248 13.3287 15.6248 13.3287C14.7108 13.0662 13.7968 14.313 13.3398 14.9035C12.8176 15.4941 12.2953 15.6253 11.8383 15.2972C9.42284 13.6568 7.07264 11.0977 5.63641 8.60418C5.30999 8.07923 5.44056 7.55429 6.09339 7.16058C6.68094 6.63563 7.98661 5.84822 7.79076 4.92956C7.79076 4.92956 5.63641 1.05809 5.57113 0.992476Z" fill="#808080"/>
</svg>
