<svg width="23" height="24" viewBox="0 0 23 24" fill="none" xmlns="http://www.w3.org/2000/svg">
<path fill-rule="evenodd" clip-rule="evenodd" d="M5.68633 0.507046C5.36795 0.0270279 5.04957 -0.0529752 4.49241 0.0270279C3.45767 0.187034 2.50253 0.267037 1.94537 0.907062C-1.79559 5.06722 0.035093 10.8274 5.92511 17.2277C11.8947 23.6279 17.4664 25.788 21.8441 22.4279C22.5604 21.8679 22.7196 20.9078 22.8788 19.8678C23.038 19.3078 22.9584 18.9878 22.4808 18.5877C22.4013 18.5877 17.9439 15.5476 17.9439 15.5476C16.8296 15.2276 15.7153 16.7477 15.1581 17.4677C14.5214 18.1877 13.8846 18.3477 13.3274 17.9477C10.3824 15.9476 7.51701 12.8275 5.76592 9.7874C5.36795 9.14738 5.52714 8.50735 6.32309 8.02733C7.03944 7.38731 8.63134 6.42727 8.39256 5.30723C8.39256 5.30723 5.76592 0.587049 5.68633 0.507046Z" fill="#5E5E5E"/>
</svg>
