<svg width="10" height="17" viewBox="0 0 10 17" fill="none" xmlns="http://www.w3.org/2000/svg">
<path d="M2.6581 1.51463L2.65818 1.51455L2.65357 1.51011C2.21584 1.08759 1.53492 1.08146 1.1128 1.51438C0.695732 1.94213 0.695732 2.65676 1.1128 3.08451L6.58733 8.69914L1.1128 14.3138L1.11274 14.3137L1.10864 14.3182C0.699328 14.7642 0.693523 15.4539 1.1128 15.8839C1.53492 16.3168 2.21584 16.3107 2.65357 15.8882L2.65363 15.8882L2.65786 15.8839L8.8872 9.49515L8.88726 9.49521L8.89136 9.49075C9.30065 9.04475 9.30648 8.35512 8.88727 7.9251C8.88725 7.92507 8.88722 7.92505 8.8872 7.92502L2.6581 1.51463Z" fill="#444444" stroke="#444444" stroke-width="0.4"/>
</svg>
