<svg width="23" height="24" viewBox="0 0 23 24" fill="none" xmlns="http://www.w3.org/2000/svg">
<rect x="0.246094" y="0.985352" width="22.0288" height="22.0288" fill="#808080"/>
<path d="M11 12.0856C12.918 12.0856 14.472 10.5316 14.472 8.6136C14.472 6.6956 12.918 5.1416 11 5.1416C9.08199 5.1402 7.52799 6.6942 7.52799 8.6122C7.52659 10.5302 9.08199 12.0856 11 12.0856ZM11 6.9042C11.9436 6.9042 12.708 7.6686 12.708 8.6122C12.708 9.5558 11.9436 10.3202 11 10.3202C10.0564 10.3202 9.29199 9.5558 9.29199 8.6122C9.29199 7.6686 10.0564 6.9042 11 6.9042ZM15.0026 12.5084C14.8066 12.115 14.2634 11.7874 13.5424 12.3558C12.5666 13.1244 11 13.1244 11 13.1244C11 13.1244 9.43339 13.1244 8.45759 12.3558C7.73659 11.7874 7.19339 12.115 6.99739 12.5084C6.65439 13.1944 7.04079 13.5262 7.91299 14.0862C8.65779 14.5636 9.67979 14.7428 10.3406 14.81L9.78899 15.3602C9.01199 16.1358 8.26299 16.8862 7.74359 17.407C7.43279 17.7178 7.43279 18.2218 7.74359 18.5326L7.83739 18.6264C8.14819 18.9372 8.65219 18.9372 8.96299 18.6264L11.0084 16.5796C11.7854 17.3566 12.5344 18.1056 13.0552 18.6264C13.366 18.9372 13.87 18.9372 14.1808 18.6264L14.2746 18.5326C14.5854 18.2218 14.5854 17.7178 14.2746 17.407L12.2292 15.3602L11.6762 14.8072C12.337 14.7386 13.3492 14.5594 14.087 14.0862C14.9592 13.5276 15.3442 13.1944 15.0026 12.5084Z" fill="white"/>
</svg>
