<svg width="22" height="23" viewBox="0 0 22 23" fill="none" xmlns="http://www.w3.org/2000/svg">
<path fill-rule="evenodd" clip-rule="evenodd" d="M5.4494 0.485919C5.14429 0.0259017 4.83917 -0.0507679 4.30522 0.0259017C3.3136 0.179241 2.39826 0.25591 1.86431 0.869267C-1.72077 4.85609 0.0336308 10.3763 5.67823 16.5099C11.3991 22.6434 16.7386 24.7135 20.9339 21.4934C21.6204 20.9567 21.773 20.0367 21.9255 19.04C22.0781 18.5033 22.0018 18.1966 21.5441 17.8132C21.4679 17.8132 17.1963 14.8998 17.1963 14.8998C16.1284 14.5931 15.0605 16.0498 14.5265 16.7399C13.9163 17.4299 13.3061 17.5832 12.7721 17.1999C9.94983 15.2832 7.2038 12.293 5.52568 9.37959C5.14429 8.76624 5.29684 8.15288 6.05963 7.69286C6.74613 7.0795 8.2717 6.15947 8.04287 5.0861C8.04287 5.0861 5.52568 0.562589 5.4494 0.485919Z" fill="#808080"/>
</svg>
