<svg width="25" height="26" viewBox="0 0 25 26" fill="none" xmlns="http://www.w3.org/2000/svg">
<path fill-rule="evenodd" clip-rule="evenodd" d="M6.57072 1.46714C6.23908 0.967119 5.90743 0.883782 5.32705 0.967119C4.2492 1.13379 3.25427 1.21713 2.67389 1.88382C-1.22294 6.21732 0.684016 12.2175 6.81946 18.8845C13.0378 25.5514 18.8416 27.8015 23.4017 24.3013C24.1479 23.718 24.3137 22.7179 24.4796 21.6346C24.6454 21.0512 24.5625 20.7179 24.065 20.3012C23.9821 20.3012 19.3391 17.1344 19.3391 17.1344C18.1783 16.8011 17.0175 18.3845 16.4372 19.1345C15.7739 19.8845 15.1106 20.0512 14.5302 19.6345C11.4625 17.5511 8.47768 14.301 6.65363 11.1342C6.23908 10.4675 6.4049 9.80079 7.23401 9.30077C7.98021 8.63408 9.63844 7.63404 9.38971 6.46733C9.38971 6.46733 6.65363 1.55047 6.57072 1.46714Z" fill="#474747"/>
</svg>
