<svg width="82" height="82" viewBox="0 0 82 82" fill="none" xmlns="http://www.w3.org/2000/svg">
<path d="M53.4449 55.3232L53.4444 55.3235L50.0085 57.283L50.0085 57.283C47.3903 58.7752 43.9093 58.0282 40.3815 55.6674C36.8466 53.3018 33.2239 49.2924 30.2852 44.1658L30.2852 44.1657C27.7995 39.8278 26.2258 35.4074 25.6616 31.5408C25.0983 27.6799 25.5382 24.3447 27.1153 22.2046C27.6233 21.5153 28.2394 20.9511 28.9532 20.5461C28.9533 20.5461 28.9533 20.5461 28.9534 20.546L32.3889 18.5867L53.4449 55.3232ZM53.4449 55.3232C54.0899 54.9521 54.6452 54.4641 55.0844 53.868C56.3333 52.1734 56.4597 49.8975 55.4117 48.0524L55.4114 48.0518L54.0988 45.7647C52.6404 43.2205 49.3879 42.3333 46.8359 43.781L46.8355 43.7812L43.4035 45.7437L43.4024 45.7443C43.2795 45.8161 43.0191 45.8372 42.613 45.7074C42.2162 45.5805 41.711 45.3187 41.1279 44.8787L41.1277 44.8785C39.7779 43.863 38.3569 42.1539 37.2344 40.1943L37.2344 40.1942C35.9743 37.9974 35.3605 36.0593 35.1689 34.6156C35.0731 33.893 35.0837 33.2997 35.1684 32.8619C35.255 32.4151 35.4112 32.1659 35.5715 32.0751L35.572 32.0748L39.0059 30.1139L39.0062 30.1137C41.4894 28.6896 42.3904 25.3354 40.9721 22.8598L40.972 22.8596L39.6554 20.5696L39.6552 20.5693M53.4449 55.3232L39.6552 20.5693M39.6552 20.5693C38.9432 19.3367 37.8018 18.4488 36.4269 18.076M39.6552 20.5693L36.4269 18.076M32.6467 42.8172L32.6467 42.8172C35.4022 47.6262 38.6001 51.1273 41.5198 53.1856C42.9798 54.2149 44.3652 54.88 45.5868 55.1706C46.8089 55.4614 47.8546 55.375 48.6518 54.9205L52.0876 52.961C53.3047 52.2663 53.7407 50.626 53.0478 49.42L53.1778 49.3453L53.0478 49.42L51.7331 47.1314L51.7331 47.1313C51.0211 45.8904 49.4323 45.4555 48.1833 46.1642C48.1832 46.1642 48.1832 46.1642 48.1831 46.1643L44.753 48.1245C43.3107 48.9493 41.4282 48.5365 39.4817 47.0656M32.6467 42.8172L34.2113 29.7216C33.829 29.9394 33.4961 30.237 33.2242 30.6059C32.3057 31.8524 32.2042 33.691 32.5783 35.6474C32.9536 37.6103 33.8137 39.7263 34.8653 41.5613C36.179 43.8537 37.8144 45.8065 39.4817 47.0656M32.6467 42.8172C30.4776 39.033 29.039 35.0921 28.4477 31.6875C27.8546 28.2727 28.1201 25.4357 29.3081 23.8237C29.593 23.4372 29.9285 23.1314 30.3082 22.9219L30.3082 22.9219L30.3101 22.9208L33.744 20.9598L33.7445 20.9595C34.3488 20.6114 35.0466 20.5215 35.7134 20.7092L35.7149 20.7096C36.3846 20.8906 36.942 21.3239 37.2867 21.9278L37.2869 21.9281L38.604 24.2216L38.604 24.2216C39.2971 25.428 38.8659 27.0689 37.6441 27.7624L37.6438 27.7626L34.2114 29.7216L32.6467 42.8172ZM39.4817 47.0656L39.5722 46.946L39.4818 47.0657C39.4818 47.0656 39.4818 47.0656 39.4817 47.0656ZM36.4269 18.076C35.0574 17.7009 33.6206 17.8829 32.389 18.5867L36.4269 18.076Z" fill="white" stroke="white" stroke-width="0.3"/>
<path d="M56.2274 63.0777L56.2272 63.0776C54.5 62.8962 53.193 61.8006 52.1634 60.4163C51.1388 59.0386 50.3727 57.3531 49.7316 55.9423L49.7232 55.924L49.7231 55.9236L49.5386 55.5149C49.5386 55.5148 49.5386 55.5148 49.5386 55.5147C49.2279 54.8341 49.5225 54.025 50.2133 53.7161C50.8975 53.4054 51.7002 53.7031 52.0119 54.388L56.2274 63.0777ZM56.2274 63.0777C58.7131 63.3353 61.2627 61.5798 64.0146 57.8456C73.5505 44.9058 70.7815 26.6219 57.8432 17.0841C44.9053 7.5496 26.6195 10.3172 17.0836 23.257C7.54768 36.1967 10.3187 54.482 23.2565 64.0165C30.0107 68.994 38.5894 70.8201 46.7918 69.0256C47.5264 68.8677 47.9891 68.1424 47.8316 67.4094L47.8313 67.4083C47.6678 66.6743 46.9489 66.212 46.212 66.3702L46.2113 66.3703C38.7769 68.0049 30.9932 66.3464 24.8667 61.8315C13.1362 53.1867 10.6229 36.6031 19.2691 24.8706C27.9153 13.1381 44.4995 10.6282 56.23 19.273C67.9606 27.9178 70.4738 44.5014 61.8276 56.2339C60.7646 57.6763 59.7692 58.7519 58.8677 59.4474C57.9633 60.1451 57.1735 60.4451 56.5153 60.3778C56.0664 60.3307 55.6341 60.106 55.2181 59.7477C54.8021 59.3894 54.4102 58.9041 54.0441 58.3513C53.3113 57.2451 52.6969 55.8927 52.2032 54.8054L52.203 54.805L52.0121 54.3884L56.2274 63.0777Z" fill="white" stroke="white" stroke-width="0.3"/>
</svg>
