<svg width="50" height="51" viewBox="0 0 50 51" fill="none" xmlns="http://www.w3.org/2000/svg">
<path d="M37.1216 50.0206C39.7894 50.0206 42.4989 49.0202 44.4997 46.9777L45.25 46.2691L3.77438 4.79346L3.06575 5.50209C-1.01928 9.58712 -1.01928 16.2149 3.06575 20.2999L29.7435 46.9777C31.7444 49.0202 34.4538 50.0206 37.1216 50.0206ZM42.2904 46.1857C38.9974 48.7701 34.2037 48.52 31.1608 45.5188L4.48301 18.841C1.44008 15.798 1.23166 11.0044 3.81607 7.71134L42.2904 46.1857Z" fill="#57BAE6"/>
<path d="M14.9024 18.7995L21.1133 12.5886L8.5247 0L2.31378 6.21092L14.9024 18.7995ZM18.1954 12.5886L14.9024 15.8816L5.23166 6.21092L8.5247 2.91788L18.1954 12.5886Z" fill="#57BAE6"/>
<path d="M43.7891 47.6867L50 41.4758L37.4114 28.8872L31.2005 35.0981L43.7891 47.6867ZM47.0821 41.4758L43.7891 44.7688L34.1184 35.0981L37.4114 31.8051L47.0821 41.4758Z" fill="#57BAE6"/>
</svg>
