<svg width="65" height="65" viewBox="0 0 65 65" fill="none" xmlns="http://www.w3.org/2000/svg">
<path d="M32.4998 16.25C30.8928 16.25 29.3219 15.7735 27.9858 14.8807C26.6496 13.9879 25.6082 12.719 24.9932 11.2343C24.3783 9.74966 24.2174 8.11599 24.5309 6.5399C24.8444 4.9638 25.6182 3.51606 26.7545 2.37976C27.8908 1.24346 29.3386 0.469628 30.9147 0.156123C32.4907 -0.157382 34.1244 0.00352045 35.6091 0.618482C37.0937 1.23344 38.3627 2.27485 39.2554 3.611C40.1482 4.94714 40.6248 6.51803 40.6248 8.125C40.6248 10.2799 39.7687 12.3465 38.245 13.8702C36.7213 15.394 34.6546 16.25 32.4998 16.25ZM32.4998 2.70834C31.4284 2.70834 30.3812 3.02602 29.4904 3.62121C28.5997 4.2164 27.9054 5.06237 27.4954 6.05214C27.0854 7.0419 26.9782 8.13101 27.1872 9.18174C27.3962 10.2325 27.9121 11.1976 28.6696 11.9552C29.4271 12.7127 30.3923 13.2286 31.443 13.4376C32.4938 13.6466 33.5829 13.5393 34.5726 13.1294C35.5624 12.7194 36.4084 12.0251 37.0036 11.1343C37.5987 10.2436 37.9164 9.19632 37.9164 8.125C37.9164 6.68841 37.3457 5.31066 36.3299 4.29484C35.3141 3.27902 33.9363 2.70834 32.4998 2.70834Z" fill="#0384CE"/>
<path d="M32.5 24.3749H16.25C11.9402 24.3749 7.80698 22.6629 4.75951 19.6154C1.71205 16.5679 0 12.4347 0 8.12492C0 7.76577 0.142671 7.42133 0.396626 7.16738C0.650582 6.91342 0.995019 6.77075 1.35417 6.77075H11.9167C13.6412 6.78634 15.3172 7.34396 16.7073 8.36467C18.0974 9.38539 19.1313 10.8175 19.6625 12.4583C20.5695 15.1435 22.2962 17.4765 24.5992 19.1285C26.9023 20.7805 29.6657 21.6682 32.5 21.6666C32.8591 21.6666 33.2036 21.8093 33.4575 22.0632C33.7115 22.3172 33.8542 22.6616 33.8542 23.0208C33.8542 23.3799 33.7115 23.7243 33.4575 23.9783C33.2036 24.2322 32.8591 24.3749 32.5 24.3749ZM2.77604 9.47909C3.11288 12.831 4.68697 15.9369 7.19095 18.1905C9.69493 20.4441 12.949 21.6835 16.3177 21.6666H23.576C20.5753 19.6729 18.3222 16.7386 17.1708 13.3249C16.8134 12.2112 16.1124 11.2392 15.1686 10.5484C14.2247 9.85749 13.0864 9.48318 11.9167 9.47909H2.77604Z" fill="#0384CE"/>
<path d="M48.7499 24.3749H32.4999C32.1408 24.3749 31.7963 24.2322 31.5424 23.9783C31.2884 23.7243 31.1458 23.3799 31.1458 23.0208C31.1458 22.6616 31.2884 22.3172 31.5424 22.0632C31.7963 21.8093 32.1408 21.6666 32.4999 21.6666C35.3342 21.6682 38.0976 20.7805 40.4007 19.1285C42.7038 17.4765 44.4304 15.1435 45.3374 12.4583C45.8687 10.8175 46.9025 9.38539 48.2926 8.36467C49.6827 7.34396 51.3587 6.78634 53.0833 6.77075H63.6458C64.0049 6.77075 64.3493 6.91342 64.6033 7.16738C64.8573 7.42133 64.9999 7.76577 64.9999 8.12492C64.9999 12.4347 63.2879 16.5679 60.2404 19.6154C57.1929 22.6629 53.0597 24.3749 48.7499 24.3749ZM41.4916 21.6666H48.7499C52.1186 21.6835 55.3727 20.4441 57.8767 18.1905C60.3807 15.9369 61.9548 12.831 62.2916 9.47909H53.0833C51.9252 9.49734 50.802 9.87819 49.8716 10.5681C48.9413 11.2579 48.2506 12.2221 47.8968 13.3249C46.7454 16.7386 44.4923 19.6729 41.4916 21.6666Z" fill="#0384CE"/>
<path d="M33.8541 14.8959H31.1458V65H33.8541V14.8959Z" fill="#0384CE"/>
<path d="M25.4315 41.8574L10.5357 38.4855C9.47238 38.262 8.51818 37.68 7.83285 36.8369C7.14752 35.9938 6.77267 34.9408 6.77107 33.8543V33.2449C6.7675 32.6149 6.88851 31.9904 7.12714 31.4073C7.36577 30.8242 7.71731 30.294 8.16155 29.8473C8.60579 29.4005 9.13396 29.046 9.7157 28.8041C10.2974 28.5621 10.9212 28.4376 11.5513 28.4376H25.7294V31.146H11.5513C11.0029 31.1495 10.478 31.3689 10.0902 31.7567C9.70238 32.1445 9.48296 32.6694 9.47941 33.2178V33.8543C9.47747 34.324 9.63625 34.7802 9.92938 35.1473C10.2225 35.5143 10.6324 35.77 11.0909 35.872L25.9867 39.2439L25.4315 41.8574Z" fill="#0384CE"/>
<path d="M39.5958 55.5209L38.9458 52.8125L47.1791 50.7542C47.6484 50.6599 48.0705 50.406 48.3737 50.0357C48.677 49.6654 48.8427 49.2016 48.8427 48.723C48.8427 48.2443 48.677 47.7805 48.3737 47.4102C48.0705 47.0399 47.6484 46.786 47.1791 46.6917L25.5125 41.7896L26.027 39.2709L47.6937 44.173C48.7441 44.4085 49.6843 44.9917 50.3619 45.8281C51.0396 46.6646 51.4151 47.7052 51.4276 48.7817C51.4402 49.8581 51.089 50.9072 50.431 51.7592C49.773 52.6112 48.8467 53.2161 47.802 53.4761L39.5958 55.5209Z" fill="#0384CE"/>
<path d="M24.3748 64.9998H21.6665V60.9373C21.6646 59.8707 22.0195 58.834 22.6746 57.9924C23.3298 57.1507 24.2477 56.5523 25.2821 56.2925L25.729 57.6466L26.054 59.0008C25.6006 59.0949 25.1906 59.3354 24.8872 59.6853C24.5838 60.0352 24.4038 60.4751 24.3748 60.9373V64.9998Z" fill="#0384CE"/>
<path d="M39.569 41.8574L38.9731 39.271L53.869 35.8991C54.3396 35.8044 54.7623 35.5482 55.064 35.1748C55.3656 34.8014 55.5273 34.3343 55.5211 33.8543V33.2449C55.5228 32.9711 55.4707 32.6995 55.3675 32.4458C55.2644 32.1921 55.1122 31.9612 54.9198 31.7663C54.7275 31.5714 54.4985 31.4163 54.2462 31.3099C53.9939 31.2034 53.723 31.1477 53.4492 31.146H39.2711V28.4376H53.4492C54.717 28.4376 55.9328 28.9412 56.8293 29.8377C57.7258 30.7342 58.2294 31.95 58.2294 33.2178V33.8543C58.236 34.9398 57.8698 35.9947 57.1919 36.8426C56.5141 37.6905 55.5658 38.28 54.5054 38.5126L39.569 41.8574Z" fill="#0384CE"/>
<path d="M43.3342 64.9998H40.6258V60.9373C40.6275 60.4737 40.4736 60.023 40.1888 59.6572C39.904 59.2914 39.5048 59.0317 39.055 58.9196L17.1717 53.5029C16.1267 53.2445 15.1996 52.6409 14.5404 51.7899C13.8812 50.9389 13.5286 49.8903 13.5396 48.8139C13.5505 47.7375 13.9245 46.6963 14.6009 45.8589C15.2772 45.0215 16.2165 44.437 17.2665 44.1998L25.3915 42.3582L25.9873 45.0665L17.8623 46.9082C17.3931 47.0025 16.9709 47.2563 16.6677 47.6266C16.3644 47.9969 16.1987 48.4608 16.1987 48.9394C16.1987 49.418 16.3644 49.8819 16.6677 50.2522C16.9709 50.6225 17.3931 50.8763 17.8623 50.9707L39.7456 56.3873C40.7595 56.6481 41.6597 57.2346 42.308 58.0566C42.9562 58.8785 43.3168 59.8906 43.3342 60.9373V64.9998Z" fill="#0384CE"/>
</svg>
