<svg width="65" height="65" viewBox="0 0 65 65" fill="none" xmlns="http://www.w3.org/2000/svg">
<path d="M55.4753 65.0001H36.5291C36.1702 65.0001 35.8259 64.8575 35.5722 64.6037C35.3184 64.3499 35.1758 64.0057 35.1758 63.6468V52.8204C35.1758 52.4615 35.3184 52.1173 35.5722 51.8635C35.8259 51.6097 36.1702 51.4671 36.5291 51.4671H55.4753C55.8342 51.4671 56.1784 51.6097 56.4322 51.8635C56.686 52.1173 56.8286 52.4615 56.8286 52.8204V63.6468C56.8286 64.0057 56.686 64.3499 56.4322 64.6037C56.1784 64.8575 55.8342 65.0001 55.4753 65.0001ZM37.8824 62.2935H54.122V54.1737H37.8824V62.2935Z" fill="#0384CE"/>
<path d="M55.368 53.3344L52.8779 52.3059L62.1345 29.814L51.7682 3.89831L49.1292 3.23519L52.7696 20.0567L50.063 20.6251L46.0031 1.67889C45.9575 1.4519 45.9708 1.217 46.0419 0.996642C46.113 0.776287 46.2394 0.577855 46.4091 0.420324C46.5707 0.253213 46.7727 0.13056 46.9955 0.0641903C47.2183 -0.00217985 47.4545 -0.0100289 47.6812 0.0413997L53.0944 1.3947C53.3034 1.44605 53.4971 1.5465 53.6595 1.68771C53.8219 1.82893 53.9483 2.00684 54.0282 2.20668L64.8546 29.2727C64.9863 29.5982 64.9863 29.9622 64.8546 30.2877L55.368 53.3344Z" fill="#0384CE"/>
<path d="M39.2357 52.9556L36.5291 52.6849L37.8824 39.1519C37.9225 38.8421 38.0599 38.553 38.2748 38.3264L46.0698 30.5449L47.4231 20.1786C47.4614 19.8599 47.6116 19.5651 47.8471 19.3469C48.0827 19.1288 48.388 19.0015 48.7088 18.9877H54.122C54.4565 18.9857 54.78 19.1076 55.0299 19.3301C55.2798 19.5525 55.4385 19.8596 55.4753 20.1921L56.8286 32.3718C56.8593 32.6018 56.8265 32.8358 56.7338 33.0485L52.6739 42.5216L50.1839 41.466L54.122 32.3177L52.904 21.6943H49.8997L48.7088 31.3298C48.6705 31.6295 48.5378 31.9091 48.3298 32.1282L40.589 39.9097L39.2357 52.9556Z" fill="#0384CE"/>
<path d="M51.4161 56.8803H48.7095V59.5869H51.4161V56.8803Z" fill="#0384CE"/>
<path d="M28.4099 65.0001H9.46365C9.10473 65.0001 8.76052 64.8575 8.50672 64.6037C8.25293 64.3499 8.11035 64.0057 8.11035 63.6468V52.8204C8.11035 52.4615 8.25293 52.1173 8.50672 51.8635C8.76052 51.6097 9.10473 51.4671 9.46365 51.4671H28.4099C28.7688 51.4671 29.113 51.6097 29.3668 51.8635C29.6206 52.1173 29.7632 52.4615 29.7632 52.8204V63.6468C29.7632 64.0057 29.6206 64.3499 29.3668 64.6037C29.113 64.8575 28.7688 65.0001 28.4099 65.0001ZM10.817 62.2935H27.0566V54.1737H10.817V62.2935Z" fill="#0384CE"/>
<path d="M9.57187 53.3344L0.0987574 30.3283C-0.0329191 30.0028 -0.0329191 29.6388 0.0987574 29.3133L10.9252 2.24727C10.9984 2.04144 11.1203 1.85638 11.2805 1.70791C11.4408 1.55944 11.6346 1.45197 11.8454 1.39469L17.2586 0.0413886C17.4819 -0.0151443 17.716 -0.0137417 17.9386 0.0454637C18.1612 0.104669 18.365 0.219717 18.5307 0.379714C18.6956 0.540018 18.8169 0.739698 18.8832 0.959907C18.9495 1.18012 18.9586 1.41359 18.9096 1.63828L14.8497 20.5845L12.1431 20.0161L15.8106 3.23518L13.1716 3.8983L2.80536 29.814L12.0619 52.3059L9.57187 53.3344Z" fill="#0384CE"/>
<path d="M25.7024 52.9553L24.3491 39.9095L16.5676 32.128C16.3596 31.9089 16.2269 31.6292 16.1887 31.3296L15.0384 21.6941H12.034L10.8161 32.3175L14.7406 41.4658L12.2506 42.5214L8.19065 33.0483C8.09796 32.8356 8.0652 32.6016 8.09592 32.3716L9.44922 20.1919C9.48624 19.857 9.64684 19.548 9.89962 19.3253C10.1524 19.1025 10.4792 18.9821 10.8161 18.9875H16.2293C16.5617 18.9851 16.8835 19.1052 17.1331 19.3248C17.3827 19.5445 17.5427 19.8483 17.5826 20.1784L18.9359 30.5447L26.7309 38.3262C26.9458 38.5528 27.0832 38.8419 27.1233 39.1517L28.4766 52.6847L25.7024 52.9553Z" fill="#0384CE"/>
<path d="M16.2303 56.8803H13.5237V59.5869H16.2303V56.8803Z" fill="#0384CE"/>
<path d="M32.4698 31.1667C32.1261 31.1619 31.7971 31.0264 31.5496 30.7878C31.4684 30.7201 23.9982 23.6153 21.1021 20.7734C20.4129 20.0982 19.8661 19.2915 19.4942 18.4012C19.1223 17.5109 18.9327 16.5551 18.9368 15.5902C18.9332 13.6257 19.7093 11.74 21.0946 10.3471C22.4799 8.95412 24.3613 8.16776 26.3259 8.1606C27.2866 8.15707 28.2382 8.34696 29.1241 8.71895C30.0099 9.09095 30.8118 9.63745 31.4819 10.3259L32.4428 11.3138L33.4036 10.3259C34.077 9.63415 34.8832 9.08575 35.774 8.71364C36.6647 8.34154 37.6215 8.15342 38.5868 8.1606C40.5536 8.1606 42.4399 8.94193 43.8307 10.3327C45.2215 11.7235 46.0029 13.6098 46.0029 15.5767C46.0027 16.5433 45.8085 17.5001 45.432 18.3904C45.0554 19.2807 44.504 20.0864 43.8105 20.7598C40.928 23.6018 33.4848 30.7066 33.4172 30.7743C33.1651 31.0243 32.8249 31.1652 32.4698 31.1667ZM26.3259 10.8672C25.0815 10.8744 23.8906 11.3737 23.0132 12.2561C22.1359 13.1385 21.6434 14.3323 21.6434 15.5767C21.6434 16.1806 21.763 16.7785 21.9953 17.336C22.2276 17.8934 22.5679 18.3994 22.9967 18.8246C25.2567 21.0576 30.3722 25.9159 32.4698 27.9323C34.5675 25.9159 39.6559 21.0576 41.943 18.8246C42.3734 18.3978 42.7147 17.8896 42.947 17.3297C43.1793 16.7698 43.298 16.1693 43.2963 15.5632C43.2927 14.3211 42.7987 13.1308 41.9217 12.2513C41.0447 11.3718 39.8558 10.8743 38.6138 10.8672C38.0116 10.8652 37.4152 10.984 36.8596 11.2164C36.3041 11.4488 35.8008 11.7903 35.3794 12.2205C34.5675 13.046 33.4848 14.2099 33.4848 14.2234C33.358 14.3629 33.2034 14.4744 33.0309 14.5507C32.8585 14.627 32.672 14.6664 32.4834 14.6664C32.2948 14.6664 32.1083 14.627 31.9358 14.5507C31.7634 14.4744 31.6088 14.3629 31.4819 14.2234C31.4819 14.2234 30.3993 13.046 29.6008 12.2205C29.1761 11.7911 28.6702 11.4503 28.1126 11.218C27.5551 10.9857 26.9569 10.8665 26.3529 10.8672H26.3259Z" fill="#0384CE"/>
</svg>
