<svg width="71" height="71" viewBox="0 0 71 71" fill="none" xmlns="http://www.w3.org/2000/svg">
<g clip-path="url(#clip0_1_423)">
<path d="M69.5208 71H1.47917C1.08687 71 0.710635 70.8441 0.433238 70.5667C0.15584 70.2893 0 69.9131 0 69.5208V65.0833C0 63.5141 0.623361 62.0092 1.73295 60.8996C2.84254 59.79 4.34747 59.1666 5.91667 59.1666H65.0833C66.6525 59.1666 68.1575 59.79 69.267 60.8996C70.3766 62.0092 71 63.5141 71 65.0833V69.5208C71 69.9131 70.8442 70.2893 70.5668 70.5667C70.2894 70.8441 69.9131 71 69.5208 71ZM2.95833 68.0416H68.0417V65.0833C68.0417 64.2987 67.73 63.5462 67.1752 62.9914C66.6204 62.4366 65.8679 62.125 65.0833 62.125H5.91667C5.13207 62.125 4.3796 62.4366 3.82481 62.9914C3.27001 63.5462 2.95833 64.2987 2.95833 65.0833V68.0416Z" fill="#0384CE"/>
<path d="M31.0627 38.4583H13.3127C12.9204 38.4583 12.5441 38.3024 12.2667 38.025C11.9893 37.7476 11.8335 37.3714 11.8335 36.9791V10.3541C11.8335 9.96181 11.9893 9.58557 12.2667 9.30818C12.5441 9.03078 12.9204 8.87494 13.3127 8.87494H31.0627C31.455 8.87494 31.8312 9.03078 32.1086 9.30818C32.386 9.58557 32.5418 9.96181 32.5418 10.3541V36.9791C32.5418 37.3714 32.386 37.7476 32.1086 38.025C31.8312 38.3024 31.455 38.4583 31.0627 38.4583ZM14.7918 35.4999H29.5835V11.8333H14.7918V35.4999Z" fill="#0384CE"/>
<path d="M22.1877 31.0625H13.3127C12.9204 31.0625 12.5441 30.9067 12.2667 30.6293C11.9893 30.3519 11.8335 29.9757 11.8335 29.5834V17.75C11.8335 17.3577 11.9893 16.9815 12.2667 16.7041C12.5441 16.4267 12.9204 16.2709 13.3127 16.2709H22.1877C22.58 16.2709 22.9562 16.4267 23.2336 16.7041C23.511 16.9815 23.6668 17.3577 23.6668 17.75V29.5834C23.6668 29.9757 23.511 30.3519 23.2336 30.6293C22.9562 30.9067 22.58 31.0625 22.1877 31.0625ZM14.7918 28.1042H20.7085V19.2292H14.7918V28.1042Z" fill="#0384CE"/>
<path d="M36.9791 25.1459H31.0624C30.6701 25.1459 30.2939 24.99 30.0165 24.7126C29.7391 24.4352 29.5833 24.059 29.5833 23.6667V11.8334C29.5833 11.4411 29.7391 11.0648 30.0165 10.7874C30.2939 10.51 30.6701 10.3542 31.0624 10.3542H36.9791C38.9406 10.3542 40.8217 11.1334 42.2087 12.5204C43.5957 13.9074 44.3749 15.7885 44.3749 17.75C44.3749 19.7115 43.5957 21.5927 42.2087 22.9797C40.8217 24.3667 38.9406 25.1459 36.9791 25.1459ZM32.5416 22.1875H36.9791C38.156 22.1875 39.2847 21.72 40.1169 20.8878C40.9491 20.0556 41.4166 18.9269 41.4166 17.75C41.4166 16.5731 40.9491 15.4444 40.1169 14.6122C39.2847 13.78 38.156 13.3125 36.9791 13.3125H32.5416V22.1875Z" fill="#0384CE"/>
<path d="M47.3332 62.1249H35.4999C35.1076 62.1249 34.7314 61.9691 34.454 61.6917C34.1766 61.4143 34.0208 61.038 34.0208 60.6457V54.7291C34.0208 52.7676 34.8 50.8864 36.1869 49.4994C37.5739 48.1125 39.4551 47.3333 41.4166 47.3333C43.3781 47.3333 45.2592 48.1125 46.6462 49.4994C48.0332 50.8864 48.8124 52.7676 48.8124 54.7291V60.6457C48.8124 61.038 48.6566 61.4143 48.3792 61.6917C48.1018 61.9691 47.7255 62.1249 47.3332 62.1249ZM36.9791 59.1666H45.8541V54.7291C45.8541 53.5522 45.3866 52.4235 44.5544 51.5913C43.7222 50.7591 42.5935 50.2916 41.4166 50.2916C40.2397 50.2916 39.111 50.7591 38.2788 51.5913C37.4466 52.4235 36.9791 53.5522 36.9791 54.7291V59.1666Z" fill="#0384CE"/>
<path d="M26.6252 11.8334H17.7502C17.3579 11.8334 16.9816 11.6776 16.7042 11.4002C16.4268 11.1228 16.271 10.7465 16.271 10.3542V1.47923C16.271 1.08693 16.4268 0.710696 16.7042 0.433299C16.9816 0.155901 17.3579 6.10352e-05 17.7502 6.10352e-05L26.6252 6.10352e-05C27.0175 6.10352e-05 27.3937 0.155901 27.6711 0.433299C27.9485 0.710696 28.1043 1.08693 28.1043 1.47923V10.3542C28.1043 10.7465 27.9485 11.1228 27.6711 11.4002C27.3937 11.6776 27.0175 11.8334 26.6252 11.8334ZM19.2293 8.87506H25.146V2.95839H19.2293V8.87506Z" fill="#0384CE"/>
<path d="M26.6252 45.8543H17.7502C17.3579 45.8543 16.9816 45.6985 16.7042 45.4211C16.4268 45.1437 16.271 44.7674 16.271 44.3751V36.9793C16.271 36.587 16.4268 36.2108 16.7042 35.9334C16.9816 35.656 17.3579 35.5001 17.7502 35.5001H26.6252C27.0175 35.5001 27.3937 35.656 27.6711 35.9334C27.9485 36.2108 28.1043 36.587 28.1043 36.9793V44.3751C28.1043 44.7674 27.9485 45.1437 27.6711 45.4211C27.3937 45.6985 27.0175 45.8543 26.6252 45.8543ZM19.2293 42.896H25.146V38.4585H19.2293V42.896Z" fill="#0384CE"/>
<path d="M31.0625 53.2499H13.3125V56.2083H31.0625V53.2499Z" fill="#0384CE"/>
<path d="M42.8956 53.2499H39.9373V56.2083H42.8956V53.2499Z" fill="#0384CE"/>
<path d="M38.4583 16.2709H35.5V19.2292H38.4583V16.2709Z" fill="#0384CE"/>
<path d="M45.854 62.1251V59.1668C51.7385 59.1668 57.382 56.8292 61.5429 52.6682C65.7039 48.5072 68.0415 42.8638 68.0415 36.9793C68.0415 31.0948 65.7039 25.4513 61.5429 21.2903C57.382 17.1294 51.7385 14.7918 45.854 14.7918H41.4165V11.8334H45.854C52.5231 11.8334 58.919 14.4827 63.6348 19.1985C68.3506 23.9142 70.9998 30.3102 70.9998 36.9793C70.9998 43.6484 68.3506 50.0443 63.6348 54.7601C58.919 59.4758 52.5231 62.1251 45.854 62.1251Z" fill="#0384CE"/>
<path d="M45.854 53.25V50.2917C49.3847 50.2917 52.7708 48.8891 55.2674 46.3925C57.7639 43.8959 59.1665 40.5098 59.1665 36.9791C59.1665 33.4485 57.7639 30.0624 55.2674 27.5658C52.7708 25.0692 49.3847 23.6666 45.854 23.6666H41.4165V20.7083H45.854C50.1693 20.7083 54.3078 22.4226 57.3592 25.4739C60.4106 28.5253 62.1248 32.6639 62.1248 36.9791C62.1248 41.2944 60.4106 45.433 57.3592 48.4844C54.3078 51.5357 50.1693 53.25 45.854 53.25Z" fill="#0384CE"/>
</g>
<defs>
<clipPath id="clip0_1_423">
<rect width="71" height="71" fill="white"/>
</clipPath>
</defs>
</svg>
