<svg width="70" height="70" viewBox="0 0 70 70" fill="none" xmlns="http://www.w3.org/2000/svg">
<g clip-path="url(#clip0_1_438)">
<path d="M47.3957 58.1391C45.7944 57.3257 44.4622 56.0669 43.5592 54.5139C42.6563 52.9609 42.2211 51.18 42.3061 49.3854L45.2228 49.6772C45.2228 50.894 45.5646 52.0863 46.2092 53.1181C46.8538 54.15 47.7753 54.9798 48.8686 55.513L47.3957 58.1391Z" fill="#0384CE"/>
<path d="M22.6041 58.1388L21.1458 55.6148C22.239 55.0816 23.1605 54.2518 23.8052 53.2199C24.4498 52.1881 24.7916 50.9958 24.7916 49.779L27.7083 49.4872C27.772 51.2664 27.3252 53.0265 26.4207 54.5596C25.5162 56.0928 24.1918 57.3347 22.6041 58.1388Z" fill="#0384CE"/>
<path d="M70 70.0293H67.0833V69.5333C67.0813 67.5325 66.3941 65.5928 65.1364 64.0372C63.8786 62.4816 62.1262 61.404 60.1708 60.9839L48.4167 58.4307L35.8021 66.8488C35.564 67.0057 35.2851 67.0893 35 67.0893C34.7149 67.0893 34.436 67.0057 34.1979 66.8488L21.5833 58.4307L9.82917 60.9547C7.87382 61.3748 6.12136 62.4524 4.86361 64.008C3.60586 65.5636 2.91874 67.5033 2.91667 69.5041V70.0293H0V69.5333C0.000537361 66.8639 0.915686 64.2754 2.59287 62.1993C4.27005 60.1231 6.60791 58.6849 9.21667 58.1243L21.5688 55.4399C21.7578 55.3987 21.9532 55.3955 22.1434 55.4306C22.3337 55.4656 22.5151 55.5382 22.6771 55.6441L35 63.8726L47.3229 55.6587C47.4849 55.5528 47.6663 55.4802 47.8566 55.4452C48.0468 55.4101 48.2422 55.4133 48.4313 55.4545L60.7833 58.0952C63.3921 58.6557 65.7299 60.094 67.4071 62.1701C69.0843 64.2462 69.9995 66.8347 70 69.5041V70.0293Z" fill="#0384CE"/>
<path d="M36.4584 65.6234H33.5417V70.0002H36.4584V65.6234Z" fill="#0384CE"/>
<path d="M49.5837 17.5075H20.417C20.0653 17.5114 19.724 17.3881 19.456 17.1602C19.1881 16.9324 19.0114 16.6153 18.9587 16.2674L17.5004 6.05478C17.4483 5.78126 17.4756 5.49855 17.5789 5.24003C17.6823 4.98151 17.8574 4.75798 18.0837 4.59584C26.6149 -1.57548 43.3566 -1.57548 51.8879 4.59584C52.1141 4.75798 52.2893 4.98151 52.3926 5.24003C52.496 5.49855 52.5232 5.78126 52.4712 6.05478L51.0129 16.2674C50.9609 16.6103 50.7885 16.9235 50.5266 17.1507C50.2646 17.378 49.9304 17.5045 49.5837 17.5075ZM21.6858 14.5896H48.3149L49.467 6.53623C41.9712 1.73631 28.0295 1.73631 20.5337 6.53623L21.6858 14.5896Z" fill="#0384CE"/>
<path d="M58.3334 58.3578H55.4167V30.6379C55.415 27.9912 54.759 25.386 53.5072 23.0543C52.2553 20.7227 50.4465 18.7369 48.2417 17.274L49.8604 14.8376C52.4658 16.5679 54.6028 18.916 56.0811 21.6728C57.5595 24.4296 58.3332 27.5095 58.3334 30.6379V58.3578Z" fill="#0384CE"/>
<path d="M14.5834 58.3578H11.6667V30.6379C11.6669 27.5095 12.4406 24.4296 13.919 21.6728C15.3973 18.916 17.5343 16.5679 20.1397 14.8376L21.7584 17.274C19.5537 18.7369 17.7448 20.7227 16.4929 23.0543C15.2411 25.386 14.5851 27.9912 14.5834 30.6379V58.3578Z" fill="#0384CE"/>
<path d="M52.4998 30.638C46.3602 30.638 38.2664 28.7122 34.9998 24.525C31.7331 28.683 23.6393 30.638 17.4998 30.638V27.7201C24.1935 27.7201 33.5414 24.9481 33.5414 20.4254C33.5414 20.0384 33.6951 19.6673 33.9686 19.3937C34.2421 19.1201 34.613 18.9664 34.9998 18.9664C35.3865 18.9664 35.7575 19.1201 36.031 19.3937C36.3044 19.6673 36.4581 20.0384 36.4581 20.4254C36.4581 24.9481 45.806 27.7201 52.4998 27.7201V30.638Z" fill="#0384CE"/>
<path d="M34.9999 53.981C18.9583 53.981 18.9583 35.9339 18.9583 29.179H21.8749C21.8749 44.3228 25.9291 51.0631 34.9999 51.0631C44.0708 51.0631 48.1249 44.3228 48.1249 29.179H51.0416C51.0416 35.9339 51.0416 53.981 34.9999 53.981Z" fill="#0384CE"/>
<path d="M36.4584 4.34784H33.5417V13.1015H36.4584V4.34784Z" fill="#0384CE"/>
<path d="M39.375 7.26556H30.625V10.1834H39.375V7.26556Z" fill="#0384CE"/>
</g>
<defs>
<clipPath id="clip0_1_438">
<rect width="70" height="70" fill="white"/>
</clipPath>
</defs>
</svg>
