<svg width="69" height="69" viewBox="0 0 69 69" fill="none" xmlns="http://www.w3.org/2000/svg">
<g clip-path="url(#clip0_1_412)">
<path d="M1.4375 61.8125C1.05625 61.8125 0.690618 61.661 0.421034 61.3915C0.15145 61.1219 0 60.7562 0 60.375V7.1875C0 5.28126 0.757252 3.45309 2.10517 2.10517C3.45309 0.757252 5.28126 0 7.1875 0L67.5625 0C67.9437 0 68.3094 0.15145 68.579 0.421034C68.8485 0.690618 69 1.05625 69 1.4375V53.1875C69 53.5687 68.8485 53.9344 68.579 54.204C68.3094 54.4735 67.9437 54.625 67.5625 54.625H7.1875C6.04375 54.625 4.94685 55.0794 4.1381 55.8881C3.32935 56.6969 2.875 57.7938 2.875 58.9375V60.375C2.875 60.7562 2.72355 61.1219 2.45397 61.3915C2.18438 61.661 1.81875 61.8125 1.4375 61.8125ZM7.1875 2.875C6.04375 2.875 4.94685 3.32935 4.1381 4.1381C3.32935 4.94685 2.875 6.04375 2.875 7.1875V53.1875C4.11913 52.2544 5.63234 51.75 7.1875 51.75H66.125V2.875H7.1875Z" fill="#0384CE"/>
<path d="M11.4998 1.43756H8.62476V53.1876H11.4998V1.43756Z" fill="#0384CE"/>
<path d="M67.5623 68.9999H7.18726C6.24338 68.9999 5.30875 68.814 4.43672 68.4528C3.56469 68.0916 2.77235 67.5621 2.10493 66.8947C1.4375 66.2273 0.908077 65.4349 0.546872 64.5629C0.185666 63.6909 -0.000244141 62.7563 -0.000244141 61.8124L-0.000244141 58.9374C-0.000244141 57.0311 0.757008 55.203 2.10493 53.855C3.45284 52.5071 5.28101 51.7499 7.18726 51.7499H67.5623C67.8444 51.7501 68.1203 51.8334 68.3555 51.9893C68.5906 52.1452 68.7747 52.3669 68.8848 52.6268C68.9936 52.8854 69.0243 53.1701 68.9732 53.446C68.9221 53.7219 68.7915 53.9768 68.5973 54.1793C67.013 55.8531 66.1302 58.0702 66.1302 60.3749C66.1302 62.6796 67.013 64.8967 68.5973 66.5705C68.7915 66.773 68.9221 67.0279 68.9732 67.3038C69.0243 67.5796 68.9936 67.8644 68.8848 68.123C68.7747 68.3828 68.5906 68.6045 68.3555 68.7605C68.1203 68.9164 67.8444 68.9997 67.5623 68.9999ZM7.18726 54.6249C6.04351 54.6249 4.94661 55.0792 4.13786 55.888C3.32911 56.6967 2.87476 57.7936 2.87476 58.9374V61.8124C2.87476 62.9561 3.32911 64.053 4.13786 64.8618C4.94661 65.6705 6.04351 66.1249 7.18726 66.1249H64.6873C63.7248 64.3612 63.2204 62.3841 63.2204 60.3749C63.2204 58.3657 63.7248 56.3886 64.6873 54.6249H7.18726Z" fill="#0384CE"/>
<path d="M18.6873 58.9375H8.62476V61.8125H18.6873V58.9375Z" fill="#0384CE"/>
<path d="M35.9373 58.9375H21.5623V61.8125H35.9373V58.9375Z" fill="#0384CE"/>
<path d="M58.937 58.9375H38.812V61.8125H58.937V58.9375Z" fill="#0384CE"/>
<path d="M43.125 40.2499H34.5C34.1187 40.2499 33.7531 40.0985 33.4835 39.8289C33.2139 39.5593 33.0625 39.1937 33.0625 38.8124V33.0624H27.3125C26.9313 33.0624 26.5656 32.911 26.296 32.6414C26.0264 32.3718 25.875 32.0062 25.875 31.6249V22.9999C25.875 22.6187 26.0264 22.2531 26.296 21.9835C26.5656 21.7139 26.9313 21.5624 27.3125 21.5624H33.0625V15.8124C33.0625 15.4312 33.2139 15.0656 33.4835 14.796C33.7531 14.5264 34.1187 14.3749 34.5 14.3749H43.125C43.5062 14.3749 43.8719 14.5264 44.1415 14.796C44.411 15.0656 44.5625 15.4312 44.5625 15.8124V21.5624H50.3125C50.6937 21.5624 51.0594 21.7139 51.329 21.9835C51.5985 22.2531 51.75 22.6187 51.75 22.9999V31.6249C51.75 32.0062 51.5985 32.3718 51.329 32.6414C51.0594 32.911 50.6937 33.0624 50.3125 33.0624H44.5625V38.8124C44.5625 39.1937 44.411 39.5593 44.1415 39.8289C43.8719 40.0985 43.5062 40.2499 43.125 40.2499ZM35.9375 37.3749H41.6875V31.6249C41.6875 31.2437 41.8389 30.8781 42.1085 30.6085C42.3781 30.3389 42.7437 30.1874 43.125 30.1874H48.875V24.4374H43.125C42.7437 24.4374 42.3781 24.286 42.1085 24.0164C41.8389 23.7468 41.6875 23.3812 41.6875 22.9999V17.2499H35.9375V22.9999C35.9375 23.3812 35.786 23.7468 35.5165 24.0164C35.2469 24.286 34.8812 24.4374 34.5 24.4374H28.75V30.1874H34.5C34.8812 30.1874 35.2469 30.3389 35.5165 30.6085C35.786 30.8781 35.9375 31.2437 35.9375 31.6249V37.3749Z" fill="#0384CE"/>
<path d="M38.812 47.4376C34.8317 47.4376 30.9407 46.2573 27.6312 44.0459C24.3216 41.8345 21.7422 38.6914 20.2189 35.0141C18.6957 31.3367 18.2972 27.2902 19.0737 23.3864C19.8502 19.4825 21.767 15.8966 24.5815 13.082C27.396 10.2675 30.982 8.35079 34.8858 7.57427C38.7897 6.79774 42.8362 7.19628 46.5135 8.71949C50.1909 10.2427 53.334 12.8222 55.5453 16.1317C57.7567 19.4413 58.937 23.3322 58.937 27.3126C58.937 29.9554 58.4165 32.5724 57.4051 35.0141C56.3937 37.4558 54.9113 39.6743 53.0425 41.5431C51.1738 43.4119 48.9552 44.8943 46.5135 45.9056C44.0718 46.917 41.4549 47.4376 38.812 47.4376ZM38.812 10.0626C35.4003 10.0626 32.0652 11.0743 29.2284 12.9697C26.3917 14.8652 24.1807 17.5593 22.8751 20.7113C21.5695 23.8633 21.2279 27.3317 21.8935 30.6779C22.5591 34.024 24.202 37.0977 26.6144 39.5102C29.0269 41.9226 32.1005 43.5655 35.4467 44.2311C38.7929 44.8967 42.2613 44.5551 45.4133 43.2495C48.5653 41.9439 51.2594 39.7329 53.1549 36.8962C55.0503 34.0594 56.062 30.7243 56.062 27.3126C56.062 22.7376 54.2446 18.35 51.0096 15.115C47.7746 11.88 43.387 10.0626 38.812 10.0626Z" fill="#0384CE"/>
</g>
<defs>
<clipPath id="clip0_1_412">
<rect width="69" height="69" fill="white"/>
</clipPath>
</defs>
</svg>
