<svg width="69" height="69" viewBox="0 0 69 69" fill="none" xmlns="http://www.w3.org/2000/svg">
<path d="M67.563 69H1.43799C1.05674 69 0.691106 68.8486 0.421522 68.579C0.151939 68.3094 0.000488281 67.9438 0.000488281 67.5625V30.1876H2.87549V66.125H66.1255V30.1876H69.0005V67.5625C69.0005 67.9438 68.849 68.3094 68.5795 68.579C68.3099 68.8486 67.9442 69 67.563 69Z" fill="#0384CE"/>
<path d="M67.5636 69.0001H1.43861C1.139 69.0019 0.846315 68.9101 0.601469 68.7374C0.356622 68.5647 0.171851 68.3198 0.0729835 68.037C-0.026559 67.7528 -0.03432 67.4445 0.0507959 67.1556C0.135912 66.8667 0.309605 66.6118 0.547358 66.427L33.6099 40.552C33.8636 40.3515 34.1776 40.2424 34.5011 40.2424C34.8246 40.2424 35.1386 40.3515 35.3924 40.552L68.4548 66.427C68.7053 66.6024 68.8933 66.8531 68.9915 67.1426C69.0897 67.4321 69.0931 67.7454 69.0011 68.037C68.8986 68.3319 68.7028 68.5853 68.4435 68.7591C68.1842 68.9328 67.8753 69.0174 67.5636 69.0001ZM5.60736 66.1251H63.3949L34.5011 43.5133L5.60736 66.1251Z" fill="#0384CE"/>
<path d="M44.5638 50.0106L42.7957 47.7393L65.235 30.1874L53.735 21.1887L55.5175 18.9318L68.455 28.9943C68.6282 29.1287 68.7683 29.3009 68.8647 29.4977C68.9611 29.6945 69.0112 29.9108 69.0112 30.1299C69.0112 30.3491 68.9611 30.5654 68.8647 30.7622C68.7683 30.959 68.6282 31.1312 68.455 31.2656L44.5638 50.0106Z" fill="#0384CE"/>
<path d="M24.4381 50.0106L0.546882 31.3231C0.373743 31.1888 0.233621 31.0166 0.137228 30.8198C0.0408348 30.6229 -0.00927734 30.4067 -0.00927734 30.1875C-0.00927734 29.9683 0.0408348 29.7521 0.137228 29.5553C0.233621 29.3584 0.373743 29.1862 0.546882 29.0519L13.4844 18.9894L15.2669 21.2463L3.76688 30.1875L26.2063 47.7394L24.4381 50.0106Z" fill="#0384CE"/>
<path d="M56.063 40.2501H53.188V2.87506H15.813V40.2501H12.938V1.43756C12.938 1.05631 13.0894 0.690679 13.359 0.421095C13.6286 0.151512 13.9942 6.10352e-05 14.3755 6.10352e-05L54.6255 6.10352e-05C55.0067 6.10352e-05 55.3724 0.151512 55.642 0.421095C55.9115 0.690679 56.063 1.05631 56.063 1.43756V40.2501Z" fill="#0384CE"/>
<path d="M38.813 35.9376H30.188C29.8067 35.9376 29.4411 35.7861 29.1715 35.5165C28.9019 35.247 28.7505 34.8813 28.7505 34.5001V27.3126H21.563C21.1817 27.3126 20.8161 27.1611 20.5465 26.8915C20.2769 26.622 20.1255 26.2563 20.1255 25.8751V17.2501C20.1255 16.8688 20.2769 16.5032 20.5465 16.2336C20.8161 15.964 21.1817 15.8126 21.563 15.8126H28.7505V8.62506C28.7505 8.24381 28.9019 7.87818 29.1715 7.6086C29.4411 7.33901 29.8067 7.18756 30.188 7.18756H38.813C39.1942 7.18756 39.5599 7.33901 39.8295 7.6086C40.099 7.87818 40.2505 8.24381 40.2505 8.62506V15.8126H47.438C47.8192 15.8126 48.1849 15.964 48.4545 16.2336C48.724 16.5032 48.8755 16.8688 48.8755 17.2501V25.8751C48.8755 26.2563 48.724 26.622 48.4545 26.8915C48.1849 27.1611 47.8192 27.3126 47.438 27.3126H40.2505V34.5001C40.2505 34.8813 40.099 35.247 39.8295 35.5165C39.5599 35.7861 39.1942 35.9376 38.813 35.9376ZM31.6255 33.0626H37.3755V25.8751C37.3755 25.4938 37.5269 25.1282 37.7965 24.8586C38.0661 24.589 38.4317 24.4376 38.813 24.4376H46.0005V18.6876H38.813C38.4317 18.6876 38.0661 18.5361 37.7965 18.2665C37.5269 17.9969 37.3755 17.6313 37.3755 17.2501V10.0626H31.6255V17.2501C31.6255 17.6313 31.474 17.9969 31.2045 18.2665C30.9349 18.5361 30.5692 18.6876 30.188 18.6876H23.0005V24.4376H30.188C30.5692 24.4376 30.9349 24.589 31.2045 24.8586C31.474 25.1282 31.6255 25.4938 31.6255 25.8751V33.0626Z" fill="#0384CE"/>
</svg>
