<svg width="39" height="59" viewBox="0 0 39 59" fill="none" xmlns="http://www.w3.org/2000/svg">
<g clip-path="url(#clip0_1_388)">
<path d="M37.7815 3.65649H4.87524V6.09399H37.7815V3.65649Z" fill="#0384CE"/>
<path d="M37.7812 10.9691H15.8438V13.4066H37.7812V10.9691Z" fill="#0384CE"/>
<path d="M13.4062 10.9691H1.21875V13.4066H13.4062V10.9691Z" fill="#0384CE"/>
<path d="M36.5625 18.2814H26.8125V20.7189H36.5625V18.2814Z" fill="#0384CE"/>
<path d="M24.375 18.2814H2.4375V20.7189H24.375V18.2814Z" fill="#0384CE"/>
<path d="M36.5625 37.7816H7.3125V40.2191H36.5625V37.7816Z" fill="#0384CE"/>
<path d="M37.7812 45.094H25.5938V47.5315H37.7812V45.094Z" fill="#0384CE"/>
<path d="M23.1562 45.094H1.21875V47.5315H23.1562V45.094Z" fill="#0384CE"/>
<path d="M37.7815 52.4066H14.6252V54.8441H37.7815V52.4066Z" fill="#0384CE"/>
<path d="M12.1875 52.4066H1.21875V54.8441H12.1875V52.4066Z" fill="#0384CE"/>
<path d="M19.5001 30.4688C19.3455 30.471 19.1922 30.442 19.0491 30.3834L8.43382 26.13C5.93972 25.1446 3.80072 23.43 2.29616 21.2101C0.791603 18.9902 -0.00859381 16.3683 6.96092e-05 13.6866V0H2.43757V13.6866C2.43691 15.8799 3.09382 18.023 4.32346 19.8393C5.5531 21.6555 7.299 23.0613 9.33569 23.8753L19.5001 27.9338L29.6644 23.8753C31.7011 23.0613 33.447 21.6555 34.6767 19.8393C35.9063 18.023 36.5632 15.8799 36.5626 13.6866V0H39.0001V13.6866C39.0087 16.3683 38.2085 18.9902 36.704 21.2101C35.1994 23.43 33.0604 25.1446 30.5663 26.13L19.951 30.3834C19.808 30.442 19.6546 30.471 19.5001 30.4688Z" fill="#0384CE"/>
<path d="M39.0001 58.5003H36.5626V44.8138C36.5632 42.6204 35.9063 40.4773 34.6767 38.6611C33.447 36.8448 31.7011 35.439 29.6644 34.625L19.5001 30.5666L9.33569 34.625C7.299 35.439 5.5531 36.8448 4.32346 38.6611C3.09382 40.4773 2.43691 42.6204 2.43757 44.8138V58.5003H6.96092e-05V44.8138C-0.00859381 42.1321 0.791603 39.5101 2.29616 37.2902C3.80072 35.0703 5.93972 33.3557 8.43382 32.3703L19.0491 28.1169C19.3387 28.0016 19.6614 28.0016 19.951 28.1169L30.5663 32.3703C33.0604 33.3557 35.1994 35.0703 36.704 37.2902C38.2085 39.5101 39.0087 42.1321 39.0001 44.8138V58.5003Z" fill="#0384CE"/>
</g>
<defs>
<clipPath id="clip0_1_388">
<rect width="39" height="58.5" fill="white"/>
</clipPath>
</defs>
</svg>
