<svg width="23" height="24" viewBox="0 0 23 24" fill="none" xmlns="http://www.w3.org/2000/svg">
<rect y="0.985352" width="22.0288" height="22.0288" fill="#808080"/>
<path d="M15.7799 13.1165C15.5583 12.8466 15.6217 12.7266 15.7799 12.4854C15.7828 12.4826 17.6121 10.0451 17.8006 9.2185L17.8018 9.21795C17.8954 8.9167 17.8018 8.69531 17.3488 8.69531H15.8502C15.4687 8.69531 15.2928 8.88531 15.1985 9.09789C15.1985 9.09789 14.4355 10.8591 13.356 12.0007C13.0076 12.3306 12.8466 12.4363 12.6564 12.4363C12.5627 12.4363 12.4171 12.3306 12.4171 12.0294V9.21795C12.4171 8.85667 12.3103 8.69531 11.9944 8.69531H9.63794C9.39863 8.69531 9.25642 8.86383 9.25642 9.02079C9.25642 9.36333 9.79614 9.44209 9.85212 10.4058V12.4969C9.85212 12.9551 9.76587 13.0394 9.57454 13.0394C9.06509 13.0394 7.82858 11.271 7.09581 9.24713C6.94789 8.85447 6.80339 8.69586 6.41902 8.69586H4.91978C4.492 8.69586 4.40576 8.88586 4.40576 9.09844C4.40576 9.47403 4.91521 11.3415 6.77483 13.8087C8.0142 15.4928 9.75959 16.4054 11.3473 16.4054C12.3017 16.4054 12.4182 16.2027 12.4182 15.8541C12.4182 14.2449 12.332 14.0929 12.81 14.0929C13.0316 14.0929 13.4131 14.1986 14.3041 15.011C15.3225 15.9742 15.4898 16.4054 16.0598 16.4054H17.5585C17.9857 16.4054 18.2021 16.2027 18.0776 15.8029C17.7926 14.9619 15.8667 13.2321 15.7799 13.1165Z" fill="white"/>
</svg>
